G04 Layer_Color=65535*
%FSLAX44Y44*%
%MOMM*%
G71*
G01*
G75*
%ADD29C,0.2500*%
%ADD37C,0.1524*%
%ADD38C,0.2540*%
%ADD39C,0.2000*%
%ADD40C,0.2032*%
%ADD41C,0.1641*%
D29*
X-232250Y120100D02*
G03*
X-232250Y120100I-1250J0D01*
G01*
X-94650Y-268500D02*
G03*
X-94650Y-268500I-1250J0D01*
G01*
X-532650Y-261671D02*
G03*
X-532650Y-261671I-1250J0D01*
G01*
X-156750Y-490500D02*
G03*
X-156750Y-490500I-1250J0D01*
G01*
D37*
X-339800Y319923D02*
G03*
X-339800Y319923I-762J0D01*
G01*
Y364400D02*
G03*
X-339800Y364400I-762J0D01*
G01*
X-313315Y272000D02*
G03*
X-313315Y272000I-762J0D01*
G01*
X-322792Y-300000D02*
G03*
X-322792Y-300000I-762J0D01*
G01*
X-425684Y-300000D02*
G03*
X-425684Y-300000I-762J0D01*
G01*
X-128161Y-607000D02*
G03*
X-128161Y-607000I-762J0D01*
G01*
X-125161Y-485000D02*
G03*
X-125161Y-485000I-762J0D01*
G01*
X-299585Y349945D02*
X-292498D01*
X-299585Y304945D02*
X-292498D01*
X-299585Y341055D02*
X-292498D01*
X-299585Y296055D02*
X-292498D01*
X-293463Y265748D02*
X-273397D01*
X-293463Y234252D02*
X-273397D01*
X-343901Y-237659D02*
Y-232604D01*
X-396701Y-237659D02*
Y-232604D01*
X-353299Y-237659D02*
Y-232604D01*
X-406099Y-237659D02*
Y-232604D01*
X-185396Y-548901D02*
X-180341D01*
X-185396Y-601701D02*
X-180341D01*
X-185396Y-558299D02*
X-180341D01*
X-185396Y-611099D02*
X-180341D01*
D38*
X-290303Y-203360D02*
G03*
X-290303Y-203360I-1270J0D01*
G01*
X-167260Y-303360D02*
G03*
X-167260Y-303360I-1270J0D01*
G01*
X-290260Y-109729D02*
G03*
X-290260Y-109729I-1270J0D01*
G01*
X-16850Y325550D02*
X-13850Y322550D01*
X-171850Y325550D02*
X-16850D01*
X-174850Y322550D02*
X-171850Y325550D01*
X-174850Y138550D02*
Y322550D01*
Y138550D02*
X-13850D01*
Y322550D01*
X-500000Y274000D02*
Y343000D01*
X-611000Y274000D02*
X-500000D01*
X-611000D02*
Y327000D01*
Y343000D02*
X-500000D01*
X-611000Y327000D02*
Y343000D01*
X-484000Y212000D02*
X-389000D01*
Y104000D02*
Y212000D01*
X-484000Y104000D02*
X-389000D01*
X-484000D02*
Y212000D01*
X-481958Y236000D02*
X-386958D01*
X-481958D02*
Y344000D01*
X-386958D01*
Y236000D02*
Y344000D01*
X-82000Y-519000D02*
X-66000D01*
X-82000D02*
Y-408000D01*
X-66000Y-519000D02*
X-13000D01*
Y-408000D01*
X-82000D02*
X-13000D01*
X-317000Y-539000D02*
Y-523000D01*
X-428000Y-539000D02*
X-317000D01*
Y-523000D02*
Y-470000D01*
X-428000D02*
X-317000D01*
X-428000Y-539000D02*
Y-470000D01*
X-527000Y-313000D02*
X-317000D01*
X-527000Y-448000D02*
Y-313000D01*
Y-448000D02*
X-318000D01*
X-317000Y-447000D01*
Y-313000D01*
X-274543Y-207500D02*
X-209543D01*
Y-280500D02*
Y-207500D01*
X-274543Y-280500D02*
X-209543D01*
X-274543D02*
Y-207500D01*
X-495000Y103000D02*
X-492000Y106000D01*
Y261000D01*
X-495000Y264000D02*
X-492000Y261000D01*
X-679000Y264000D02*
X-495000D01*
X-679000Y103000D02*
Y264000D01*
Y103000D02*
X-495000D01*
X-151500Y-307500D02*
X-86500D01*
Y-380500D02*
Y-307500D01*
X-151500Y-380500D02*
X-86500D01*
X-151500D02*
Y-307500D01*
X-304000Y-323000D02*
Y-307000D01*
X-193000D01*
X-304000Y-376000D02*
Y-323000D01*
Y-376000D02*
X-193000D01*
Y-307000D01*
X-274499Y-113869D02*
X-209500D01*
Y-186869D02*
Y-113869D01*
X-274499Y-186869D02*
X-209500D01*
X-274499D02*
Y-113869D01*
X-173000Y351235D02*
Y338539D01*
X-170461Y336000D01*
X-165382D01*
X-162843Y338539D01*
Y351235D01*
X-157765D02*
X-147608D01*
Y348696D01*
X-157765Y338539D01*
Y336000D01*
X-619843Y275179D02*
X-635078D01*
Y282797D01*
X-632539Y285336D01*
X-627461D01*
X-624921Y282797D01*
Y275179D01*
X-635078Y290414D02*
Y300571D01*
X-632539D01*
X-622382Y290414D01*
X-619843D01*
D39*
X-301500Y106500D02*
X-262000D01*
Y209500D01*
X-301500D02*
X-262000D01*
X-121500Y-451250D02*
X-95500D01*
X-6500Y-240000D02*
Y-200500D01*
X-109500Y-240000D02*
X-6500D01*
X-109500D02*
Y-200500D01*
X-444500Y-233171D02*
Y-193671D01*
X-547500Y-233171D02*
X-444500D01*
X-547500D02*
Y-193671D01*
X-675086Y-302230D02*
X-556086D01*
X-675086Y-116230D02*
X-556086D01*
X-675086Y-302230D02*
Y-116230D01*
X-556086Y-302230D02*
Y-116230D01*
X-226000Y-401101D02*
X-186500D01*
Y-504100D02*
Y-401101D01*
X-226000Y-504100D02*
X-186500D01*
X-190000Y173000D02*
X-199997D01*
Y177998D01*
X-198331Y179664D01*
X-194998D01*
X-193332Y177998D01*
Y173000D01*
Y176332D02*
X-190000Y179664D01*
X-198331Y182997D02*
X-199997Y184663D01*
Y187995D01*
X-198331Y189661D01*
X-196665D01*
X-194998Y187995D01*
Y186329D01*
Y187995D01*
X-193332Y189661D01*
X-191666D01*
X-190000Y187995D01*
Y184663D01*
X-191666Y182997D01*
X-108336Y-464669D02*
X-110002Y-463003D01*
X-113334D01*
X-115000Y-464669D01*
Y-471334D01*
X-113334Y-473000D01*
X-110002D01*
X-108336Y-471334D01*
X-105003Y-464669D02*
X-103337Y-463003D01*
X-100005D01*
X-98339Y-464669D01*
Y-466335D01*
X-100005Y-468002D01*
X-98339Y-469668D01*
Y-471334D01*
X-100005Y-473000D01*
X-103337D01*
X-105003Y-471334D01*
Y-469668D01*
X-103337Y-468002D01*
X-105003Y-466335D01*
Y-464669D01*
X-103337Y-468002D02*
X-100005D01*
X-116335Y-586669D02*
X-118002Y-585003D01*
X-121334D01*
X-123000Y-586669D01*
Y-593334D01*
X-121334Y-595000D01*
X-118002D01*
X-116335Y-593334D01*
X-113003Y-585003D02*
X-106339D01*
Y-586669D01*
X-113003Y-593334D01*
Y-595000D01*
X-302000Y-510003D02*
Y-518334D01*
X-300334Y-520000D01*
X-297002D01*
X-295336Y-518334D01*
Y-510003D01*
X-292003Y-520000D02*
X-288671D01*
X-290337D01*
Y-510003D01*
X-292003Y-511669D01*
X-283673D02*
X-282006Y-510003D01*
X-278674D01*
X-277008Y-511669D01*
Y-513335D01*
X-278674Y-515002D01*
X-280340D01*
X-278674D01*
X-277008Y-516668D01*
Y-518334D01*
X-278674Y-520000D01*
X-282006D01*
X-283673Y-518334D01*
X-275000Y-98003D02*
Y-106334D01*
X-273334Y-108000D01*
X-270002D01*
X-268335Y-106334D01*
Y-98003D01*
X-265003Y-108000D02*
X-261671D01*
X-263337D01*
Y-98003D01*
X-265003Y-99669D01*
X-256673D02*
X-255006Y-98003D01*
X-251674D01*
X-250008Y-99669D01*
Y-106334D01*
X-251674Y-108000D01*
X-255006D01*
X-256673Y-106334D01*
Y-99669D01*
X-151000Y-292003D02*
Y-300334D01*
X-149334Y-302000D01*
X-146002D01*
X-144335Y-300334D01*
Y-292003D01*
X-134339D02*
X-137671Y-293669D01*
X-141003Y-297002D01*
Y-300334D01*
X-139337Y-302000D01*
X-136005D01*
X-134339Y-300334D01*
Y-298668D01*
X-136005Y-297002D01*
X-141003D01*
X-675000Y279997D02*
Y271666D01*
X-673334Y270000D01*
X-670002D01*
X-668335Y271666D01*
Y279997D01*
X-658339D02*
X-665003D01*
Y274998D01*
X-661671Y276665D01*
X-660005D01*
X-658339Y274998D01*
Y271666D01*
X-660005Y270000D01*
X-663337D01*
X-665003Y271666D01*
X-674097Y-98207D02*
Y-106538D01*
X-672431Y-108204D01*
X-669099D01*
X-667433Y-106538D01*
Y-98207D01*
X-659102Y-108204D02*
Y-98207D01*
X-664101Y-103206D01*
X-657436D01*
X-274000Y-192003D02*
Y-200334D01*
X-272334Y-202000D01*
X-269002D01*
X-267335Y-200334D01*
Y-192003D01*
X-264003Y-193669D02*
X-262337Y-192003D01*
X-259005D01*
X-257339Y-193669D01*
Y-195336D01*
X-259005Y-197002D01*
X-260671D01*
X-259005D01*
X-257339Y-198668D01*
Y-200334D01*
X-259005Y-202000D01*
X-262337D01*
X-264003Y-200334D01*
X-202000Y-76003D02*
Y-84334D01*
X-200334Y-86000D01*
X-197002D01*
X-195336Y-84334D01*
Y-76003D01*
X-185339Y-86000D02*
X-192003D01*
X-185339Y-79335D01*
Y-77669D01*
X-187005Y-76003D01*
X-190337D01*
X-192003Y-77669D01*
X-429497Y-97003D02*
Y-105334D01*
X-427831Y-107000D01*
X-424499D01*
X-422832Y-105334D01*
Y-97003D01*
X-419500Y-107000D02*
X-416168D01*
X-417834D01*
Y-97003D01*
X-419500Y-98670D01*
X-143000Y-181000D02*
Y-171003D01*
X-138002D01*
X-136335Y-172669D01*
Y-176002D01*
X-138002Y-177668D01*
X-143000D01*
X-139668D02*
X-136335Y-181000D01*
X-133003D02*
X-129671D01*
X-131337D01*
Y-171003D01*
X-133003Y-172669D01*
X-118008Y-181000D02*
X-124673D01*
X-118008Y-174335D01*
Y-172669D01*
X-119674Y-171003D01*
X-123006D01*
X-124673Y-172669D01*
X-143000Y-156000D02*
Y-146003D01*
X-138002D01*
X-136335Y-147669D01*
Y-151002D01*
X-138002Y-152668D01*
X-143000D01*
X-139668D02*
X-136335Y-156000D01*
X-133003D02*
X-129671D01*
X-131337D01*
Y-146003D01*
X-133003Y-147669D01*
X-124673D02*
X-123006Y-146003D01*
X-119674D01*
X-118008Y-147669D01*
Y-154334D01*
X-119674Y-156000D01*
X-123006D01*
X-124673Y-154334D01*
Y-147669D01*
X-143000Y-129000D02*
Y-119003D01*
X-138002D01*
X-136335Y-120669D01*
Y-124002D01*
X-138002Y-125668D01*
X-143000D01*
X-139668D02*
X-136335Y-129000D01*
X-133003Y-127334D02*
X-131337Y-129000D01*
X-128005D01*
X-126339Y-127334D01*
Y-120669D01*
X-128005Y-119003D01*
X-131337D01*
X-133003Y-120669D01*
Y-122336D01*
X-131337Y-124002D01*
X-126339D01*
X-18750Y-374000D02*
Y-364003D01*
X-13752D01*
X-12085Y-365669D01*
Y-369002D01*
X-13752Y-370668D01*
X-18750D01*
X-15418D02*
X-12085Y-374000D01*
X-8753Y-365669D02*
X-7087Y-364003D01*
X-3755D01*
X-2089Y-365669D01*
Y-367336D01*
X-3755Y-369002D01*
X-2089Y-370668D01*
Y-372334D01*
X-3755Y-374000D01*
X-7087D01*
X-8753Y-372334D01*
Y-370668D01*
X-7087Y-369002D01*
X-8753Y-367336D01*
Y-365669D01*
X-7087Y-369002D02*
X-3755D01*
X-19000Y-349000D02*
Y-339003D01*
X-14002D01*
X-12335Y-340669D01*
Y-344002D01*
X-14002Y-345668D01*
X-19000D01*
X-15668D02*
X-12335Y-349000D01*
X-2339Y-339003D02*
X-5671Y-340669D01*
X-9003Y-344002D01*
Y-347334D01*
X-7337Y-349000D01*
X-4005D01*
X-2339Y-347334D01*
Y-345668D01*
X-4005Y-344002D01*
X-9003D01*
X-18000Y-323000D02*
Y-313003D01*
X-13002D01*
X-11336Y-314669D01*
Y-318002D01*
X-13002Y-319668D01*
X-18000D01*
X-14668D02*
X-11336Y-323000D01*
X-1339Y-313003D02*
X-8003D01*
Y-318002D01*
X-4671Y-316336D01*
X-3005D01*
X-1339Y-318002D01*
Y-321334D01*
X-3005Y-323000D01*
X-6337D01*
X-8003Y-321334D01*
X-142000Y-274000D02*
Y-264003D01*
X-137002D01*
X-135336Y-265669D01*
Y-269002D01*
X-137002Y-270668D01*
X-142000D01*
X-138668D02*
X-135336Y-274000D01*
X-127005D02*
Y-264003D01*
X-132003Y-269002D01*
X-125339D01*
X-142000Y-248000D02*
Y-238003D01*
X-137002D01*
X-135336Y-239669D01*
Y-243002D01*
X-137002Y-244668D01*
X-142000D01*
X-138668D02*
X-135336Y-248000D01*
X-125339D02*
X-132003D01*
X-125339Y-241336D01*
Y-239669D01*
X-127005Y-238003D01*
X-130337D01*
X-132003Y-239669D01*
X-143000Y-221000D02*
Y-211003D01*
X-138002D01*
X-136335Y-212669D01*
Y-216002D01*
X-138002Y-217668D01*
X-143000D01*
X-139668D02*
X-136335Y-221000D01*
X-133003D02*
X-129671D01*
X-131337D01*
Y-211003D01*
X-133003Y-212669D01*
X-297335Y-392334D02*
Y-385669D01*
X-299002Y-384003D01*
X-302334D01*
X-304000Y-385669D01*
Y-392334D01*
X-302334Y-394000D01*
X-299002D01*
X-300668Y-390668D02*
X-297335Y-394000D01*
X-299002D02*
X-297335Y-392334D01*
X-294003Y-385669D02*
X-292337Y-384003D01*
X-289005D01*
X-287339Y-385669D01*
Y-387336D01*
X-289005Y-389002D01*
X-290671D01*
X-289005D01*
X-287339Y-390668D01*
Y-392334D01*
X-289005Y-394000D01*
X-292337D01*
X-294003Y-392334D01*
X-542336Y-105334D02*
Y-98669D01*
X-544002Y-97003D01*
X-547334D01*
X-549000Y-98669D01*
Y-105334D01*
X-547334Y-107000D01*
X-544002D01*
X-545668Y-103668D02*
X-542336Y-107000D01*
X-544002D02*
X-542336Y-105334D01*
X-532339Y-107000D02*
X-539003D01*
X-532339Y-100336D01*
Y-98669D01*
X-534005Y-97003D01*
X-537337D01*
X-539003Y-98669D01*
X-58664Y-253495D02*
Y-260160D01*
X-56998Y-261826D01*
X-53666D01*
X-52000Y-260160D01*
Y-253495D01*
X-53666Y-251829D01*
X-56998D01*
X-55332Y-255161D02*
X-58664Y-251829D01*
X-56998D02*
X-58664Y-253495D01*
X-61997Y-251829D02*
X-65329D01*
X-63663D01*
Y-261826D01*
X-61997Y-260160D01*
X-524000Y-307000D02*
Y-297003D01*
X-519002D01*
X-517336Y-298669D01*
Y-302002D01*
X-519002Y-303668D01*
X-524000D01*
X-514003Y-298669D02*
X-512337Y-297003D01*
X-509005D01*
X-507339Y-298669D01*
Y-300336D01*
X-509005Y-302002D01*
X-510671D01*
X-509005D01*
X-507339Y-303668D01*
Y-305334D01*
X-509005Y-307000D01*
X-512337D01*
X-514003Y-305334D01*
X-427000Y-464000D02*
Y-454003D01*
X-422002D01*
X-420336Y-455669D01*
Y-459002D01*
X-422002Y-460668D01*
X-427000D01*
X-410339Y-464000D02*
X-417003D01*
X-410339Y-457336D01*
Y-455669D01*
X-412005Y-454003D01*
X-415337D01*
X-417003Y-455669D01*
X-303000Y-300000D02*
Y-290003D01*
X-298002D01*
X-296336Y-291669D01*
Y-295002D01*
X-298002Y-296668D01*
X-303000D01*
X-293003Y-300000D02*
X-289671D01*
X-291337D01*
Y-290003D01*
X-293003Y-291669D01*
X-444336Y-297669D02*
X-446002Y-296003D01*
X-449334D01*
X-451000Y-297669D01*
Y-304334D01*
X-449334Y-306000D01*
X-446002D01*
X-444336Y-304334D01*
X-434339Y-306000D02*
X-441003D01*
X-434339Y-299335D01*
Y-297669D01*
X-436005Y-296003D01*
X-439337D01*
X-441003Y-297669D01*
X-370336Y-296669D02*
X-372002Y-295003D01*
X-375334D01*
X-377000Y-296669D01*
Y-303334D01*
X-375334Y-305000D01*
X-372002D01*
X-370336Y-303334D01*
X-367003Y-305000D02*
X-363671D01*
X-365337D01*
Y-295003D01*
X-367003Y-296669D01*
X-115000Y-391503D02*
Y-401500D01*
X-110002D01*
X-108336Y-399834D01*
Y-393169D01*
X-110002Y-391503D01*
X-115000D01*
X-105004Y-401500D02*
X-101671D01*
X-103338D01*
Y-391503D01*
X-105004Y-393169D01*
X-82000Y-401000D02*
Y-391003D01*
X-77002D01*
X-75335Y-392669D01*
Y-396002D01*
X-77002Y-397668D01*
X-82000D01*
X-67005Y-401000D02*
Y-391003D01*
X-72003Y-396002D01*
X-65339D01*
X-362336Y276331D02*
X-364002Y277997D01*
X-367334D01*
X-369000Y276331D01*
Y269666D01*
X-367334Y268000D01*
X-364002D01*
X-362336Y269666D01*
X-359003Y276331D02*
X-357337Y277997D01*
X-354005D01*
X-352339Y276331D01*
Y274664D01*
X-354005Y272998D01*
X-355671D01*
X-354005D01*
X-352339Y271332D01*
Y269666D01*
X-354005Y268000D01*
X-357337D01*
X-359003Y269666D01*
X-362331Y343665D02*
X-363997Y341998D01*
Y338666D01*
X-362331Y337000D01*
X-355666D01*
X-354000Y338666D01*
Y341998D01*
X-355666Y343665D01*
X-363997Y353661D02*
Y346997D01*
X-358998D01*
X-360664Y350329D01*
Y351995D01*
X-358998Y353661D01*
X-355666D01*
X-354000Y351995D01*
Y348663D01*
X-355666Y346997D01*
X-362331Y298664D02*
X-363997Y296998D01*
Y293666D01*
X-362331Y292000D01*
X-355666D01*
X-354000Y293666D01*
Y296998D01*
X-355666Y298664D01*
X-363997Y308661D02*
X-362331Y305329D01*
X-358998Y301997D01*
X-355666D01*
X-354000Y303663D01*
Y306995D01*
X-355666Y308661D01*
X-357332D01*
X-358998Y306995D01*
Y301997D01*
X-482000Y218000D02*
Y227997D01*
X-477002D01*
X-475336Y226331D01*
Y222998D01*
X-477002Y221332D01*
X-482000D01*
X-465339Y227997D02*
X-472003D01*
Y222998D01*
X-468671Y224664D01*
X-467005D01*
X-465339Y222998D01*
Y219666D01*
X-467005Y218000D01*
X-470337D01*
X-472003Y219666D01*
X-481958Y349000D02*
Y358997D01*
X-476959D01*
X-475293Y357331D01*
Y353999D01*
X-476959Y352332D01*
X-481958D01*
X-465296Y358997D02*
X-468629Y357331D01*
X-471961Y353999D01*
Y350666D01*
X-470295Y349000D01*
X-466963D01*
X-465296Y350666D01*
Y352332D01*
X-466963Y353999D01*
X-471961D01*
X-271336Y216666D02*
Y223331D01*
X-273002Y224997D01*
X-276334D01*
X-278000Y223331D01*
Y216666D01*
X-276334Y215000D01*
X-273002D01*
X-274668Y218332D02*
X-271336Y215000D01*
X-273002D02*
X-271336Y216666D01*
X-263005Y215000D02*
Y224997D01*
X-268003Y219998D01*
X-261339D01*
X-216250Y229000D02*
Y238997D01*
X-211252D01*
X-209585Y237331D01*
Y233998D01*
X-211252Y232332D01*
X-216250D01*
X-212918D02*
X-209585Y229000D01*
X-206253D02*
X-202921D01*
X-204587D01*
Y238997D01*
X-206253Y237331D01*
X-197923D02*
X-196256Y238997D01*
X-192924D01*
X-191258Y237331D01*
Y235664D01*
X-192924Y233998D01*
X-194590D01*
X-192924D01*
X-191258Y232332D01*
Y230666D01*
X-192924Y229000D01*
X-196256D01*
X-197923Y230666D01*
X-217000Y259000D02*
Y268997D01*
X-212002D01*
X-210336Y267331D01*
Y263998D01*
X-212002Y262332D01*
X-217000D01*
X-213668D02*
X-210336Y259000D01*
X-207003D02*
X-203671D01*
X-205337D01*
Y268997D01*
X-207003Y267331D01*
X-193674Y259000D02*
Y268997D01*
X-198673Y263998D01*
X-192008D01*
X-378000Y228000D02*
Y237997D01*
X-373002D01*
X-371335Y236331D01*
Y232998D01*
X-373002Y231332D01*
X-378000D01*
X-374668D02*
X-371335Y228000D01*
X-368003D02*
X-364671D01*
X-366337D01*
Y237997D01*
X-368003Y236331D01*
X-353008Y237997D02*
X-359673D01*
Y232998D01*
X-356340Y234664D01*
X-354674D01*
X-353008Y232998D01*
Y229666D01*
X-354674Y228000D01*
X-358006D01*
X-359673Y229666D01*
X-378000Y247000D02*
Y256997D01*
X-373002D01*
X-371335Y255331D01*
Y251998D01*
X-373002Y250332D01*
X-378000D01*
X-374668D02*
X-371335Y247000D01*
X-368003D02*
X-364671D01*
X-366337D01*
Y256997D01*
X-368003Y255331D01*
X-353008Y256997D02*
X-356340Y255331D01*
X-359673Y251998D01*
Y248666D01*
X-358006Y247000D01*
X-354674D01*
X-353008Y248666D01*
Y250332D01*
X-354674Y251998D01*
X-359673D01*
X-302000Y280997D02*
Y272666D01*
X-300334Y271000D01*
X-297002D01*
X-295336Y272666D01*
Y280997D01*
X-292003Y271000D02*
X-288671D01*
X-290337D01*
Y280997D01*
X-292003Y279331D01*
X-283673Y271000D02*
X-280340D01*
X-282006D01*
Y280997D01*
X-283673Y279331D01*
X-321000Y368997D02*
Y360666D01*
X-319334Y359000D01*
X-316002D01*
X-314335Y360666D01*
Y368997D01*
X-311003Y359000D02*
X-307671D01*
X-309337D01*
Y368997D01*
X-311003Y367331D01*
X-296008Y359000D02*
X-302673D01*
X-296008Y365664D01*
Y367331D01*
X-297674Y368997D01*
X-301006D01*
X-302673Y367331D01*
X-526360Y114933D02*
X-529692D01*
X-528026D01*
Y124930D01*
X-526360D01*
X-529692D01*
X-534691D02*
Y114933D01*
X-541355Y124930D01*
Y114933D01*
X-544687D02*
X-551352D01*
X-548020D01*
Y124930D01*
X-561349D02*
X-554684D01*
X-561349Y118265D01*
Y116599D01*
X-559683Y114933D01*
X-556350D01*
X-554684Y116599D01*
X-526360Y140333D02*
X-529692D01*
X-528026D01*
Y150330D01*
X-526360D01*
X-529692D01*
X-534691D02*
Y140333D01*
X-541355Y150330D01*
Y140333D01*
X-544687D02*
X-551352D01*
X-548020D01*
Y150330D01*
X-554684D02*
X-558016D01*
X-556350D01*
Y140333D01*
X-554684Y141999D01*
X-533024Y192799D02*
X-531358Y191133D01*
X-528026D01*
X-526360Y192799D01*
Y194466D01*
X-528026Y196132D01*
X-531358D01*
X-533024Y197798D01*
Y199464D01*
X-531358Y201130D01*
X-528026D01*
X-526360Y199464D01*
X-543021Y192799D02*
X-541355Y191133D01*
X-538023D01*
X-536357Y192799D01*
Y199464D01*
X-538023Y201130D01*
X-541355D01*
X-543021Y199464D01*
X-546353Y191133D02*
Y201130D01*
X-553018D01*
X-533024Y167399D02*
X-531358Y165733D01*
X-528026D01*
X-526360Y167399D01*
Y169065D01*
X-528026Y170732D01*
X-531358D01*
X-533024Y172398D01*
Y174064D01*
X-531358Y175730D01*
X-528026D01*
X-526360Y174064D01*
X-536357Y165733D02*
Y175730D01*
X-541355D01*
X-543021Y174064D01*
Y167399D01*
X-541355Y165733D01*
X-536357D01*
X-546353Y175730D02*
Y169065D01*
X-549686Y165733D01*
X-553018Y169065D01*
Y175730D01*
Y170732D01*
X-546353D01*
X-526360Y216533D02*
Y223198D01*
X-529692Y226530D01*
X-533024Y223198D01*
Y216533D01*
X-543021Y218199D02*
X-541355Y216533D01*
X-538023D01*
X-536357Y218199D01*
Y224864D01*
X-538023Y226530D01*
X-541355D01*
X-543021Y224864D01*
X-553018Y218199D02*
X-551352Y216533D01*
X-548020D01*
X-546353Y218199D01*
Y224864D01*
X-548020Y226530D01*
X-551352D01*
X-553018Y224864D01*
X-533024Y243599D02*
X-531358Y241933D01*
X-528026D01*
X-526360Y243599D01*
Y250264D01*
X-528026Y251930D01*
X-531358D01*
X-533024Y250264D01*
Y246932D01*
X-529692D01*
X-536357Y251930D02*
Y241933D01*
X-543021Y251930D01*
Y241933D01*
X-546353D02*
Y251930D01*
X-551352D01*
X-553018Y250264D01*
Y243599D01*
X-551352Y241933D01*
X-546353D01*
D40*
X-564100Y-13500D02*
X-551400D01*
X-564100Y-89700D02*
Y-13500D01*
Y-89700D02*
X-208500D01*
Y88100D01*
X-564100D02*
X-208500D01*
X-564100Y11900D02*
Y88100D01*
Y11900D02*
X-551400D01*
Y-13500D02*
Y11900D01*
D41*
X-27147Y284190D02*
Y281312D01*
Y282751D01*
X-35780D01*
Y284190D01*
Y281312D01*
Y276996D02*
X-27147D01*
X-35780Y271240D01*
X-27147D01*
Y268362D02*
Y262607D01*
Y265485D01*
X-35780D01*
Y253974D02*
Y259729D01*
X-30024Y253974D01*
X-28586D01*
X-27147Y255413D01*
Y258290D01*
X-28586Y259729D01*
X-52547Y284190D02*
Y281312D01*
Y282751D01*
X-61180D01*
Y284190D01*
Y281312D01*
Y276996D02*
X-52547D01*
X-61180Y271240D01*
X-52547D01*
Y268362D02*
Y262607D01*
Y265485D01*
X-61180D01*
Y259729D02*
Y256852D01*
Y258290D01*
X-52547D01*
X-53986Y259729D01*
X-104786Y278435D02*
X-103347Y279873D01*
Y282751D01*
X-104786Y284190D01*
X-106224D01*
X-107663Y282751D01*
Y279873D01*
X-109102Y278435D01*
X-110541D01*
X-111980Y279873D01*
Y282751D01*
X-110541Y284190D01*
X-104786Y269801D02*
X-103347Y271240D01*
Y274118D01*
X-104786Y275557D01*
X-110541D01*
X-111980Y274118D01*
Y271240D01*
X-110541Y269801D01*
X-103347Y266924D02*
X-111980D01*
Y261168D01*
X-79386Y278435D02*
X-77947Y279873D01*
Y282751D01*
X-79386Y284190D01*
X-80824D01*
X-82263Y282751D01*
Y279873D01*
X-83702Y278435D01*
X-85141D01*
X-86580Y279873D01*
Y282751D01*
X-85141Y284190D01*
X-77947Y275557D02*
X-86580D01*
Y271240D01*
X-85141Y269801D01*
X-79386D01*
X-77947Y271240D01*
Y275557D01*
X-86580Y266924D02*
X-80824D01*
X-77947Y264046D01*
X-80824Y261168D01*
X-86580D01*
X-82263D01*
Y266924D01*
X-128747Y284190D02*
X-134502D01*
X-137380Y281312D01*
X-134502Y278435D01*
X-128747D01*
X-130186Y269801D02*
X-128747Y271240D01*
Y274118D01*
X-130186Y275557D01*
X-135941D01*
X-137380Y274118D01*
Y271240D01*
X-135941Y269801D01*
X-130186Y261168D02*
X-128747Y262607D01*
Y265485D01*
X-130186Y266924D01*
X-135941D01*
X-137380Y265485D01*
Y262607D01*
X-135941Y261168D01*
X-155586Y278435D02*
X-154147Y279873D01*
Y282751D01*
X-155586Y284190D01*
X-161341D01*
X-162780Y282751D01*
Y279873D01*
X-161341Y278435D01*
X-158463D01*
Y281312D01*
X-162780Y275557D02*
X-154147D01*
X-162780Y269801D01*
X-154147D01*
Y266924D02*
X-162780D01*
Y262607D01*
X-161341Y261168D01*
X-155586D01*
X-154147Y262607D01*
Y266924D01*
M02*
