G04 Layer_Color=65535*
%FSLAX44Y44*%
%MOMM*%
G71*
G01*
G75*
%ADD23C,0.2500*%
%ADD31C,0.2540*%
%ADD32C,0.1524*%
%ADD33C,0.2000*%
%ADD34C,0.2032*%
D23*
X-513850Y266500D02*
G03*
X-513850Y266500I-1250J0D01*
G01*
X-31850Y460671D02*
G03*
X-31850Y460671I-1250J0D01*
G01*
X-276850Y460671D02*
G03*
X-276850Y460671I-1250J0D01*
G01*
D31*
X-584001Y-187530D02*
G03*
X-584001Y-187530I-1270J0D01*
G01*
X-238260Y615647D02*
G03*
X-238260Y615647I-1270J0D01*
G01*
X-462370Y321427D02*
G03*
X-462370Y321427I-1270J0D01*
G01*
X-392000Y-13000D02*
Y56000D01*
X-503000Y-13000D02*
X-392000D01*
X-503000D02*
Y40000D01*
Y56000D02*
X-392000D01*
X-503000Y40000D02*
Y56000D01*
X-581131Y-170500D02*
X-508131D01*
Y-105500D01*
X-581131D02*
X-508131D01*
X-581131Y-170500D02*
Y-105500D01*
X-222500Y538507D02*
Y611507D01*
Y538507D02*
X-157500D01*
Y611507D01*
X-222500D02*
X-157500D01*
X-305000Y296000D02*
X-121000D01*
Y135000D02*
Y296000D01*
X-305000Y135000D02*
X-121000D01*
X-308000Y138000D02*
X-305000Y135000D01*
X-308000Y138000D02*
Y293000D01*
X-305000Y296000D01*
X-459500Y338457D02*
X-386500D01*
Y403457D01*
X-459500D02*
X-386500D01*
X-459500Y338457D02*
Y403457D01*
X-370000Y-39000D02*
X-301000D01*
X-370000D02*
Y72000D01*
X-317000D01*
X-301000Y-39000D02*
Y72000D01*
X-317000D02*
X-301000D01*
X-94000Y160000D02*
X-25000D01*
X-94000D02*
Y271000D01*
X-41000D01*
X-25000Y160000D02*
Y271000D01*
X-41000D02*
X-25000D01*
X-284000Y-88000D02*
X-150000D01*
X-285000Y-87000D02*
X-284000Y-88000D01*
X-285000Y-87000D02*
Y122000D01*
X-150000D01*
Y-88000D02*
Y122000D01*
X-511843Y-11821D02*
X-527078D01*
Y-4203D01*
X-524539Y-1664D01*
X-519460D01*
X-516921Y-4203D01*
Y-11821D01*
X-511843Y11032D02*
X-527078D01*
X-519460Y3414D01*
Y13571D01*
X-409379Y-124460D02*
Y-109225D01*
X-416997D01*
X-419536Y-111764D01*
Y-121921D01*
X-416997Y-124460D01*
X-409379D01*
X-424614Y-109225D02*
X-429692D01*
X-427153D01*
Y-124460D01*
X-424614Y-121921D01*
D32*
X-547238Y339446D02*
G03*
X-547238Y339446I-762J0D01*
G01*
X-506238Y338923D02*
G03*
X-506238Y338923I-762J0D01*
G01*
X-141315Y514000D02*
G03*
X-141315Y514000I-762J0D01*
G01*
X-213315D02*
G03*
X-213315Y514000I-762J0D01*
G01*
X-393901Y-165396D02*
Y-160341D01*
X-446701Y-165396D02*
Y-160341D01*
X-403299Y-165396D02*
Y-160341D01*
X-456099Y-165396D02*
Y-160341D01*
X-161398Y433604D02*
Y438659D01*
X-214198Y433604D02*
Y438659D01*
X-170796Y433604D02*
Y438659D01*
X-223596Y433604D02*
Y438659D01*
D33*
X-407750Y-100500D02*
Y-74500D01*
X-368086Y84770D02*
Y270770D01*
X-487086Y84770D02*
Y270770D01*
X-368086D01*
X-487086Y84770D02*
X-368086D01*
X-501500Y198500D02*
Y238000D01*
X-604499D02*
X-501500D01*
X-604499Y198500D02*
Y238000D01*
X-19500Y392671D02*
Y432171D01*
X-122500D02*
X-19500D01*
X-122500Y392671D02*
Y432171D01*
X-264500Y392671D02*
Y432171D01*
X-367500D02*
X-264500D01*
X-367500Y392671D02*
Y432171D01*
X-265336Y519331D02*
X-267002Y520997D01*
X-270334D01*
X-272000Y519331D01*
Y512666D01*
X-270334Y511000D01*
X-267002D01*
X-265336Y512666D01*
X-262003Y511000D02*
X-258671D01*
X-260337D01*
Y520997D01*
X-262003Y519331D01*
X-191336Y518331D02*
X-193002Y519997D01*
X-196334D01*
X-198000Y518331D01*
Y511666D01*
X-196334Y510000D01*
X-193002D01*
X-191336Y511666D01*
X-181339Y510000D02*
X-188003D01*
X-181339Y516665D01*
Y518331D01*
X-183005Y519997D01*
X-186337D01*
X-188003Y518331D01*
X-93250Y279352D02*
Y289349D01*
X-88252D01*
X-86586Y287683D01*
Y284351D01*
X-88252Y282684D01*
X-93250D01*
X-83254Y279352D02*
X-79921D01*
X-81587D01*
Y289349D01*
X-83254Y287683D01*
X-362000Y78000D02*
Y87997D01*
X-357002D01*
X-355336Y86331D01*
Y82998D01*
X-357002Y81332D01*
X-362000D01*
X-345339Y78000D02*
X-352003D01*
X-345339Y84664D01*
Y86331D01*
X-347005Y87997D01*
X-350337D01*
X-352003Y86331D01*
X-309000Y110000D02*
Y119997D01*
X-304002D01*
X-302335Y118331D01*
Y114998D01*
X-304002Y113332D01*
X-309000D01*
X-299003Y118331D02*
X-297337Y119997D01*
X-294005D01*
X-292339Y118331D01*
Y116664D01*
X-294005Y114998D01*
X-295671D01*
X-294005D01*
X-292339Y113332D01*
Y111666D01*
X-294005Y110000D01*
X-297337D01*
X-299003Y111666D01*
X-315336Y445666D02*
Y452331D01*
X-317002Y453997D01*
X-320334D01*
X-322000Y452331D01*
Y445666D01*
X-320334Y444000D01*
X-317002D01*
X-318668Y447332D02*
X-315336Y444000D01*
X-317002D02*
X-315336Y445666D01*
X-312003Y444000D02*
X-308671D01*
X-310337D01*
Y453997D01*
X-312003Y452331D01*
X-72336Y445666D02*
Y452331D01*
X-74002Y453997D01*
X-77334D01*
X-79000Y452331D01*
Y445666D01*
X-77334Y444000D01*
X-74002D01*
X-75668Y447332D02*
X-72336Y444000D01*
X-74002D02*
X-72336Y445666D01*
X-62339Y444000D02*
X-69003D01*
X-62339Y450664D01*
Y452331D01*
X-64005Y453997D01*
X-67337D01*
X-69003Y452331D01*
X-599160Y298418D02*
Y305083D01*
X-600826Y306749D01*
X-604158D01*
X-605824Y305083D01*
Y298418D01*
X-604158Y296752D01*
X-600826D01*
X-602492Y300084D02*
X-599160Y296752D01*
X-600826D02*
X-599160Y298418D01*
X-595827Y305083D02*
X-594161Y306749D01*
X-590829D01*
X-589163Y305083D01*
Y303417D01*
X-590829Y301750D01*
X-592495D01*
X-590829D01*
X-589163Y300084D01*
Y298418D01*
X-590829Y296752D01*
X-594161D01*
X-595827Y298418D01*
X-448000Y442750D02*
X-457997D01*
Y447748D01*
X-456331Y449414D01*
X-452998D01*
X-451332Y447748D01*
Y442750D01*
Y446082D02*
X-448000Y449414D01*
Y452747D02*
Y456079D01*
Y454413D01*
X-457997D01*
X-456331Y452747D01*
X-412000Y440750D02*
X-421997D01*
Y445748D01*
X-420331Y447415D01*
X-416998D01*
X-415332Y445748D01*
Y440750D01*
Y444082D02*
X-412000Y447415D01*
Y457411D02*
Y450747D01*
X-418665Y457411D01*
X-420331D01*
X-421997Y455745D01*
Y452413D01*
X-420331Y450747D01*
X-375000Y440750D02*
X-384997D01*
Y445748D01*
X-383331Y447415D01*
X-379998D01*
X-378332Y445748D01*
Y440750D01*
Y444082D02*
X-375000Y447415D01*
Y455745D02*
X-384997D01*
X-379998Y450747D01*
Y457411D01*
X-89000Y598007D02*
Y608004D01*
X-84002D01*
X-82336Y606338D01*
Y603006D01*
X-84002Y601340D01*
X-89000D01*
X-85668D02*
X-82336Y598007D01*
X-72339Y608004D02*
X-79003D01*
Y603006D01*
X-75671Y604672D01*
X-74005D01*
X-72339Y603006D01*
Y599674D01*
X-74005Y598007D01*
X-77337D01*
X-79003Y599674D01*
X-89000Y571007D02*
Y581004D01*
X-84002D01*
X-82336Y579338D01*
Y576006D01*
X-84002Y574340D01*
X-89000D01*
X-85668D02*
X-82336Y571007D01*
X-72339Y581004D02*
X-75671Y579338D01*
X-79003Y576006D01*
Y572674D01*
X-77337Y571007D01*
X-74005D01*
X-72339Y572674D01*
Y574340D01*
X-74005Y576006D01*
X-79003D01*
X-89750Y540000D02*
Y549997D01*
X-84752D01*
X-83085Y548331D01*
Y544998D01*
X-84752Y543332D01*
X-89750D01*
X-86418D02*
X-83085Y540000D01*
X-79753Y548331D02*
X-78087Y549997D01*
X-74755D01*
X-73089Y548331D01*
Y546665D01*
X-74755Y544998D01*
X-73089Y543332D01*
Y541666D01*
X-74755Y540000D01*
X-78087D01*
X-79753Y541666D01*
Y543332D01*
X-78087Y544998D01*
X-79753Y546665D01*
Y548331D01*
X-78087Y544998D02*
X-74755D01*
X-574000Y-241500D02*
X-564003D01*
Y-246498D01*
X-565669Y-248164D01*
X-569002D01*
X-570668Y-246498D01*
Y-241500D01*
Y-244832D02*
X-574000Y-248164D01*
X-572334Y-251497D02*
X-574000Y-253163D01*
Y-256495D01*
X-572334Y-258161D01*
X-565669D01*
X-564003Y-256495D01*
Y-253163D01*
X-565669Y-251497D01*
X-567336D01*
X-569002Y-253163D01*
Y-258161D01*
X-551000Y-238958D02*
X-541003D01*
Y-243956D01*
X-542669Y-245622D01*
X-546002D01*
X-547668Y-243956D01*
Y-238958D01*
Y-242290D02*
X-551000Y-245622D01*
Y-248954D02*
Y-252286D01*
Y-250620D01*
X-541003D01*
X-542669Y-248954D01*
Y-257285D02*
X-541003Y-258951D01*
Y-262283D01*
X-542669Y-263949D01*
X-549334D01*
X-551000Y-262283D01*
Y-258951D01*
X-549334Y-257285D01*
X-542669D01*
X-530000Y-239207D02*
X-520003D01*
Y-244206D01*
X-521669Y-245872D01*
X-525002D01*
X-526668Y-244206D01*
Y-239207D01*
Y-242540D02*
X-530000Y-245872D01*
Y-249204D02*
Y-252537D01*
Y-250870D01*
X-520003D01*
X-521669Y-249204D01*
X-530000Y-264199D02*
Y-257535D01*
X-523335Y-264199D01*
X-521669D01*
X-520003Y-262533D01*
Y-259201D01*
X-521669Y-257535D01*
X-242497Y477997D02*
Y469666D01*
X-240831Y468000D01*
X-237499D01*
X-235833Y469666D01*
Y477997D01*
X-232500Y468000D02*
X-229168D01*
X-230834D01*
Y477997D01*
X-232500Y476331D01*
X-355592Y-102007D02*
Y-110338D01*
X-353926Y-112004D01*
X-350594D01*
X-348927Y-110338D01*
Y-102007D01*
X-338931Y-112004D02*
X-345595D01*
X-338931Y-105339D01*
Y-103673D01*
X-340597Y-102007D01*
X-343929D01*
X-345595Y-103673D01*
X-460000Y303954D02*
Y295624D01*
X-458334Y293958D01*
X-455002D01*
X-453336Y295624D01*
Y303954D01*
X-450003Y302288D02*
X-448337Y303954D01*
X-445005D01*
X-443339Y302288D01*
Y300622D01*
X-445005Y298956D01*
X-446671D01*
X-445005D01*
X-443339Y297290D01*
Y295624D01*
X-445005Y293958D01*
X-448337D01*
X-450003Y295624D01*
X-485999Y288949D02*
Y280618D01*
X-484333Y278952D01*
X-481001D01*
X-479335Y280618D01*
Y288949D01*
X-471004Y278952D02*
Y288949D01*
X-476003Y283950D01*
X-469338D01*
X-315153Y295150D02*
X-323484D01*
X-325150Y293484D01*
Y290152D01*
X-323484Y288486D01*
X-315153D01*
Y278489D02*
Y285153D01*
X-320152D01*
X-318486Y281821D01*
Y280155D01*
X-320152Y278489D01*
X-323484D01*
X-325150Y280155D01*
Y283487D01*
X-323484Y285153D01*
X-220000Y633997D02*
Y625666D01*
X-218334Y624000D01*
X-215002D01*
X-213335Y625666D01*
Y633997D01*
X-203339D02*
X-206671Y632331D01*
X-210003Y628998D01*
Y625666D01*
X-208337Y624000D01*
X-205005D01*
X-203339Y625666D01*
Y627332D01*
X-205005Y628998D01*
X-210003D01*
X-585841Y-60318D02*
Y-68648D01*
X-584175Y-70314D01*
X-580843D01*
X-579177Y-68648D01*
Y-60318D01*
X-575845Y-70314D02*
X-572512D01*
X-574179D01*
Y-60318D01*
X-575845Y-61984D01*
X-567514D02*
X-565848Y-60318D01*
X-562516D01*
X-560850Y-61984D01*
Y-68648D01*
X-562516Y-70314D01*
X-565848D01*
X-567514Y-68648D01*
Y-61984D01*
X-475558Y-98230D02*
Y-106561D01*
X-473891Y-108227D01*
X-470559D01*
X-468893Y-106561D01*
Y-98230D01*
X-465561Y-108227D02*
X-462229D01*
X-463895D01*
Y-98230D01*
X-465561Y-99896D01*
X-457230D02*
X-455564Y-98230D01*
X-452232D01*
X-450566Y-99896D01*
Y-101562D01*
X-452232Y-103229D01*
X-453898D01*
X-452232D01*
X-450566Y-104895D01*
Y-106561D01*
X-452232Y-108227D01*
X-455564D01*
X-457230Y-106561D01*
X-530331Y317665D02*
X-531997Y315998D01*
Y312666D01*
X-530331Y311000D01*
X-523666D01*
X-522000Y312666D01*
Y315998D01*
X-523666Y317665D01*
X-531997Y320997D02*
Y327661D01*
X-530331D01*
X-523666Y320997D01*
X-522000D01*
X-569331Y318664D02*
X-570997Y316998D01*
Y313666D01*
X-569331Y312000D01*
X-562666D01*
X-561000Y313666D01*
Y316998D01*
X-562666Y318664D01*
X-569331Y321997D02*
X-570997Y323663D01*
Y326995D01*
X-569331Y328661D01*
X-567664D01*
X-565998Y326995D01*
X-564332Y328661D01*
X-562666D01*
X-561000Y326995D01*
Y323663D01*
X-562666Y321997D01*
X-564332D01*
X-565998Y323663D01*
X-567664Y321997D01*
X-569331D01*
X-565998Y323663D02*
Y326995D01*
X-266975Y155401D02*
X-268642Y157067D01*
X-271974D01*
X-273640Y155401D01*
Y148736D01*
X-271974Y147070D01*
X-268642D01*
X-266975Y148736D01*
Y152068D01*
X-270308D01*
X-263643Y147070D02*
Y157067D01*
X-256979Y147070D01*
Y157067D01*
X-253646D02*
Y147070D01*
X-248648D01*
X-246982Y148736D01*
Y155401D01*
X-248648Y157067D01*
X-253646D01*
X-273640Y182467D02*
Y175802D01*
X-270308Y172470D01*
X-266975Y175802D01*
Y182467D01*
X-256979Y180801D02*
X-258645Y182467D01*
X-261977D01*
X-263643Y180801D01*
Y174136D01*
X-261977Y172470D01*
X-258645D01*
X-256979Y174136D01*
X-246982Y180801D02*
X-248648Y182467D01*
X-251980D01*
X-253646Y180801D01*
Y174136D01*
X-251980Y172470D01*
X-248648D01*
X-246982Y174136D01*
X-266975Y231601D02*
X-268642Y233267D01*
X-271974D01*
X-273640Y231601D01*
Y229935D01*
X-271974Y228268D01*
X-268642D01*
X-266975Y226602D01*
Y224936D01*
X-268642Y223270D01*
X-271974D01*
X-273640Y224936D01*
X-263643Y233267D02*
Y223270D01*
X-258645D01*
X-256979Y224936D01*
Y231601D01*
X-258645Y233267D01*
X-263643D01*
X-253646Y223270D02*
Y229935D01*
X-250314Y233267D01*
X-246982Y229935D01*
Y223270D01*
Y228268D01*
X-253646D01*
X-266975Y206201D02*
X-268642Y207867D01*
X-271974D01*
X-273640Y206201D01*
Y204534D01*
X-271974Y202868D01*
X-268642D01*
X-266975Y201202D01*
Y199536D01*
X-268642Y197870D01*
X-271974D01*
X-273640Y199536D01*
X-256979Y206201D02*
X-258645Y207867D01*
X-261977D01*
X-263643Y206201D01*
Y199536D01*
X-261977Y197870D01*
X-258645D01*
X-256979Y199536D01*
X-253646Y207867D02*
Y197870D01*
X-246982D01*
X-273640Y258667D02*
X-270308D01*
X-271974D01*
Y248670D01*
X-273640D01*
X-270308D01*
X-265309D02*
Y258667D01*
X-258645Y248670D01*
Y258667D01*
X-255313D02*
X-248648D01*
X-251980D01*
Y248670D01*
X-245316D02*
X-241984D01*
X-243650D01*
Y258667D01*
X-245316Y257001D01*
X-273640Y284067D02*
X-270308D01*
X-271974D01*
Y274070D01*
X-273640D01*
X-270308D01*
X-265309D02*
Y284067D01*
X-258645Y274070D01*
Y284067D01*
X-255313D02*
X-248648D01*
X-251980D01*
Y274070D01*
X-238651D02*
X-245316D01*
X-238651Y280735D01*
Y282401D01*
X-240317Y284067D01*
X-243650D01*
X-245316Y282401D01*
D34*
X-13600Y-221754D02*
Y-196354D01*
Y-221754D02*
X-900D01*
Y-297954D02*
Y-221754D01*
X-356500Y-297954D02*
X-900D01*
X-356500D02*
Y-120154D01*
X-900D01*
Y-196354D02*
Y-120154D01*
X-13600Y-196354D02*
X-900D01*
M02*
