M48
;Layer_Color=9474304
;FILE_FORMAT=4:4
METRIC,LZ
;TYPE=PLATED
T1F00S00C0.4000
T2F00S00C0.5000
T3F00S00C1.0500
T4F00S00C1.2700
T5F00S00C3.5000
%
T01
X01434Y0102489
X01454Y01033526
X01479Y01026
X01614424Y0102489
T02
X0136057Y0106943
X01533Y00993
T03
X01397Y01133
Y01163
X01427
Y01133
X01515Y01175
X01545
X01636Y01177
X01666
Y01207
X01636
X01545Y01205
X01515
T04
X01367Y01173
X01457
X01606Y01217
X01696
X01575Y01215
X01485
T05
X01381Y00993
X01742Y00986
Y01241
X01381Y0124
M30
