G04 Layer_Color=16711935*
%FSLAX44Y44*%
%MOMM*%
G71*
G01*
G75*
%ADD48C,0.2000*%
%ADD49C,1.8000*%
%ADD50C,4.7000*%
%ADD51C,2.0796*%
%ADD52C,3.5020*%
%ADD53R,2.0796X2.0796*%
%ADD54C,1.6478*%
%ADD55C,0.8000*%
D48*
X-231000Y-606000D02*
D03*
X-141000D02*
D03*
X-406000Y-44000D02*
D03*
Y46000D02*
D03*
X-36000Y171000D02*
D03*
Y261000D02*
D03*
X-245000Y-73000D02*
D03*
Y107000D02*
D03*
D49*
X-171000Y-586000D02*
D03*
X-201000D02*
D03*
X-426000Y16000D02*
D03*
Y-14000D02*
D03*
X-56000Y231000D02*
D03*
Y201000D02*
D03*
X-230000Y62000D02*
D03*
X-200000D02*
D03*
Y32000D02*
D03*
X-230000D02*
D03*
Y-28000D02*
D03*
X-200000D02*
D03*
Y2000D02*
D03*
X-230000D02*
D03*
D50*
X-82000Y656000D02*
D03*
X-83000Y-652000D02*
D03*
X-644000Y-93000D02*
D03*
Y97000D02*
D03*
D51*
X-415850Y-125149D02*
D03*
Y-150549D02*
D03*
Y-175949D02*
D03*
Y-201350D02*
D03*
Y-226749D02*
D03*
Y-252150D02*
D03*
X-463000Y-416400D02*
D03*
Y-391000D02*
D03*
Y-365600D02*
D03*
Y-467200D02*
D03*
X-437600D02*
D03*
X-412200D02*
D03*
X-463000Y-314800D02*
D03*
X-437600D02*
D03*
X-412200D02*
D03*
X-290150Y152150D02*
D03*
Y177550D02*
D03*
Y202950D02*
D03*
Y228350D02*
D03*
Y253750D02*
D03*
Y279150D02*
D03*
X-387200Y203600D02*
D03*
Y178200D02*
D03*
Y152800D02*
D03*
Y254400D02*
D03*
X-412600D02*
D03*
X-438000D02*
D03*
X-387200Y102000D02*
D03*
X-412600D02*
D03*
X-438000D02*
D03*
D52*
X-555550Y-239450D02*
D03*
Y-137850D02*
D03*
X-150450Y266450D02*
D03*
Y164850D02*
D03*
D53*
X-386800Y-467200D02*
D03*
Y-314800D02*
D03*
X-463400Y254400D02*
D03*
Y102000D02*
D03*
D54*
X-13600Y-132854D02*
D03*
X-39000D02*
D03*
X-64400D02*
D03*
X-89800D02*
D03*
X-115200D02*
D03*
X-140600D02*
D03*
X-166000D02*
D03*
X-191400D02*
D03*
X-216800D02*
D03*
X-242200D02*
D03*
X-267600D02*
D03*
X-293000D02*
D03*
X-318400D02*
D03*
X-343800D02*
D03*
Y-158254D02*
D03*
Y-183654D02*
D03*
Y-209054D02*
D03*
Y-234454D02*
D03*
Y-259854D02*
D03*
Y-285254D02*
D03*
X-318400D02*
D03*
X-293000D02*
D03*
X-267600D02*
D03*
X-242200D02*
D03*
X-216800D02*
D03*
X-191400D02*
D03*
X-166000D02*
D03*
X-140600D02*
D03*
X-115200D02*
D03*
X-89800D02*
D03*
X-64400D02*
D03*
X-39000D02*
D03*
X-13600D02*
D03*
X-39000Y-259854D02*
D03*
X-89800D02*
D03*
X-115200D02*
D03*
X-140600D02*
D03*
D55*
X-255000Y-316000D02*
D03*
X-325000Y-410000D02*
D03*
X-168000Y-31000D02*
D03*
X-101000Y561000D02*
D03*
X-106418Y173492D02*
D03*
X-176522Y103388D02*
D03*
X-298950Y-71364D02*
D03*
X-69443Y-581287D02*
D03*
X-479798Y-103876D02*
D03*
X-350512Y-309108D02*
D03*
X-245102Y183398D02*
D03*
X-119626Y190764D02*
D03*
X-51808Y-247262D02*
D03*
X-174490Y-394198D02*
D03*
X-74922Y-353050D02*
D03*
X-309110Y-224272D02*
D03*
X-278630Y-228844D02*
D03*
X-314698Y504708D02*
D03*
X-222242Y535950D02*
D03*
X-387200Y220848D02*
D03*
X-280000Y-497576D02*
D03*
X-144264Y302270D02*
D03*
X-176522Y462544D02*
D03*
M02*
