G04 Layer_Color=8388736*
%FSLAX44Y44*%
%MOMM*%
G71*
G01*
G75*
%ADD27C,1.2000*%
%ADD28R,0.7080X1.4192*%
%ADD29R,1.1500X1.0000*%
%ADD30R,1.1144X1.0128*%
%ADD31R,10.6000X7.6000*%
%ADD32R,1.6000X4.3500*%
%ADD33R,6.8548X7.9216*%
%ADD34R,1.1398X1.9018*%
%ADD35R,1.0128X1.1144*%
%ADD36C,0.2000*%
%ADD37C,1.8000*%
%ADD38C,4.7000*%
%ADD39C,0.8000*%
D27*
X1411500Y1088000D02*
D03*
X1362000Y1046500D02*
D03*
X1411500Y1047000D02*
D03*
X1362000Y1089000D02*
D03*
D28*
X1376500Y1069430D02*
D03*
X1386000D02*
D03*
X1395500D02*
D03*
Y1046570D02*
D03*
X1386000D02*
D03*
X1376500D02*
D03*
D29*
X1434000Y1060750D02*
D03*
Y1047250D02*
D03*
X1467000Y1048500D02*
D03*
Y1062000D02*
D03*
X1495000Y1014500D02*
D03*
Y1001000D02*
D03*
X1454000D02*
D03*
Y1014500D02*
D03*
D30*
X1503000Y1049000D02*
D03*
Y1061954D02*
D03*
D31*
X1580040Y1100000D02*
D03*
D32*
X1605439Y991000D02*
D03*
X1554639D02*
D03*
D33*
X1696000Y1092000D02*
D03*
D34*
X1718500Y1030913D02*
D03*
X1673500D02*
D03*
D35*
X1664217Y993000D02*
D03*
X1651263D02*
D03*
X1702477Y994000D02*
D03*
X1689523D02*
D03*
D36*
X1575000Y1215000D02*
D03*
X1485000D02*
D03*
X1696000Y1217000D02*
D03*
X1606000D02*
D03*
X1457000Y1173000D02*
D03*
X1367000D02*
D03*
D37*
X1515000Y1175000D02*
D03*
X1545000Y1205000D02*
D03*
X1515000D02*
D03*
X1545000Y1175000D02*
D03*
X1636000Y1177000D02*
D03*
X1666000Y1207000D02*
D03*
X1636000D02*
D03*
X1666000Y1177000D02*
D03*
X1397000Y1133000D02*
D03*
X1427000Y1163000D02*
D03*
X1397000D02*
D03*
X1427000Y1133000D02*
D03*
D38*
X1742000Y986000D02*
D03*
X1381000Y993000D02*
D03*
X1742000Y1241000D02*
D03*
X1381000Y1240000D02*
D03*
D39*
X1614424Y1024890D02*
D03*
X1434000D02*
D03*
X1454000Y1033526D02*
D03*
X1479000Y1026000D02*
D03*
M02*
