G04 Layer_Color=8388736*
%FSLAX44Y44*%
%MOMM*%
G71*
G01*
G75*
%ADD35R,2.8700X2.7400*%
%ADD36R,0.9620X1.4700*%
%ADD37R,1.1906X4.1116*%
%ADD38R,10.6394X11.6554*%
%ADD39R,1.9800X2.1000*%
%ADD40R,2.1000X1.9800*%
%ADD41R,1.3600X2.7500*%
%ADD42R,1.1500X1.0000*%
%ADD43R,1.0000X1.1500*%
%ADD44R,1.6000X4.3500*%
%ADD45R,10.6000X7.6000*%
%ADD46R,1.1144X1.0128*%
%ADD47R,1.0128X1.1144*%
%ADD48C,0.2000*%
%ADD49C,1.8000*%
%ADD50C,4.7000*%
%ADD51C,2.0796*%
%ADD52C,3.5020*%
%ADD53R,2.0796X2.0796*%
%ADD54C,1.6478*%
D35*
X-425000Y-87000D02*
D03*
D36*
X-448500D02*
D03*
D37*
X-398600Y-137227D02*
D03*
X-451400D02*
D03*
X-166097Y461773D02*
D03*
X-218897D02*
D03*
D38*
X-425000Y-226000D02*
D03*
X-192497Y373000D02*
D03*
D39*
X-544632Y-188000D02*
D03*
X-519231Y-88000D02*
D03*
X-570032D02*
D03*
X-519231Y-188000D02*
D03*
X-544632Y-88000D02*
D03*
X-570032Y-188000D02*
D03*
X-423000Y320957D02*
D03*
X-397600Y420958D02*
D03*
X-448400D02*
D03*
X-397600Y320957D02*
D03*
X-423000Y420958D02*
D03*
X-448400Y320957D02*
D03*
D40*
X-240000Y575008D02*
D03*
X-140000Y549608D02*
D03*
Y600408D02*
D03*
X-240000Y549608D02*
D03*
X-140000Y575008D02*
D03*
X-240000Y600408D02*
D03*
D41*
X-318400Y-194804D02*
D03*
Y-248204D02*
D03*
X-293000Y-194804D02*
D03*
X-267600D02*
D03*
X-242200D02*
D03*
X-216800D02*
D03*
X-293000Y-248204D02*
D03*
X-267600D02*
D03*
X-242200D02*
D03*
X-216800D02*
D03*
X-191400D02*
D03*
X-166000D02*
D03*
X-191400Y-194804D02*
D03*
X-166000D02*
D03*
D42*
X-524000Y-214207D02*
D03*
Y-227708D02*
D03*
X-547000Y-213958D02*
D03*
Y-227458D02*
D03*
X-570000Y-215500D02*
D03*
Y-229000D02*
D03*
X-382000Y480750D02*
D03*
Y467250D02*
D03*
X-419000Y480750D02*
D03*
Y467250D02*
D03*
X-454000Y480750D02*
D03*
Y467250D02*
D03*
D43*
X-114750Y545000D02*
D03*
X-101250D02*
D03*
X-100250Y576007D02*
D03*
X-113750D02*
D03*
X-101250Y603008D02*
D03*
X-114750D02*
D03*
D44*
X-527600Y266500D02*
D03*
X-578400D02*
D03*
X-45600Y460671D02*
D03*
X-96400D02*
D03*
X-290600D02*
D03*
X-341400D02*
D03*
D45*
X-553000Y157500D02*
D03*
X-71000Y351671D02*
D03*
X-316000D02*
D03*
D46*
X-548000Y314046D02*
D03*
Y327000D02*
D03*
X-507000Y313523D02*
D03*
Y326477D02*
D03*
D47*
X-167477Y514000D02*
D03*
X-154523D02*
D03*
X-239477D02*
D03*
X-226523D02*
D03*
D48*
X-403000Y45000D02*
D03*
X-493000D02*
D03*
X-312000Y-28000D02*
D03*
Y62000D02*
D03*
X-36000Y171000D02*
D03*
Y261000D02*
D03*
X-245000Y-73000D02*
D03*
Y107000D02*
D03*
D49*
X-463000Y25000D02*
D03*
X-433000D02*
D03*
X-332000Y32000D02*
D03*
Y2000D02*
D03*
X-56000Y231000D02*
D03*
Y201000D02*
D03*
X-230000Y62000D02*
D03*
X-200000D02*
D03*
Y32000D02*
D03*
X-230000D02*
D03*
Y-28000D02*
D03*
X-200000D02*
D03*
Y2000D02*
D03*
X-230000D02*
D03*
D50*
X-82000Y656000D02*
D03*
X-644000Y-93000D02*
D03*
Y97000D02*
D03*
D51*
X-290150Y152150D02*
D03*
Y177550D02*
D03*
Y202950D02*
D03*
Y228350D02*
D03*
Y253750D02*
D03*
Y279150D02*
D03*
X-387200Y203600D02*
D03*
Y178200D02*
D03*
Y152800D02*
D03*
Y254400D02*
D03*
X-412600D02*
D03*
X-438000D02*
D03*
X-387200Y102000D02*
D03*
X-412600D02*
D03*
X-438000D02*
D03*
D52*
X-150450Y266450D02*
D03*
Y164850D02*
D03*
D53*
X-463400Y254400D02*
D03*
Y102000D02*
D03*
D54*
X-13600Y-132854D02*
D03*
X-39000D02*
D03*
X-64400D02*
D03*
X-89800D02*
D03*
X-115200D02*
D03*
X-140600D02*
D03*
X-166000D02*
D03*
X-191400D02*
D03*
X-216800D02*
D03*
X-242200D02*
D03*
X-267600D02*
D03*
X-293000D02*
D03*
X-318400D02*
D03*
X-343800D02*
D03*
Y-158254D02*
D03*
Y-183654D02*
D03*
Y-209054D02*
D03*
Y-234454D02*
D03*
Y-259854D02*
D03*
Y-285254D02*
D03*
X-318400D02*
D03*
X-293000D02*
D03*
X-267600D02*
D03*
X-242200D02*
D03*
X-216800D02*
D03*
X-191400D02*
D03*
X-166000D02*
D03*
X-140600D02*
D03*
X-115200D02*
D03*
X-89800D02*
D03*
X-64400D02*
D03*
X-39000D02*
D03*
X-13600D02*
D03*
X-39000Y-259854D02*
D03*
X-89800D02*
D03*
X-115200D02*
D03*
X-140600D02*
D03*
M02*
