G04 Layer_Physical_Order=1*
G04 Layer_Color=255*
%FSLAX44Y44*%
%MOMM*%
G71*
G01*
G75*
%ADD10R,2.6700X2.5400*%
%ADD11R,0.7620X1.2700*%
%ADD12R,0.9906X3.9116*%
%ADD13R,10.4394X11.4554*%
%ADD14R,1.7800X1.9000*%
%ADD15R,1.9000X1.7800*%
%ADD16R,1.1600X2.5500*%
%ADD17R,0.9500X0.8000*%
%ADD18R,0.8000X0.9500*%
%ADD19R,1.4000X4.1500*%
%ADD20R,10.4000X7.4000*%
%ADD21R,0.9144X0.8128*%
%ADD22R,0.8128X0.9144*%
%ADD23C,0.2500*%
%ADD24C,1.6000*%
%ADD25C,4.5000*%
%ADD26C,1.8796*%
%ADD27C,3.3020*%
%ADD28R,1.8796X1.8796*%
%ADD29C,1.4478*%
%ADD30C,0.6000*%
D10*
X-290000Y-585000D02*
D03*
D11*
X-266500D02*
D03*
D12*
X-43042Y-346000D02*
D03*
X-95843D02*
D03*
X-166097Y461773D02*
D03*
X-218897D02*
D03*
D13*
X-69443Y-434773D02*
D03*
X-192497Y373000D02*
D03*
D14*
X-300632Y-445000D02*
D03*
X-275231Y-345000D02*
D03*
X-326031D02*
D03*
X-275231Y-445000D02*
D03*
X-300632Y-345000D02*
D03*
X-326031Y-445000D02*
D03*
X-423000Y320957D02*
D03*
X-397600Y420958D02*
D03*
X-448400D02*
D03*
X-397600Y320957D02*
D03*
X-423000Y420958D02*
D03*
X-448400Y320957D02*
D03*
D15*
X-240000Y575008D02*
D03*
X-140000Y549608D02*
D03*
Y600408D02*
D03*
X-240000Y549608D02*
D03*
X-140000Y575008D02*
D03*
X-240000Y600408D02*
D03*
D16*
X-318400Y-194804D02*
D03*
Y-248204D02*
D03*
X-293000Y-194804D02*
D03*
X-267600D02*
D03*
X-242200D02*
D03*
X-216800D02*
D03*
X-293000Y-248204D02*
D03*
X-267600D02*
D03*
X-242200D02*
D03*
X-216800D02*
D03*
X-191400D02*
D03*
X-166000D02*
D03*
X-191400Y-194804D02*
D03*
X-166000D02*
D03*
D17*
X-280000Y-471208D02*
D03*
Y-484708D02*
D03*
X-303000Y-470958D02*
D03*
Y-484458D02*
D03*
X-326000Y-472500D02*
D03*
Y-486000D02*
D03*
X-382000Y480750D02*
D03*
Y467250D02*
D03*
X-419000Y480750D02*
D03*
Y467250D02*
D03*
X-454000Y480750D02*
D03*
Y467250D02*
D03*
D18*
X-114750Y545000D02*
D03*
X-101250D02*
D03*
X-100250Y576007D02*
D03*
X-113750D02*
D03*
X-101250Y603008D02*
D03*
X-114750D02*
D03*
D19*
X-166600Y-367000D02*
D03*
X-217400D02*
D03*
X-45600Y460671D02*
D03*
X-96400D02*
D03*
X-290600D02*
D03*
X-341400D02*
D03*
D20*
X-192000Y-476000D02*
D03*
X-71000Y351671D02*
D03*
X-316000D02*
D03*
D21*
X-196000Y-330954D02*
D03*
Y-318000D02*
D03*
X-155000Y-331477D02*
D03*
Y-318523D02*
D03*
D22*
X-167477Y514000D02*
D03*
X-154523D02*
D03*
X-239477D02*
D03*
X-226523D02*
D03*
D23*
X-100500Y540395D02*
Y548007D01*
X-13600Y-298600D02*
Y-285254D01*
X-48602Y-97851D02*
X-13600Y-132854D01*
X-127754Y-69500D02*
X-64400Y-132854D01*
X-196000Y-318000D02*
X-176014D01*
X-196000Y-372608D02*
Y-330954D01*
X-175491Y-318523D02*
X-160520D01*
X-176014Y-318000D02*
X-175491Y-318523D01*
X-268005Y-302995D02*
X-255000Y-316000D01*
X-339682Y-330750D02*
X-311927Y-302995D01*
X-268005D01*
X-360000Y-299620D02*
X-350512Y-309108D01*
X-360000Y-299620D02*
Y-81360D01*
X-437600Y-467200D02*
Y-400260D01*
X-412200Y-467200D02*
Y-435312D01*
X-324550Y-410000D02*
X-300632Y-433918D01*
X-325000Y-410000D02*
X-324550D01*
X-275231Y-392262D02*
Y-345000D01*
X-326031Y-458937D02*
Y-445000D01*
X-300632Y-391469D02*
Y-345000D01*
X-339682Y-481844D02*
Y-330750D01*
X-345682Y-498088D02*
Y-315284D01*
X-339682Y-481844D02*
X-335526Y-486000D01*
X-345682Y-498088D02*
X-332986Y-510784D01*
X-196000Y-401628D02*
X-192000Y-405628D01*
Y-476000D02*
Y-405628D01*
X-17000Y-302000D02*
X-13600Y-298600D01*
X-41644Y-302000D02*
X-17000D01*
X-51046Y-292598D02*
X-41644Y-302000D01*
X-176000Y-45906D02*
X-168000Y-37906D01*
X-176000Y-117454D02*
Y-45906D01*
X-191400Y-132854D02*
X-176000Y-117454D01*
X-168000Y-37906D02*
Y-31000D01*
X-100500Y506268D02*
Y540395D01*
X-109895Y531000D02*
X-100500Y540395D01*
X-128008Y549608D02*
X-123400Y545000D01*
X-114750D01*
X-217292Y531000D02*
X-109895D01*
X-222242Y535950D02*
X-217292Y531000D01*
X-101000Y561000D02*
Y575257D01*
X-100250Y576007D01*
X-274645Y-471208D02*
X-264902D01*
X-43042Y-367145D02*
Y-346000D01*
X-110005Y-370322D02*
X-103370D01*
X-46220D01*
X-166097Y462544D02*
Y492081D01*
Y461773D02*
Y462544D01*
X-477766Y-88633D02*
X-430014Y-136385D01*
X-192497Y501527D02*
X-192270Y501300D01*
X-204970Y514000D02*
X-192497Y501527D01*
X-341172Y575008D02*
X-254500D01*
X-366514Y-372354D02*
X-351682Y-357522D01*
X-196000Y-401628D02*
Y-372608D01*
X-80893Y351671D02*
X-71000D01*
X-106418Y326146D02*
X-80893Y351671D01*
X-106418Y173492D02*
Y326146D01*
X-176522Y102245D02*
Y103388D01*
X-181221Y97546D02*
X-176522Y102245D01*
X-194454Y97546D02*
X-181221D01*
X-230000Y62000D02*
X-194454Y97546D01*
X-280000Y-471208D02*
X-274645D01*
X-270248Y-475605D01*
Y-501005D02*
Y-475605D01*
X-308348Y-539105D02*
X-270248Y-501005D01*
X-308348Y-602478D02*
Y-539105D01*
Y-602478D02*
X-266438D01*
X-257548Y-593588D01*
X-212844D01*
X-207510Y-598922D01*
X-163695D01*
X-135120Y-570347D01*
Y-436346D01*
X-166600Y-404866D02*
X-135120Y-436346D01*
X-166600Y-404866D02*
Y-367000D01*
X-316000Y351671D02*
X-262882D01*
X-256532Y345321D01*
Y-20818D02*
Y345321D01*
Y-20818D02*
X-236600Y-40750D01*
X-223632D01*
X-217162Y-34280D01*
Y-10838D01*
X-230000Y2000D02*
X-217162Y-10838D01*
X-242816Y19184D02*
X-230000Y32000D01*
X-242816Y-15184D02*
Y19184D01*
Y-15184D02*
X-230000Y-28000D01*
X-303000Y-470958D02*
X-297374D01*
X-289552Y-478780D01*
Y-491480D02*
Y-478780D01*
X-308856Y-510784D02*
X-289552Y-491480D01*
X-332986Y-510784D02*
X-308856D01*
X-345682Y-315284D02*
X-330446Y-300048D01*
Y-102860D01*
X-298950Y-71364D01*
X-357116Y110584D02*
X-290150Y177550D01*
X-357116Y36078D02*
Y110584D01*
X-430014Y-36820D02*
X-357116Y36078D01*
X-430014Y-136385D02*
Y-36820D01*
Y-136385D02*
X-415850Y-150549D01*
X-477766Y189234D02*
X-412600Y254400D01*
X-477766Y-88633D02*
Y189234D01*
X-100500Y506268D02*
X-96400Y460671D01*
X-212844Y49156D02*
X-200000Y62000D01*
X-212844Y14844D02*
Y49156D01*
Y14844D02*
X-200000Y2000D01*
X-69443Y-581287D02*
Y-434773D01*
X-300632Y-445000D02*
Y-433918D01*
X-423000Y320957D02*
Y358820D01*
X-468050Y403870D02*
X-423000Y358820D01*
X-468050Y403870D02*
Y435025D01*
X-438396Y464680D01*
Y477784D01*
X-341172Y575008D01*
X-423000Y290200D02*
Y320957D01*
Y290200D02*
X-387200Y254400D01*
X-290000Y-585000D02*
Y-539788D01*
X-248912Y-498700D01*
Y-434076D01*
X-217400Y-402564D01*
Y-367000D01*
X-448400Y320957D02*
Y374569D01*
X-474050Y400219D02*
X-448400Y374569D01*
X-474050Y400219D02*
Y466386D01*
X-459687Y480750D01*
X-454000D01*
X-101250Y603008D02*
X-87624D01*
X-75684Y591068D01*
Y453400D02*
Y591068D01*
Y453400D02*
X-57396Y435112D01*
X-33774D01*
Y513090D01*
X-58412Y537728D02*
X-33774Y513090D01*
X-58412Y537728D02*
Y609192D01*
X-77970Y628750D02*
X-58412Y609192D01*
X-231020Y628750D02*
X-77970D01*
X-240000Y619770D02*
X-231020Y628750D01*
X-240000Y600408D02*
Y619770D01*
X-454000Y467250D02*
X-447787D01*
X-444492Y470545D01*
Y487055D01*
X-449445Y492008D02*
X-444492Y487055D01*
X-459224Y492008D02*
X-449445D01*
X-483862Y467370D02*
X-459224Y492008D01*
X-483862Y-99812D02*
Y467370D01*
Y-99812D02*
X-479798Y-103876D01*
X-366514Y-389626D02*
Y-372354D01*
X-351682Y-357522D02*
Y-310278D01*
X-350512Y-309108D01*
X-290150Y228350D02*
X-275836Y214036D01*
Y2804D02*
Y214036D01*
X-360000Y-81360D02*
X-275836Y2804D01*
X-412200Y-435312D02*
X-366514Y-389626D01*
X-245102Y183398D02*
X-146804Y85100D01*
Y-89906D02*
Y85100D01*
Y-89906D02*
X-127246Y-109464D01*
Y-170678D02*
Y-109464D01*
Y-170678D02*
X-115054Y-182870D01*
Y-224780D02*
Y-182870D01*
Y-224780D02*
X-103116Y-236718D01*
Y-273170D02*
Y-236718D01*
X-115200Y-285254D02*
X-103116Y-273170D01*
X-119626Y-61204D02*
Y190764D01*
Y-61204D02*
X-61460Y-119370D01*
X-58920D01*
X-51808Y-126482D01*
Y-247262D02*
Y-126482D01*
X-196000Y-372608D02*
X-174490Y-394198D01*
X-95843Y-353050D02*
X-74922D01*
X-95843D02*
Y-346000D01*
X-318400Y-233562D02*
X-309110Y-224272D01*
X-318400Y-248204D02*
Y-233562D01*
X-287539Y-228844D02*
X-278630D01*
X-293000Y-234305D02*
X-287539Y-228844D01*
X-293000Y-248204D02*
Y-234305D01*
X-226523Y514000D02*
Y519657D01*
X-230370Y523504D02*
X-226523Y519657D01*
X-247134Y523504D02*
X-230370D01*
X-254500Y530870D02*
X-247134Y523504D01*
X-254500Y530870D02*
Y575008D01*
X-240000D01*
X-290600Y460671D02*
Y494080D01*
X-319546Y523027D02*
X-290600Y494080D01*
X-339805Y523027D02*
X-319546D01*
X-382000Y480832D02*
X-339805Y523027D01*
X-382000Y480750D02*
Y480832D01*
X-341400Y460671D02*
Y495278D01*
X-331970Y504708D01*
X-314698D01*
X-438904Y-1096D02*
X-426000Y-14000D01*
X-438904Y-1096D02*
Y48270D01*
X-402515Y84659D01*
X-381113D01*
X-373051Y92720D01*
Y261563D01*
X-379976Y268488D02*
X-373051Y261563D01*
X-379976Y268488D02*
Y345704D01*
X-440936Y406664D02*
X-379976Y345704D01*
X-462051Y406664D02*
X-440936D01*
X-462051D02*
Y432539D01*
X-428882Y465708D01*
Y477930D01*
X-426062Y480750D01*
X-419000D01*
X-114750Y594370D02*
Y603008D01*
Y594370D02*
X-109924Y589544D01*
X-97217D01*
X-84574Y576901D01*
Y434350D02*
Y576901D01*
X-127754Y391170D02*
X-84574Y434350D01*
X-127754Y-69500D02*
Y391170D01*
X-45600Y460671D02*
Y511454D01*
X-67048Y532902D02*
X-45600Y511454D01*
X-67048Y532902D02*
Y592846D01*
X-96952Y622750D02*
X-67048Y592846D01*
X-144078Y622750D02*
X-96952D01*
X-154424Y612404D02*
X-144078Y622750D01*
X-154424Y553037D02*
Y612404D01*
Y553037D02*
X-150995Y549608D01*
X-140000D01*
X-426000Y16000D02*
X-392434D01*
X-363945Y44489D01*
Y271442D01*
X-372864Y280361D02*
X-363945Y271442D01*
X-372864Y280361D02*
Y444764D01*
X-382000Y453900D02*
X-372864Y444764D01*
X-382000Y453900D02*
Y467250D01*
X-387200Y220848D02*
Y254400D01*
X-275231Y-392262D02*
X-255581Y-411913D01*
Y-461886D02*
Y-411913D01*
X-264902Y-471208D02*
X-255581Y-461886D01*
X-312666Y-484458D02*
X-303000D01*
X-312666D02*
Y-462905D01*
X-309011Y-459250D01*
X-261581D01*
Y-430520D01*
X-300632Y-391469D02*
X-261581Y-430520D01*
X-335526Y-486000D02*
X-326000D01*
X-95787Y191213D02*
X-56000Y231000D01*
X-95787Y136048D02*
Y191213D01*
X-106164Y125671D02*
X-95787Y136048D01*
X-106164Y-64252D02*
Y125671D01*
Y-64252D02*
X-72565Y-97851D01*
X-48602D01*
X-280000Y-497576D02*
Y-484708D01*
X-196000Y-318000D02*
Y-305806D01*
X-203446Y-298360D02*
X-196000Y-305806D01*
X-203446Y-298360D02*
Y-98553D01*
X-187190Y-82297D01*
Y-10810D01*
X-200000Y2000D02*
X-187190Y-10810D01*
X-192497Y350503D02*
X-144264Y302270D01*
X-192497Y350503D02*
Y373000D01*
X-217400Y-367000D02*
Y-302266D01*
X-228846Y-290820D02*
X-217400Y-302266D01*
X-228846Y-290820D02*
Y-56846D01*
X-200000Y-28000D01*
X-218897Y438795D02*
Y461773D01*
X-222580Y435112D02*
X-218897Y438795D01*
X-249674Y435112D02*
X-222580D01*
X-249674Y216164D02*
Y435112D01*
Y216164D02*
X-139438Y105928D01*
Y-83860D02*
Y105928D01*
Y-83860D02*
X-102608Y-120690D01*
Y-209286D02*
Y-120690D01*
Y-209286D02*
X-51046Y-260848D01*
Y-292598D02*
Y-260848D01*
X-176522Y462544D02*
X-166097D01*
X-69443Y-434773D02*
Y-425757D01*
X-154850Y-340350D02*
X-69443Y-425757D01*
X-164330Y-340350D02*
X-154850D01*
X-164330D02*
Y-322333D01*
X-160520Y-318523D01*
X-155000D01*
X-46220Y-370322D02*
X-43042Y-367145D01*
X-128516Y-345176D02*
X-103370Y-370322D01*
X-128516Y-345176D02*
Y-182108D01*
X-153916Y-156708D02*
X-128516Y-182108D01*
X-153916Y-156708D02*
Y-1274D01*
X-187190Y32000D02*
X-153916Y-1274D01*
X-200000Y32000D02*
X-187190D01*
X-192497Y373000D02*
Y501527D01*
X-148850Y-331477D02*
X-110005Y-370322D01*
X-155000Y-331477D02*
X-148850D01*
X-290150Y551D02*
Y152150D01*
X-415850Y-125149D02*
X-290150Y551D01*
X-218897Y461773D02*
Y469402D01*
X-230370D02*
X-218897D01*
X-239477Y478509D02*
X-230370Y469402D01*
X-239477Y478509D02*
Y514000D01*
X-390570Y480750D02*
X-382000D01*
X-397600Y473720D02*
X-390570Y480750D01*
X-397600Y420958D02*
Y473720D01*
X-437600Y-400260D02*
X-372610Y-335270D01*
Y-193790D01*
X-415850Y-150549D02*
X-372610Y-193790D01*
X-167477Y493461D02*
Y514000D01*
Y493461D02*
X-166097Y492081D01*
X-154523Y441970D02*
Y514000D01*
X-159095Y437398D02*
X-154523Y441970D01*
X-179570Y437398D02*
X-159095D01*
X-192270Y450098D02*
X-179570Y437398D01*
X-192270Y450098D02*
Y501300D01*
X-226523Y514000D02*
X-204970D01*
X-140000Y549608D02*
X-128008D01*
X-358411Y460671D02*
X-341400D01*
X-364990Y467250D02*
X-358411Y460671D01*
X-382000Y467250D02*
X-364990D01*
X-233434Y-586000D02*
X-201000D01*
X-234434Y-585000D02*
X-233434Y-586000D01*
X-266500Y-585000D02*
X-234434D01*
X-419000Y445970D02*
Y467250D01*
X-423000Y441970D02*
X-419000Y445970D01*
X-423000Y420958D02*
Y441970D01*
X-126500Y576007D02*
X-113750D01*
X-127500Y575008D02*
X-126500Y576007D01*
X-140000Y575008D02*
X-127500D01*
X-326031Y-458937D02*
X-326000Y-458968D01*
Y-472500D02*
Y-458968D01*
D24*
X-171000Y-586000D02*
D03*
X-201000D02*
D03*
X-426000Y16000D02*
D03*
Y-14000D02*
D03*
X-56000Y231000D02*
D03*
Y201000D02*
D03*
X-230000Y62000D02*
D03*
X-200000D02*
D03*
Y32000D02*
D03*
X-230000D02*
D03*
Y-28000D02*
D03*
X-200000D02*
D03*
Y2000D02*
D03*
X-230000D02*
D03*
D25*
X-82000Y656000D02*
D03*
X-83000Y-652000D02*
D03*
X-644000Y-93000D02*
D03*
Y97000D02*
D03*
D26*
X-415850Y-125149D02*
D03*
Y-150549D02*
D03*
Y-175949D02*
D03*
Y-201350D02*
D03*
Y-226749D02*
D03*
Y-252150D02*
D03*
X-463000Y-416400D02*
D03*
Y-391000D02*
D03*
Y-365600D02*
D03*
Y-467200D02*
D03*
X-437600D02*
D03*
X-412200D02*
D03*
X-463000Y-314800D02*
D03*
X-437600D02*
D03*
X-412200D02*
D03*
X-290150Y152150D02*
D03*
Y177550D02*
D03*
Y202950D02*
D03*
Y228350D02*
D03*
Y253750D02*
D03*
Y279150D02*
D03*
X-387200Y203600D02*
D03*
Y178200D02*
D03*
Y152800D02*
D03*
Y254400D02*
D03*
X-412600D02*
D03*
X-438000D02*
D03*
X-387200Y102000D02*
D03*
X-412600D02*
D03*
X-438000D02*
D03*
D27*
X-555550Y-239450D02*
D03*
Y-137850D02*
D03*
X-150450Y266450D02*
D03*
Y164850D02*
D03*
D28*
X-386800Y-467200D02*
D03*
Y-314800D02*
D03*
X-463400Y254400D02*
D03*
Y102000D02*
D03*
D29*
X-13600Y-132854D02*
D03*
X-39000D02*
D03*
X-64400D02*
D03*
X-89800D02*
D03*
X-115200D02*
D03*
X-140600D02*
D03*
X-166000D02*
D03*
X-191400D02*
D03*
X-216800D02*
D03*
X-242200D02*
D03*
X-267600D02*
D03*
X-293000D02*
D03*
X-318400D02*
D03*
X-343800D02*
D03*
Y-158254D02*
D03*
Y-183654D02*
D03*
Y-209054D02*
D03*
Y-234454D02*
D03*
Y-259854D02*
D03*
Y-285254D02*
D03*
X-318400D02*
D03*
X-293000D02*
D03*
X-267600D02*
D03*
X-242200D02*
D03*
X-216800D02*
D03*
X-191400D02*
D03*
X-166000D02*
D03*
X-140600D02*
D03*
X-115200D02*
D03*
X-89800D02*
D03*
X-64400D02*
D03*
X-39000D02*
D03*
X-13600D02*
D03*
X-39000Y-259854D02*
D03*
X-89800D02*
D03*
X-115200D02*
D03*
X-140600D02*
D03*
D30*
X-255000Y-316000D02*
D03*
X-325000Y-410000D02*
D03*
X-168000Y-31000D02*
D03*
X-101000Y561000D02*
D03*
X-106418Y173492D02*
D03*
X-176522Y103388D02*
D03*
X-298950Y-71364D02*
D03*
X-69443Y-581287D02*
D03*
X-479798Y-103876D02*
D03*
X-350512Y-309108D02*
D03*
X-245102Y183398D02*
D03*
X-119626Y190764D02*
D03*
X-51808Y-247262D02*
D03*
X-174490Y-394198D02*
D03*
X-74922Y-353050D02*
D03*
X-309110Y-224272D02*
D03*
X-278630Y-228844D02*
D03*
X-314698Y504708D02*
D03*
X-222242Y535950D02*
D03*
X-387200Y220848D02*
D03*
X-280000Y-497576D02*
D03*
X-144264Y302270D02*
D03*
X-176522Y462544D02*
D03*
M02*
