G04 Layer_Color=65535*
%FSLAX44Y44*%
%MOMM*%
G71*
G01*
G75*
%ADD23C,0.2500*%
%ADD31C,0.2540*%
%ADD32C,0.1524*%
%ADD33C,0.2000*%
%ADD34C,0.2032*%
D23*
X-152850Y-367000D02*
G03*
X-152850Y-367000I-1250J0D01*
G01*
X-31850Y460671D02*
G03*
X-31850Y460671I-1250J0D01*
G01*
X-276850Y460671D02*
G03*
X-276850Y460671I-1250J0D01*
G01*
D31*
X-340001Y-444530D02*
G03*
X-340001Y-444530I-1270J0D01*
G01*
X-238260Y615647D02*
G03*
X-238260Y615647I-1270J0D01*
G01*
X-462370Y321427D02*
G03*
X-462370Y321427I-1270J0D01*
G01*
X-242000Y-617000D02*
Y-548000D01*
X-131000D01*
Y-601000D02*
Y-548000D01*
X-242000Y-617000D02*
X-131000D01*
Y-601000D01*
X-337131Y-427500D02*
X-264131D01*
Y-362500D01*
X-337131D02*
X-264131D01*
X-337131Y-427500D02*
Y-362500D01*
X-585000Y-269000D02*
X-401000D01*
X-585000D02*
Y-108000D01*
X-401000D01*
X-398000Y-111000D01*
Y-266000D02*
Y-111000D01*
X-401000Y-269000D02*
X-398000Y-266000D01*
X-222500Y538507D02*
Y611507D01*
Y538507D02*
X-157500D01*
Y611507D01*
X-222500D02*
X-157500D01*
X-305000Y296000D02*
X-121000D01*
Y135000D02*
Y296000D01*
X-305000Y135000D02*
X-121000D01*
X-308000Y138000D02*
X-305000Y135000D01*
X-308000Y138000D02*
Y293000D01*
X-305000Y296000D01*
X-459500Y338457D02*
X-386500D01*
Y403457D01*
X-459500D02*
X-386500D01*
X-459500Y338457D02*
Y403457D01*
X-464000Y-55000D02*
X-395000D01*
X-464000D02*
Y56000D01*
X-411000D01*
X-395000Y-55000D02*
Y56000D01*
X-411000D02*
X-395000D01*
X-94000Y160000D02*
X-25000D01*
X-94000D02*
Y271000D01*
X-41000D01*
X-25000Y160000D02*
Y271000D01*
X-41000D02*
X-25000D01*
X-284000Y-88000D02*
X-150000D01*
X-285000Y-87000D02*
X-284000Y-88000D01*
X-285000Y-87000D02*
Y122000D01*
X-150000D01*
Y-88000D02*
Y122000D01*
X-122157Y-549179D02*
X-106922D01*
Y-556796D01*
X-109461Y-559336D01*
X-114539D01*
X-117079Y-556796D01*
Y-549179D01*
X-122157Y-572032D02*
X-106922D01*
X-114539Y-564414D01*
Y-574571D01*
X-305621Y-547540D02*
Y-562775D01*
X-298004D01*
X-295464Y-560236D01*
Y-550079D01*
X-298004Y-547540D01*
X-305621D01*
X-290386Y-562775D02*
X-285308D01*
X-287847D01*
Y-547540D01*
X-290386Y-550079D01*
D32*
X-195238Y-305554D02*
G03*
X-195238Y-305554I-762J0D01*
G01*
X-154238Y-306077D02*
G03*
X-154238Y-306077I-762J0D01*
G01*
X-141315Y514000D02*
G03*
X-141315Y514000I-762J0D01*
G01*
X-213315D02*
G03*
X-213315Y514000I-762J0D01*
G01*
X-38344Y-374169D02*
Y-369114D01*
X-91144Y-374169D02*
Y-369114D01*
X-47741Y-374169D02*
Y-369114D01*
X-100541Y-374169D02*
Y-369114D01*
X-161398Y433604D02*
Y438659D01*
X-214198Y433604D02*
Y438659D01*
X-170796Y433604D02*
Y438659D01*
X-223596Y433604D02*
Y438659D01*
D33*
X-307250Y-597500D02*
Y-571500D01*
X-482114Y-483570D02*
Y-297570D01*
X-363114Y-483570D02*
Y-297570D01*
X-482114Y-483570D02*
X-363114D01*
X-482114Y-297570D02*
X-363114D01*
X-368086Y84770D02*
Y270770D01*
X-487086Y84770D02*
Y270770D01*
X-368086D01*
X-487086Y84770D02*
X-368086D01*
X-140500Y-435001D02*
Y-395500D01*
X-243499D02*
X-140500D01*
X-243499Y-435001D02*
Y-395500D01*
X-19500Y392671D02*
Y432171D01*
X-122500D02*
X-19500D01*
X-122500Y392671D02*
Y432171D01*
X-264500Y392671D02*
Y432171D01*
X-367500D02*
X-264500D01*
X-367500Y392671D02*
Y432171D01*
X-265336Y519331D02*
X-267002Y520997D01*
X-270334D01*
X-272000Y519331D01*
Y512666D01*
X-270334Y511000D01*
X-267002D01*
X-265336Y512666D01*
X-262003Y511000D02*
X-258671D01*
X-260337D01*
Y520997D01*
X-262003Y519331D01*
X-191336Y518331D02*
X-193002Y519997D01*
X-196334D01*
X-198000Y518331D01*
Y511666D01*
X-196334Y510000D01*
X-193002D01*
X-191336Y511666D01*
X-181339Y510000D02*
X-188003D01*
X-181339Y516665D01*
Y518331D01*
X-183005Y519997D01*
X-186337D01*
X-188003Y518331D01*
X-93250Y279352D02*
Y289349D01*
X-88252D01*
X-86586Y287683D01*
Y284351D01*
X-88252Y282684D01*
X-93250D01*
X-83254Y279352D02*
X-79921D01*
X-81587D01*
Y289349D01*
X-83254Y287683D01*
X-462000Y65000D02*
Y74997D01*
X-457001D01*
X-455335Y73331D01*
Y69998D01*
X-457001Y68332D01*
X-462000D01*
X-445339Y65000D02*
X-452003D01*
X-445339Y71664D01*
Y73331D01*
X-447005Y74997D01*
X-450337D01*
X-452003Y73331D01*
X-309000Y110000D02*
Y119997D01*
X-304002D01*
X-302335Y118331D01*
Y114998D01*
X-304002Y113332D01*
X-309000D01*
X-299003Y118331D02*
X-297337Y119997D01*
X-294005D01*
X-292339Y118331D01*
Y116664D01*
X-294005Y114998D01*
X-295671D01*
X-294005D01*
X-292339Y113332D01*
Y111666D01*
X-294005Y110000D01*
X-297337D01*
X-299003Y111666D01*
X-315336Y445666D02*
Y452331D01*
X-317002Y453997D01*
X-320334D01*
X-322000Y452331D01*
Y445666D01*
X-320334Y444000D01*
X-317002D01*
X-318668Y447332D02*
X-315336Y444000D01*
X-317002D02*
X-315336Y445666D01*
X-312003Y444000D02*
X-308671D01*
X-310337D01*
Y453997D01*
X-312003Y452331D01*
X-72336Y445666D02*
Y452331D01*
X-74002Y453997D01*
X-77334D01*
X-79000Y452331D01*
Y445666D01*
X-77334Y444000D01*
X-74002D01*
X-75668Y447332D02*
X-72336Y444000D01*
X-74002D02*
X-72336Y445666D01*
X-62339Y444000D02*
X-69003D01*
X-62339Y450664D01*
Y452331D01*
X-64005Y453997D01*
X-67337D01*
X-69003Y452331D01*
X-238159Y-335082D02*
Y-328418D01*
X-239825Y-326751D01*
X-243158D01*
X-244824Y-328418D01*
Y-335082D01*
X-243158Y-336748D01*
X-239825D01*
X-241492Y-333416D02*
X-238159Y-336748D01*
X-239825D02*
X-238159Y-335082D01*
X-234827Y-328418D02*
X-233161Y-326751D01*
X-229829D01*
X-228162Y-328418D01*
Y-330084D01*
X-229829Y-331750D01*
X-231495D01*
X-229829D01*
X-228162Y-333416D01*
Y-335082D01*
X-229829Y-336748D01*
X-233161D01*
X-234827Y-335082D01*
X-448000Y442750D02*
X-457997D01*
Y447748D01*
X-456331Y449414D01*
X-452998D01*
X-451332Y447748D01*
Y442750D01*
Y446082D02*
X-448000Y449414D01*
Y452747D02*
Y456079D01*
Y454413D01*
X-457997D01*
X-456331Y452747D01*
X-412000Y440750D02*
X-421997D01*
Y445748D01*
X-420331Y447415D01*
X-416998D01*
X-415332Y445748D01*
Y440750D01*
Y444082D02*
X-412000Y447415D01*
Y457411D02*
Y450747D01*
X-418665Y457411D01*
X-420331D01*
X-421997Y455745D01*
Y452413D01*
X-420331Y450747D01*
X-375000Y440750D02*
X-384997D01*
Y445748D01*
X-383331Y447415D01*
X-379998D01*
X-378332Y445748D01*
Y440750D01*
Y444082D02*
X-375000Y447415D01*
Y455745D02*
X-384997D01*
X-379998Y450747D01*
Y457411D01*
X-89000Y598007D02*
Y608004D01*
X-84002D01*
X-82336Y606338D01*
Y603006D01*
X-84002Y601340D01*
X-89000D01*
X-85668D02*
X-82336Y598007D01*
X-72339Y608004D02*
X-79003D01*
Y603006D01*
X-75671Y604672D01*
X-74005D01*
X-72339Y603006D01*
Y599674D01*
X-74005Y598007D01*
X-77337D01*
X-79003Y599674D01*
X-89000Y571007D02*
Y581004D01*
X-84002D01*
X-82336Y579338D01*
Y576006D01*
X-84002Y574340D01*
X-89000D01*
X-85668D02*
X-82336Y571007D01*
X-72339Y581004D02*
X-75671Y579338D01*
X-79003Y576006D01*
Y572674D01*
X-77337Y571007D01*
X-74005D01*
X-72339Y572674D01*
Y574340D01*
X-74005Y576006D01*
X-79003D01*
X-89750Y540000D02*
Y549997D01*
X-84752D01*
X-83085Y548331D01*
Y544998D01*
X-84752Y543332D01*
X-89750D01*
X-86418D02*
X-83085Y540000D01*
X-79753Y548331D02*
X-78087Y549997D01*
X-74755D01*
X-73089Y548331D01*
Y546665D01*
X-74755Y544998D01*
X-73089Y543332D01*
Y541666D01*
X-74755Y540000D01*
X-78087D01*
X-79753Y541666D01*
Y543332D01*
X-78087Y544998D01*
X-79753Y546665D01*
Y548331D01*
X-78087Y544998D02*
X-74755D01*
X-330000Y-498500D02*
X-320003D01*
Y-503498D01*
X-321669Y-505164D01*
X-325002D01*
X-326668Y-503498D01*
Y-498500D01*
Y-501832D02*
X-330000Y-505164D01*
X-328334Y-508497D02*
X-330000Y-510163D01*
Y-513495D01*
X-328334Y-515161D01*
X-321669D01*
X-320003Y-513495D01*
Y-510163D01*
X-321669Y-508497D01*
X-323335D01*
X-325002Y-510163D01*
Y-515161D01*
X-307000Y-495957D02*
X-297003D01*
Y-500956D01*
X-298669Y-502622D01*
X-302002D01*
X-303668Y-500956D01*
Y-495957D01*
Y-499290D02*
X-307000Y-502622D01*
Y-505954D02*
Y-509286D01*
Y-507620D01*
X-297003D01*
X-298669Y-505954D01*
Y-514285D02*
X-297003Y-515951D01*
Y-519283D01*
X-298669Y-520949D01*
X-305334D01*
X-307000Y-519283D01*
Y-515951D01*
X-305334Y-514285D01*
X-298669D01*
X-286000Y-496208D02*
X-276003D01*
Y-501206D01*
X-277669Y-502872D01*
X-281002D01*
X-282668Y-501206D01*
Y-496208D01*
Y-499540D02*
X-286000Y-502872D01*
Y-506204D02*
Y-509537D01*
Y-507870D01*
X-276003D01*
X-277669Y-506204D01*
X-286000Y-521199D02*
Y-514535D01*
X-279335Y-521199D01*
X-277669D01*
X-276003Y-519533D01*
Y-516201D01*
X-277669Y-514535D01*
X-242497Y477997D02*
Y469666D01*
X-240831Y468000D01*
X-237499D01*
X-235833Y469666D01*
Y477997D01*
X-232500Y468000D02*
X-229168D01*
X-230834D01*
Y477997D01*
X-232500Y476331D01*
X-355592Y-102007D02*
Y-110338D01*
X-353926Y-112004D01*
X-350594D01*
X-348927Y-110338D01*
Y-102007D01*
X-338931Y-112004D02*
X-345595D01*
X-338931Y-105339D01*
Y-103673D01*
X-340597Y-102007D01*
X-343929D01*
X-345595Y-103673D01*
X-460000Y303954D02*
Y295624D01*
X-458334Y293958D01*
X-455002D01*
X-453336Y295624D01*
Y303954D01*
X-450003Y302288D02*
X-448337Y303954D01*
X-445005D01*
X-443339Y302288D01*
Y300622D01*
X-445005Y298956D01*
X-446671D01*
X-445005D01*
X-443339Y297290D01*
Y295624D01*
X-445005Y293958D01*
X-448337D01*
X-450003Y295624D01*
X-485999Y288949D02*
Y280618D01*
X-484333Y278952D01*
X-481001D01*
X-479335Y280618D01*
Y288949D01*
X-471004Y278952D02*
Y288949D01*
X-476003Y283950D01*
X-469338D01*
X-315153Y295150D02*
X-323484D01*
X-325150Y293484D01*
Y290152D01*
X-323484Y288486D01*
X-315153D01*
Y278489D02*
Y285153D01*
X-320152D01*
X-318486Y281821D01*
Y280155D01*
X-320152Y278489D01*
X-323484D01*
X-325150Y280155D01*
Y283487D01*
X-323484Y285153D01*
X-220000Y633997D02*
Y625666D01*
X-218334Y624000D01*
X-215002D01*
X-213335Y625666D01*
Y633997D01*
X-203339D02*
X-206671Y632331D01*
X-210003Y628998D01*
Y625666D01*
X-208337Y624000D01*
X-205005D01*
X-203339Y625666D01*
Y627332D01*
X-205005Y628998D01*
X-210003D01*
X-481022Y-279545D02*
Y-287876D01*
X-479356Y-289542D01*
X-476024D01*
X-474357Y-287876D01*
Y-279545D01*
X-471025D02*
X-464361D01*
Y-281212D01*
X-471025Y-287876D01*
Y-289542D01*
X-419000Y-91003D02*
Y-99334D01*
X-417334Y-101000D01*
X-414002D01*
X-412336Y-99334D01*
Y-91003D01*
X-409003Y-92669D02*
X-407337Y-91003D01*
X-404005D01*
X-402339Y-92669D01*
Y-94335D01*
X-404005Y-96002D01*
X-402339Y-97668D01*
Y-99334D01*
X-404005Y-101000D01*
X-407337D01*
X-409003Y-99334D01*
Y-97668D01*
X-407337Y-96002D01*
X-409003Y-94335D01*
Y-92669D01*
X-407337Y-96002D02*
X-404005D01*
X-341842Y-317318D02*
Y-325648D01*
X-340175Y-327314D01*
X-336843D01*
X-335177Y-325648D01*
Y-317318D01*
X-331845Y-327314D02*
X-328512D01*
X-330179D01*
Y-317318D01*
X-331845Y-318984D01*
X-323514D02*
X-321848Y-317318D01*
X-318516D01*
X-316850Y-318984D01*
Y-325648D01*
X-318516Y-327314D01*
X-321848D01*
X-323514Y-325648D01*
Y-318984D01*
X-120000Y-307003D02*
Y-315334D01*
X-118334Y-317000D01*
X-115002D01*
X-113336Y-315334D01*
Y-307003D01*
X-110003Y-317000D02*
X-106671D01*
X-108337D01*
Y-307003D01*
X-110003Y-308669D01*
X-101673D02*
X-100007Y-307003D01*
X-96674D01*
X-95008Y-308669D01*
Y-310336D01*
X-96674Y-312002D01*
X-98340D01*
X-96674D01*
X-95008Y-313668D01*
Y-315334D01*
X-96674Y-317000D01*
X-100007D01*
X-101673Y-315334D01*
X-178331Y-327336D02*
X-179997Y-329002D01*
Y-332334D01*
X-178331Y-334000D01*
X-171666D01*
X-170000Y-332334D01*
Y-329002D01*
X-171666Y-327336D01*
X-179997Y-324003D02*
Y-317339D01*
X-178331D01*
X-171666Y-324003D01*
X-170000D01*
X-217331Y-326335D02*
X-218997Y-328002D01*
Y-331334D01*
X-217331Y-333000D01*
X-210666D01*
X-209000Y-331334D01*
Y-328002D01*
X-210666Y-326335D01*
X-217331Y-323003D02*
X-218997Y-321337D01*
Y-318005D01*
X-217331Y-316339D01*
X-215665D01*
X-213998Y-318005D01*
X-212332Y-316339D01*
X-210666D01*
X-209000Y-318005D01*
Y-321337D01*
X-210666Y-323003D01*
X-212332D01*
X-213998Y-321337D01*
X-215665Y-323003D01*
X-217331D01*
X-213998Y-321337D02*
Y-318005D01*
X-266975Y155401D02*
X-268642Y157067D01*
X-271974D01*
X-273640Y155401D01*
Y148736D01*
X-271974Y147070D01*
X-268642D01*
X-266975Y148736D01*
Y152068D01*
X-270308D01*
X-263643Y147070D02*
Y157067D01*
X-256979Y147070D01*
Y157067D01*
X-253646D02*
Y147070D01*
X-248648D01*
X-246982Y148736D01*
Y155401D01*
X-248648Y157067D01*
X-253646D01*
X-273640Y182467D02*
Y175802D01*
X-270308Y172470D01*
X-266975Y175802D01*
Y182467D01*
X-256979Y180801D02*
X-258645Y182467D01*
X-261977D01*
X-263643Y180801D01*
Y174136D01*
X-261977Y172470D01*
X-258645D01*
X-256979Y174136D01*
X-246982Y180801D02*
X-248648Y182467D01*
X-251980D01*
X-253646Y180801D01*
Y174136D01*
X-251980Y172470D01*
X-248648D01*
X-246982Y174136D01*
X-266975Y231601D02*
X-268642Y233267D01*
X-271974D01*
X-273640Y231601D01*
Y229935D01*
X-271974Y228268D01*
X-268642D01*
X-266975Y226602D01*
Y224936D01*
X-268642Y223270D01*
X-271974D01*
X-273640Y224936D01*
X-263643Y233267D02*
Y223270D01*
X-258645D01*
X-256979Y224936D01*
Y231601D01*
X-258645Y233267D01*
X-263643D01*
X-253646Y223270D02*
Y229935D01*
X-250314Y233267D01*
X-246982Y229935D01*
Y223270D01*
Y228268D01*
X-253646D01*
X-266975Y206201D02*
X-268642Y207867D01*
X-271974D01*
X-273640Y206201D01*
Y204534D01*
X-271974Y202868D01*
X-268642D01*
X-266975Y201202D01*
Y199536D01*
X-268642Y197870D01*
X-271974D01*
X-273640Y199536D01*
X-256979Y206201D02*
X-258645Y207867D01*
X-261977D01*
X-263643Y206201D01*
Y199536D01*
X-261977Y197870D01*
X-258645D01*
X-256979Y199536D01*
X-253646Y207867D02*
Y197870D01*
X-246982D01*
X-273640Y258667D02*
X-270308D01*
X-271974D01*
Y248670D01*
X-273640D01*
X-270308D01*
X-265309D02*
Y258667D01*
X-258645Y248670D01*
Y258667D01*
X-255313D02*
X-248648D01*
X-251980D01*
Y248670D01*
X-245316D02*
X-241984D01*
X-243650D01*
Y258667D01*
X-245316Y257001D01*
X-273640Y284067D02*
X-270308D01*
X-271974D01*
Y274070D01*
X-273640D01*
X-270308D01*
X-265309D02*
Y284067D01*
X-258645Y274070D01*
Y284067D01*
X-255313D02*
X-248648D01*
X-251980D01*
Y274070D01*
X-238651D02*
X-245316D01*
X-238651Y280735D01*
Y282401D01*
X-240317Y284067D01*
X-243650D01*
X-245316Y282401D01*
X-439025Y-128401D02*
X-437358Y-130067D01*
X-434026D01*
X-432360Y-128401D01*
Y-121736D01*
X-434026Y-120070D01*
X-437358D01*
X-439025Y-121736D01*
Y-125068D01*
X-435692D01*
X-442357Y-120070D02*
Y-130067D01*
X-449021Y-120070D01*
Y-130067D01*
X-452354D02*
Y-120070D01*
X-457352D01*
X-459018Y-121736D01*
Y-128401D01*
X-457352Y-130067D01*
X-452354D01*
X-432360Y-155467D02*
Y-148802D01*
X-435692Y-145470D01*
X-439025Y-148802D01*
Y-155467D01*
X-449021Y-153801D02*
X-447355Y-155467D01*
X-444023D01*
X-442357Y-153801D01*
Y-147136D01*
X-444023Y-145470D01*
X-447355D01*
X-449021Y-147136D01*
X-459018Y-153801D02*
X-457352Y-155467D01*
X-454020D01*
X-452354Y-153801D01*
Y-147136D01*
X-454020Y-145470D01*
X-457352D01*
X-459018Y-147136D01*
X-439025Y-204601D02*
X-437358Y-206267D01*
X-434026D01*
X-432360Y-204601D01*
Y-202934D01*
X-434026Y-201268D01*
X-437358D01*
X-439025Y-199602D01*
Y-197936D01*
X-437358Y-196270D01*
X-434026D01*
X-432360Y-197936D01*
X-442357Y-206267D02*
Y-196270D01*
X-447355D01*
X-449021Y-197936D01*
Y-204601D01*
X-447355Y-206267D01*
X-442357D01*
X-452354Y-196270D02*
Y-202934D01*
X-455686Y-206267D01*
X-459018Y-202934D01*
Y-196270D01*
Y-201268D01*
X-452354D01*
X-439025Y-179201D02*
X-437358Y-180867D01*
X-434026D01*
X-432360Y-179201D01*
Y-177535D01*
X-434026Y-175868D01*
X-437358D01*
X-439025Y-174202D01*
Y-172536D01*
X-437358Y-170870D01*
X-434026D01*
X-432360Y-172536D01*
X-449021Y-179201D02*
X-447355Y-180867D01*
X-444023D01*
X-442357Y-179201D01*
Y-172536D01*
X-444023Y-170870D01*
X-447355D01*
X-449021Y-172536D01*
X-452354Y-180867D02*
Y-170870D01*
X-459018D01*
X-432360Y-231667D02*
X-435692D01*
X-434026D01*
Y-221670D01*
X-432360D01*
X-435692D01*
X-440691D02*
Y-231667D01*
X-447355Y-221670D01*
Y-231667D01*
X-450687D02*
X-457352D01*
X-454020D01*
Y-221670D01*
X-460684D02*
X-464016D01*
X-462350D01*
Y-231667D01*
X-460684Y-230001D01*
X-432360Y-257067D02*
X-435692D01*
X-434026D01*
Y-247070D01*
X-432360D01*
X-435692D01*
X-440691D02*
Y-257067D01*
X-447355Y-247070D01*
Y-257067D01*
X-450687D02*
X-457352D01*
X-454020D01*
Y-247070D01*
X-467349D02*
X-460684D01*
X-467349Y-253734D01*
Y-255401D01*
X-465683Y-257067D01*
X-462350D01*
X-460684Y-255401D01*
D34*
X-13600Y-221754D02*
Y-196354D01*
Y-221754D02*
X-900D01*
Y-297954D02*
Y-221754D01*
X-356500Y-297954D02*
X-900D01*
X-356500D02*
Y-120154D01*
X-900D01*
Y-196354D02*
Y-120154D01*
X-13600Y-196354D02*
X-900D01*
M02*
