G04 Layer_Physical_Order=2*
G04 Layer_Color=16711680*
%FSLAX44Y44*%
%MOMM*%
G71*
G01*
G75*
%ADD21C,0.2500*%
%ADD23C,1.6000*%
%ADD24C,1.4478*%
%ADD25R,1.8796X1.8796*%
%ADD26C,1.8796*%
%ADD27C,3.3020*%
%ADD28C,4.5000*%
%ADD29C,0.6000*%
D21*
X-234548Y255902D02*
X-166108Y187462D01*
X-86606Y-335016D02*
X-31742Y-280152D01*
X-156710Y-405120D02*
X-86606Y-335016D01*
X-491000Y74400D02*
X-381468D01*
X-368800Y61732D01*
X-310634D01*
X-243578Y-5324D01*
Y-34280D02*
Y-5324D01*
Y-34280D02*
X-236974Y-40884D01*
X-228846D01*
X-129786Y-139944D01*
Y-203786D02*
Y-139944D01*
X-146000Y-220000D02*
X-129786Y-203786D01*
X-503166Y87634D02*
X-491000Y99800D01*
X-503166Y67320D02*
Y87634D01*
Y67320D02*
X-498086Y62240D01*
X-473448D01*
X-397248Y-13960D01*
X-288282D01*
X-213860Y-88382D01*
X-503166Y213566D02*
X-491000Y201400D01*
X-503166Y213566D02*
Y314970D01*
X-485894Y332242D01*
X-298442D01*
X-177792Y452892D01*
X-301490Y-455458D02*
Y-363464D01*
X-372864Y407172D02*
X-266036Y514000D01*
X-234548Y255902D02*
X-192497Y297952D01*
X-274566Y295920D02*
X-234548Y255902D01*
X-447280Y295920D02*
X-274566D01*
X-491000Y252200D02*
X-447280Y295920D01*
X-56000Y231000D02*
X-43172Y218172D01*
Y194320D02*
Y218172D01*
X-50030Y187462D02*
X-43172Y194320D01*
X-166108Y187462D02*
X-50030D01*
X-300824Y162824D02*
X-290150Y152150D01*
X-401624Y162824D02*
X-300824D01*
X-491000Y252200D02*
X-401624Y162824D01*
X-592000Y-281600D02*
Y-259766D01*
X-453636Y-121402D01*
X-301598D01*
X-292850Y-130150D01*
X-179320Y-110480D02*
X-146000Y-143800D01*
X-273180Y-110480D02*
X-179320D01*
X-292850Y-130150D02*
X-273180Y-110480D01*
X-63000Y-169000D02*
X-31742Y-200258D01*
Y-280152D02*
Y-200258D01*
X-214400Y-335016D02*
X-86606D01*
X-566600Y-281600D02*
X-528576Y-243576D01*
X-504690D01*
X-425188Y-164074D01*
X-301374D01*
X-292850Y-155550D01*
X-314750Y177550D02*
X-290150D01*
X-338600Y201400D02*
X-314750Y177550D01*
X-74668Y219668D02*
X-56000Y201000D01*
X-74668Y219668D02*
Y341659D01*
X-174998Y441989D02*
X-74668Y341659D01*
X-144264Y37348D02*
X-87622Y93990D01*
X-194652Y37348D02*
X-144264D01*
X-200000Y32000D02*
X-194652Y37348D01*
X-292850Y-282434D02*
Y-257150D01*
X-306316Y-295900D02*
X-292850Y-282434D01*
X-598670Y-295900D02*
X-306316D01*
X-606290Y-288280D02*
X-598670Y-295900D01*
X-606290Y-288280D02*
Y-117090D01*
X-491000Y-1800D01*
X-594128Y-320000D02*
X-435200D01*
X-612894Y-301234D02*
X-594128Y-320000D01*
X-612894Y-301234D02*
Y-110226D01*
X-558792Y-56124D01*
Y-18792D01*
X-491000Y49000D01*
X-292850Y-206350D02*
X-278630Y-220570D01*
Y-277104D02*
Y-220570D01*
X-384400Y-382874D02*
X-278630Y-277104D01*
X-384400Y-472400D02*
Y-382874D01*
X-84477Y-280563D02*
X-63000Y-259086D01*
Y-199000D01*
X-274058Y-39360D02*
X-259326Y-54092D01*
X-478840Y-39360D02*
X-274058D01*
X-491000Y-27200D02*
X-478840Y-39360D01*
X-338600Y49000D02*
X-187190Y-102410D01*
X-230000Y-28000D02*
X-217370Y-40630D01*
X-202684D01*
X-96766Y-146548D01*
Y-165234D02*
Y-146548D01*
Y-165234D02*
X-63000Y-199000D01*
X-515800Y-281600D02*
X-307764D01*
X-160774Y79258D02*
X-70858Y169174D01*
X-212742Y79258D02*
X-160774D01*
X-230000Y62000D02*
X-212742Y79258D01*
X-290150Y202950D02*
X-275836Y188636D01*
Y137164D02*
Y188636D01*
X-338600Y74400D02*
X-275836Y137164D01*
X-330022Y213878D02*
X-290150Y253750D01*
X-343908Y213878D02*
X-330022D01*
X-350766Y207020D02*
X-343908Y213878D01*
X-350766Y188166D02*
Y207020D01*
Y188166D02*
X-338600Y176000D01*
X-196754Y-169154D02*
X-171400Y-143800D01*
X-279246Y-169154D02*
X-196754D01*
X-292850Y-155550D02*
X-279246Y-169154D01*
X-230000Y32000D02*
X-200000D01*
D23*
X-230000Y2000D02*
D03*
X-200000D02*
D03*
Y-28000D02*
D03*
X-230000D02*
D03*
Y32000D02*
D03*
X-200000D02*
D03*
Y62000D02*
D03*
X-230000D02*
D03*
X-56000Y201000D02*
D03*
Y231000D02*
D03*
X-63000Y-199000D02*
D03*
Y-169000D02*
D03*
D24*
X-364000Y125200D02*
D03*
Y150600D02*
D03*
Y176000D02*
D03*
Y226800D02*
D03*
X-338600Y252200D02*
D03*
Y226800D02*
D03*
Y201400D02*
D03*
Y176000D02*
D03*
Y150600D02*
D03*
Y125200D02*
D03*
Y99800D02*
D03*
Y74400D02*
D03*
Y49000D02*
D03*
Y23600D02*
D03*
Y-1800D02*
D03*
Y-27200D02*
D03*
Y-52600D02*
D03*
Y-78000D02*
D03*
X-364000D02*
D03*
X-389400D02*
D03*
X-414800D02*
D03*
X-440200D02*
D03*
X-465600D02*
D03*
X-491000D02*
D03*
Y-52600D02*
D03*
Y-27200D02*
D03*
Y-1800D02*
D03*
Y23600D02*
D03*
Y49000D02*
D03*
Y74400D02*
D03*
Y99800D02*
D03*
Y125200D02*
D03*
Y150600D02*
D03*
Y176000D02*
D03*
Y201400D02*
D03*
Y226800D02*
D03*
Y252200D02*
D03*
D25*
X-222200Y-296200D02*
D03*
Y-143800D02*
D03*
X-515800Y-129200D02*
D03*
Y-281600D02*
D03*
X-359000Y-320000D02*
D03*
Y-472400D02*
D03*
D26*
X-196800Y-296200D02*
D03*
X-171400D02*
D03*
X-146000D02*
D03*
X-196800Y-143800D02*
D03*
X-171400D02*
D03*
X-146000D02*
D03*
Y-245400D02*
D03*
Y-220000D02*
D03*
Y-194600D02*
D03*
X-290150Y279150D02*
D03*
Y253750D02*
D03*
Y228350D02*
D03*
Y202950D02*
D03*
Y177550D02*
D03*
Y152150D02*
D03*
X-541200Y-129200D02*
D03*
X-566600D02*
D03*
X-592000D02*
D03*
X-541200Y-281600D02*
D03*
X-566600D02*
D03*
X-592000D02*
D03*
Y-180000D02*
D03*
Y-205400D02*
D03*
Y-230800D02*
D03*
X-292850Y-257150D02*
D03*
Y-231750D02*
D03*
Y-206350D02*
D03*
Y-180950D02*
D03*
Y-155550D02*
D03*
Y-130150D02*
D03*
X-384400Y-320000D02*
D03*
X-409800D02*
D03*
X-435200D02*
D03*
X-384400Y-472400D02*
D03*
X-409800D02*
D03*
X-435200D02*
D03*
Y-370800D02*
D03*
Y-396200D02*
D03*
Y-421600D02*
D03*
D27*
X-150450Y164850D02*
D03*
Y266450D02*
D03*
X-432550Y-142850D02*
D03*
Y-244450D02*
D03*
D28*
X-644000Y97000D02*
D03*
Y-93000D02*
D03*
X-83000Y-652000D02*
D03*
X-82000Y656000D02*
D03*
D29*
X-213860Y-88382D02*
D03*
X-177792Y452892D02*
D03*
X-301490Y-363464D02*
D03*
Y-455458D02*
D03*
X-266036Y514000D02*
D03*
X-372864Y407172D02*
D03*
X-192497Y297952D02*
D03*
X-214400Y-335016D02*
D03*
X-174998Y441989D02*
D03*
X-87622Y93990D02*
D03*
X-156710Y-405120D02*
D03*
X-84477Y-280563D02*
D03*
X-259326Y-54092D02*
D03*
X-187190Y-102410D02*
D03*
X-307764Y-281600D02*
D03*
X-70858Y169174D02*
D03*
M02*
