G04 Layer_Color=65535*
%FSLAX44Y44*%
%MOMM*%
G71*
G01*
G75*
%ADD21C,0.2500*%
%ADD30C,0.1524*%
%ADD31C,0.2540*%
%ADD32C,0.2000*%
%ADD33C,0.2032*%
D21*
X-276850Y460671D02*
G03*
X-276850Y460671I-1250J0D01*
G01*
X-31850Y460671D02*
G03*
X-31850Y460671I-1250J0D01*
G01*
X-149850Y-368000D02*
G03*
X-149850Y-368000I-1250J0D01*
G01*
D30*
X-213315Y514000D02*
G03*
X-213315Y514000I-762J0D01*
G01*
X-141315D02*
G03*
X-141315Y514000I-762J0D01*
G01*
X-58315Y-298000D02*
G03*
X-58315Y-298000I-762J0D01*
G01*
X-57792Y-257000D02*
G03*
X-57792Y-257000I-762J0D01*
G01*
X-223596Y433604D02*
Y438659D01*
X-170796Y433604D02*
Y438659D01*
X-214198Y433604D02*
Y438659D01*
X-161398Y433604D02*
Y438659D01*
X-100541Y-374169D02*
Y-369114D01*
X-47741Y-374169D02*
Y-369114D01*
X-91144Y-374169D02*
Y-369114D01*
X-38344Y-374169D02*
Y-369114D01*
D31*
X-462370Y321427D02*
G03*
X-462370Y321427I-1270J0D01*
G01*
X-238260Y615647D02*
G03*
X-238260Y615647I-1270J0D01*
G01*
X-328002Y-415530D02*
G03*
X-328002Y-415530I-1270J0D01*
G01*
X-150000Y-88000D02*
Y122000D01*
X-285000D02*
X-150000D01*
X-285000Y-87000D02*
Y122000D01*
Y-87000D02*
X-284000Y-88000D01*
X-150000D01*
X-41000Y271000D02*
X-25000D01*
Y160000D02*
Y271000D01*
X-94000D02*
X-41000D01*
X-94000Y160000D02*
Y271000D01*
Y160000D02*
X-25000D01*
X-48000Y-129000D02*
X-32000D01*
Y-240000D02*
Y-129000D01*
X-101000D02*
X-48000D01*
X-101000Y-240000D02*
Y-129000D01*
Y-240000D02*
X-32000D01*
X-459500Y338457D02*
Y403457D01*
X-386500D01*
Y338457D02*
Y403457D01*
X-459500Y338457D02*
X-386500D01*
X-308000Y293000D02*
X-305000Y296000D01*
X-308000Y138000D02*
Y293000D01*
Y138000D02*
X-305000Y135000D01*
X-121000D01*
Y296000D01*
X-305000D02*
X-121000D01*
X-222500Y611507D02*
X-157500D01*
Y538507D02*
Y611507D01*
X-222500Y538507D02*
X-157500D01*
X-222500D02*
Y611507D01*
X-278000Y-274000D02*
X-275000Y-271000D01*
Y-116000D01*
X-278000Y-113000D02*
X-275000Y-116000D01*
X-462000Y-113000D02*
X-278000D01*
X-462000Y-274000D02*
Y-113000D01*
Y-274000D02*
X-278000D01*
X-325131Y-398500D02*
Y-333500D01*
X-252131D01*
Y-398500D02*
Y-333500D01*
X-325131Y-398500D02*
X-252131D01*
D32*
X-367500Y392671D02*
Y432171D01*
X-264500D01*
Y392671D02*
Y432171D01*
X-122500Y392671D02*
Y432171D01*
X-19500D01*
Y392671D02*
Y432171D01*
X-240499Y-436000D02*
Y-396500D01*
X-137500D01*
Y-436000D02*
Y-396500D01*
X-245886Y-313430D02*
X-126886D01*
X-245886Y-127430D02*
X-126886D01*
X-245886Y-313430D02*
Y-127430D01*
X-126886Y-313430D02*
Y-127430D01*
X-611114Y-111970D02*
X-492114D01*
X-611114Y-297970D02*
X-492114D01*
Y-111970D01*
X-611114Y-297970D02*
Y-111970D01*
X-454314Y-302770D02*
X-335314D01*
X-454314Y-488770D02*
X-335314D01*
Y-302770D01*
X-454314Y-488770D02*
Y-302770D01*
X-43335Y-253669D02*
X-45002Y-252003D01*
X-48334D01*
X-50000Y-253669D01*
Y-260334D01*
X-48334Y-262000D01*
X-45002D01*
X-43335Y-260334D01*
X-40003Y-253669D02*
X-38337Y-252003D01*
X-35005D01*
X-33339Y-253669D01*
Y-255336D01*
X-35005Y-257002D01*
X-33339Y-258668D01*
Y-260334D01*
X-35005Y-262000D01*
X-38337D01*
X-40003Y-260334D01*
Y-258668D01*
X-38337Y-257002D01*
X-40003Y-255336D01*
Y-253669D01*
X-38337Y-257002D02*
X-35005D01*
X-41336Y-294669D02*
X-43002Y-293003D01*
X-46334D01*
X-48000Y-294669D01*
Y-301334D01*
X-46334Y-303000D01*
X-43002D01*
X-41336Y-301334D01*
X-38003Y-293003D02*
X-31339D01*
Y-294669D01*
X-38003Y-301334D01*
Y-303000D01*
X-120000Y-307003D02*
Y-315334D01*
X-118334Y-317000D01*
X-115002D01*
X-113336Y-315334D01*
Y-307003D01*
X-110003Y-317000D02*
X-106671D01*
X-108337D01*
Y-307003D01*
X-110003Y-308669D01*
X-101673D02*
X-100007Y-307003D01*
X-96674D01*
X-95008Y-308669D01*
Y-310336D01*
X-96674Y-312002D01*
X-98340D01*
X-96674D01*
X-95008Y-313668D01*
Y-315334D01*
X-96674Y-317000D01*
X-100007D01*
X-101673Y-315334D01*
X-329841Y-288318D02*
Y-296648D01*
X-328175Y-298314D01*
X-324843D01*
X-323177Y-296648D01*
Y-288318D01*
X-319845Y-298314D02*
X-316512D01*
X-318179D01*
Y-288318D01*
X-319845Y-289984D01*
X-311514D02*
X-309848Y-288318D01*
X-306516D01*
X-304850Y-289984D01*
Y-296648D01*
X-306516Y-298314D01*
X-309848D01*
X-311514Y-296648D01*
Y-289984D01*
X-357000Y-494003D02*
Y-502334D01*
X-355334Y-504000D01*
X-352002D01*
X-350336Y-502334D01*
Y-494003D01*
X-347003Y-502334D02*
X-345337Y-504000D01*
X-342005D01*
X-340339Y-502334D01*
Y-495669D01*
X-342005Y-494003D01*
X-345337D01*
X-347003Y-495669D01*
Y-497336D01*
X-345337Y-499002D01*
X-340339D01*
X-296000Y-96003D02*
Y-104334D01*
X-294334Y-106000D01*
X-291002D01*
X-289335Y-104334D01*
Y-96003D01*
X-286003Y-97669D02*
X-284337Y-96003D01*
X-281005D01*
X-279339Y-97669D01*
Y-99335D01*
X-281005Y-101002D01*
X-279339Y-102668D01*
Y-104334D01*
X-281005Y-106000D01*
X-284337D01*
X-286003Y-104334D01*
Y-102668D01*
X-284337Y-101002D01*
X-286003Y-99335D01*
Y-97669D01*
X-284337Y-101002D02*
X-281005D01*
X-610022Y-93945D02*
Y-102276D01*
X-608356Y-103942D01*
X-605024D01*
X-603358Y-102276D01*
Y-93945D01*
X-600025D02*
X-593361D01*
Y-95611D01*
X-600025Y-102276D01*
Y-103942D01*
X-220000Y633997D02*
Y625666D01*
X-218334Y624000D01*
X-215002D01*
X-213335Y625666D01*
Y633997D01*
X-203339D02*
X-206671Y632331D01*
X-210003Y628998D01*
Y625666D01*
X-208337Y624000D01*
X-205005D01*
X-203339Y625666D01*
Y627332D01*
X-205005Y628998D01*
X-210003D01*
X-315153Y295150D02*
X-323484D01*
X-325150Y293484D01*
Y290152D01*
X-323484Y288486D01*
X-315153D01*
Y278489D02*
Y285153D01*
X-320152D01*
X-318486Y281821D01*
Y280155D01*
X-320152Y278489D01*
X-323484D01*
X-325150Y280155D01*
Y283487D01*
X-323484Y285153D01*
X-244799Y-109251D02*
Y-117582D01*
X-243133Y-119248D01*
X-239801D01*
X-238135Y-117582D01*
Y-109251D01*
X-229804Y-119248D02*
Y-109251D01*
X-234803Y-114249D01*
X-228138D01*
X-460000Y303954D02*
Y295624D01*
X-458334Y293958D01*
X-455002D01*
X-453336Y295624D01*
Y303954D01*
X-450003Y302288D02*
X-448337Y303954D01*
X-445005D01*
X-443339Y302288D01*
Y300622D01*
X-445005Y298956D01*
X-446671D01*
X-445005D01*
X-443339Y297290D01*
Y295624D01*
X-445005Y293958D01*
X-448337D01*
X-450003Y295624D01*
X-502782Y295689D02*
Y287358D01*
X-501116Y285692D01*
X-497784D01*
X-496117Y287358D01*
Y295689D01*
X-486121Y285692D02*
X-492785D01*
X-486121Y292357D01*
Y294023D01*
X-487787Y295689D01*
X-491119D01*
X-492785Y294023D01*
X-242497Y477997D02*
Y469666D01*
X-240831Y468000D01*
X-237499D01*
X-235833Y469666D01*
Y477997D01*
X-232500Y468000D02*
X-229168D01*
X-230834D01*
Y477997D01*
X-232500Y476331D01*
X-274000Y-467207D02*
X-264003D01*
Y-472206D01*
X-265669Y-473872D01*
X-269002D01*
X-270668Y-472206D01*
Y-467207D01*
Y-470540D02*
X-274000Y-473872D01*
Y-477204D02*
Y-480537D01*
Y-478870D01*
X-264003D01*
X-265669Y-477204D01*
X-274000Y-492199D02*
Y-485535D01*
X-267335Y-492199D01*
X-265669D01*
X-264003Y-490533D01*
Y-487201D01*
X-265669Y-485535D01*
X-295000Y-466958D02*
X-285003D01*
Y-471956D01*
X-286669Y-473622D01*
X-290002D01*
X-291668Y-471956D01*
Y-466958D01*
Y-470290D02*
X-295000Y-473622D01*
Y-476954D02*
Y-480286D01*
Y-478620D01*
X-285003D01*
X-286669Y-476954D01*
Y-485285D02*
X-285003Y-486951D01*
Y-490283D01*
X-286669Y-491949D01*
X-293334D01*
X-295000Y-490283D01*
Y-486951D01*
X-293334Y-485285D01*
X-286669D01*
X-319000Y-502250D02*
X-309003D01*
Y-507248D01*
X-310669Y-508914D01*
X-314002D01*
X-315668Y-507248D01*
Y-502250D01*
Y-505582D02*
X-319000Y-508914D01*
X-317334Y-512247D02*
X-319000Y-513913D01*
Y-517245D01*
X-317334Y-518911D01*
X-310669D01*
X-309003Y-517245D01*
Y-513913D01*
X-310669Y-512247D01*
X-312335D01*
X-314002Y-513913D01*
Y-518911D01*
X-89000Y543007D02*
Y553004D01*
X-84002D01*
X-82336Y551338D01*
Y548006D01*
X-84002Y546340D01*
X-89000D01*
X-85668D02*
X-82336Y543007D01*
X-79003Y551338D02*
X-77337Y553004D01*
X-74005D01*
X-72339Y551338D01*
Y549672D01*
X-74005Y548006D01*
X-72339Y546340D01*
Y544674D01*
X-74005Y543007D01*
X-77337D01*
X-79003Y544674D01*
Y546340D01*
X-77337Y548006D01*
X-79003Y549672D01*
Y551338D01*
X-77337Y548006D02*
X-74005D01*
X-89000Y571007D02*
Y581004D01*
X-84002D01*
X-82336Y579338D01*
Y576006D01*
X-84002Y574340D01*
X-89000D01*
X-85668D02*
X-82336Y571007D01*
X-72339Y581004D02*
X-75671Y579338D01*
X-79003Y576006D01*
Y572674D01*
X-77337Y571007D01*
X-74005D01*
X-72339Y572674D01*
Y574340D01*
X-74005Y576006D01*
X-79003D01*
X-89000Y598007D02*
Y608004D01*
X-84002D01*
X-82336Y606338D01*
Y603006D01*
X-84002Y601340D01*
X-89000D01*
X-85668D02*
X-82336Y598007D01*
X-72339Y608004D02*
X-79003D01*
Y603006D01*
X-75671Y604672D01*
X-74005D01*
X-72339Y603006D01*
Y599674D01*
X-74005Y598007D01*
X-77337D01*
X-79003Y599674D01*
X-375000Y440750D02*
X-384997D01*
Y445748D01*
X-383331Y447415D01*
X-379998D01*
X-378332Y445748D01*
Y440750D01*
Y444082D02*
X-375000Y447415D01*
Y455745D02*
X-384997D01*
X-379998Y450747D01*
Y457411D01*
X-412000Y440750D02*
X-421997D01*
Y445748D01*
X-420331Y447415D01*
X-416998D01*
X-415332Y445748D01*
Y440750D01*
Y444082D02*
X-412000Y447415D01*
Y457411D02*
Y450747D01*
X-418665Y457411D01*
X-420331D01*
X-421997Y455745D01*
Y452413D01*
X-420331Y450747D01*
X-448000Y442750D02*
X-457997D01*
Y447748D01*
X-456331Y449414D01*
X-452998D01*
X-451332Y447748D01*
Y442750D01*
Y446082D02*
X-448000Y449414D01*
Y452747D02*
Y456079D01*
Y454413D01*
X-457997D01*
X-456331Y452747D01*
X-235159Y-336082D02*
Y-329417D01*
X-236825Y-327751D01*
X-240158D01*
X-241824Y-329417D01*
Y-336082D01*
X-240158Y-337748D01*
X-236825D01*
X-238491Y-334416D02*
X-235159Y-337748D01*
X-236825D02*
X-235159Y-336082D01*
X-231827Y-329417D02*
X-230161Y-327751D01*
X-226829D01*
X-225163Y-329417D01*
Y-331084D01*
X-226829Y-332750D01*
X-228495D01*
X-226829D01*
X-225163Y-334416D01*
Y-336082D01*
X-226829Y-337748D01*
X-230161D01*
X-231827Y-336082D01*
X-72336Y445666D02*
Y452331D01*
X-74002Y453997D01*
X-77334D01*
X-79000Y452331D01*
Y445666D01*
X-77334Y444000D01*
X-74002D01*
X-75668Y447332D02*
X-72336Y444000D01*
X-74002D02*
X-72336Y445666D01*
X-62339Y444000D02*
X-69003D01*
X-62339Y450664D01*
Y452331D01*
X-64005Y453997D01*
X-67337D01*
X-69003Y452331D01*
X-315336Y445666D02*
Y452331D01*
X-317002Y453997D01*
X-320334D01*
X-322000Y452331D01*
Y445666D01*
X-320334Y444000D01*
X-317002D01*
X-318668Y447332D02*
X-315336Y444000D01*
X-317002D02*
X-315336Y445666D01*
X-312003Y444000D02*
X-308671D01*
X-310337D01*
Y453997D01*
X-312003Y452331D01*
X-309000Y110000D02*
Y119997D01*
X-304002D01*
X-302335Y118331D01*
Y114998D01*
X-304002Y113332D01*
X-309000D01*
X-299003Y118331D02*
X-297337Y119997D01*
X-294005D01*
X-292339Y118331D01*
Y116664D01*
X-294005Y114998D01*
X-295671D01*
X-294005D01*
X-292339Y113332D01*
Y111666D01*
X-294005Y110000D01*
X-297337D01*
X-299003Y111666D01*
X-99000Y-120000D02*
Y-110003D01*
X-94002D01*
X-92336Y-111669D01*
Y-115002D01*
X-94002Y-116668D01*
X-99000D01*
X-82339Y-120000D02*
X-89003D01*
X-82339Y-113336D01*
Y-111669D01*
X-84005Y-110003D01*
X-87337D01*
X-89003Y-111669D01*
X-93250Y279352D02*
Y289349D01*
X-88252D01*
X-86586Y287683D01*
Y284351D01*
X-88252Y282684D01*
X-93250D01*
X-83254Y279352D02*
X-79921D01*
X-81587D01*
Y289349D01*
X-83254Y287683D01*
X-191336Y518331D02*
X-193002Y519997D01*
X-196334D01*
X-198000Y518331D01*
Y511666D01*
X-196334Y510000D01*
X-193002D01*
X-191336Y511666D01*
X-181339Y510000D02*
X-188003D01*
X-181339Y516665D01*
Y518331D01*
X-183005Y519997D01*
X-186337D01*
X-188003Y518331D01*
X-265336Y519331D02*
X-267002Y520997D01*
X-270334D01*
X-272000Y519331D01*
Y512666D01*
X-270334Y511000D01*
X-267002D01*
X-265336Y512666D01*
X-262003Y511000D02*
X-258671D01*
X-260337D01*
Y520997D01*
X-262003Y519331D01*
X-309360Y-262067D02*
X-312692D01*
X-311026D01*
Y-252070D01*
X-309360D01*
X-312692D01*
X-317691D02*
Y-262067D01*
X-324355Y-252070D01*
Y-262067D01*
X-327687D02*
X-334352D01*
X-331020D01*
Y-252070D01*
X-344349D02*
X-337684D01*
X-344349Y-258734D01*
Y-260401D01*
X-342683Y-262067D01*
X-339350D01*
X-337684Y-260401D01*
X-309360Y-236667D02*
X-312692D01*
X-311026D01*
Y-226670D01*
X-309360D01*
X-312692D01*
X-317691D02*
Y-236667D01*
X-324355Y-226670D01*
Y-236667D01*
X-327687D02*
X-334352D01*
X-331020D01*
Y-226670D01*
X-337684D02*
X-341017D01*
X-339350D01*
Y-236667D01*
X-337684Y-235001D01*
X-316024Y-184201D02*
X-314358Y-185867D01*
X-311026D01*
X-309360Y-184201D01*
Y-182535D01*
X-311026Y-180868D01*
X-314358D01*
X-316024Y-179202D01*
Y-177536D01*
X-314358Y-175870D01*
X-311026D01*
X-309360Y-177536D01*
X-326021Y-184201D02*
X-324355Y-185867D01*
X-321023D01*
X-319357Y-184201D01*
Y-177536D01*
X-321023Y-175870D01*
X-324355D01*
X-326021Y-177536D01*
X-329354Y-185867D02*
Y-175870D01*
X-336018D01*
X-316024Y-209601D02*
X-314358Y-211267D01*
X-311026D01*
X-309360Y-209601D01*
Y-207934D01*
X-311026Y-206268D01*
X-314358D01*
X-316024Y-204602D01*
Y-202936D01*
X-314358Y-201270D01*
X-311026D01*
X-309360Y-202936D01*
X-319357Y-211267D02*
Y-201270D01*
X-324355D01*
X-326021Y-202936D01*
Y-209601D01*
X-324355Y-211267D01*
X-319357D01*
X-329354Y-201270D02*
Y-207934D01*
X-332686Y-211267D01*
X-336018Y-207934D01*
Y-201270D01*
Y-206268D01*
X-329354D01*
X-309360Y-160467D02*
Y-153802D01*
X-312692Y-150470D01*
X-316024Y-153802D01*
Y-160467D01*
X-326021Y-158801D02*
X-324355Y-160467D01*
X-321023D01*
X-319357Y-158801D01*
Y-152136D01*
X-321023Y-150470D01*
X-324355D01*
X-326021Y-152136D01*
X-336018Y-158801D02*
X-334352Y-160467D01*
X-331020D01*
X-329354Y-158801D01*
Y-152136D01*
X-331020Y-150470D01*
X-334352D01*
X-336018Y-152136D01*
X-316024Y-133401D02*
X-314358Y-135067D01*
X-311026D01*
X-309360Y-133401D01*
Y-126736D01*
X-311026Y-125070D01*
X-314358D01*
X-316024Y-126736D01*
Y-130068D01*
X-312692D01*
X-319357Y-125070D02*
Y-135067D01*
X-326021Y-125070D01*
Y-135067D01*
X-329354D02*
Y-125070D01*
X-334352D01*
X-336018Y-126736D01*
Y-133401D01*
X-334352Y-135067D01*
X-329354D01*
X-273640Y284067D02*
X-270308D01*
X-271974D01*
Y274070D01*
X-273640D01*
X-270308D01*
X-265309D02*
Y284067D01*
X-258645Y274070D01*
Y284067D01*
X-255313D02*
X-248648D01*
X-251980D01*
Y274070D01*
X-238651D02*
X-245316D01*
X-238651Y280735D01*
Y282401D01*
X-240317Y284067D01*
X-243650D01*
X-245316Y282401D01*
X-273640Y258667D02*
X-270308D01*
X-271974D01*
Y248670D01*
X-273640D01*
X-270308D01*
X-265309D02*
Y258667D01*
X-258645Y248670D01*
Y258667D01*
X-255313D02*
X-248648D01*
X-251980D01*
Y248670D01*
X-245316D02*
X-241984D01*
X-243650D01*
Y258667D01*
X-245316Y257001D01*
X-266975Y206201D02*
X-268642Y207867D01*
X-271974D01*
X-273640Y206201D01*
Y204534D01*
X-271974Y202868D01*
X-268642D01*
X-266975Y201202D01*
Y199536D01*
X-268642Y197870D01*
X-271974D01*
X-273640Y199536D01*
X-256979Y206201D02*
X-258645Y207867D01*
X-261977D01*
X-263643Y206201D01*
Y199536D01*
X-261977Y197870D01*
X-258645D01*
X-256979Y199536D01*
X-253646Y207867D02*
Y197870D01*
X-246982D01*
X-266975Y231601D02*
X-268642Y233267D01*
X-271974D01*
X-273640Y231601D01*
Y229935D01*
X-271974Y228268D01*
X-268642D01*
X-266975Y226602D01*
Y224936D01*
X-268642Y223270D01*
X-271974D01*
X-273640Y224936D01*
X-263643Y233267D02*
Y223270D01*
X-258645D01*
X-256979Y224936D01*
Y231601D01*
X-258645Y233267D01*
X-263643D01*
X-253646Y223270D02*
Y229935D01*
X-250314Y233267D01*
X-246982Y229935D01*
Y223270D01*
Y228268D01*
X-253646D01*
X-273640Y182467D02*
Y175802D01*
X-270308Y172470D01*
X-266975Y175802D01*
Y182467D01*
X-256979Y180801D02*
X-258645Y182467D01*
X-261977D01*
X-263643Y180801D01*
Y174136D01*
X-261977Y172470D01*
X-258645D01*
X-256979Y174136D01*
X-246982Y180801D02*
X-248648Y182467D01*
X-251980D01*
X-253646Y180801D01*
Y174136D01*
X-251980Y172470D01*
X-248648D01*
X-246982Y174136D01*
X-266975Y155401D02*
X-268642Y157067D01*
X-271974D01*
X-273640Y155401D01*
Y148736D01*
X-271974Y147070D01*
X-268642D01*
X-266975Y148736D01*
Y152068D01*
X-270308D01*
X-263643Y147070D02*
Y157067D01*
X-256979Y147070D01*
Y157067D01*
X-253646D02*
Y147070D01*
X-248648D01*
X-246982Y148736D01*
Y155401D01*
X-248648Y157067D01*
X-253646D01*
D33*
X-427500Y252200D02*
Y264900D01*
X-503700D02*
X-427500D01*
X-503700Y-90700D02*
Y264900D01*
Y-90700D02*
X-325900D01*
Y264900D01*
X-402100D02*
X-325900D01*
X-402100Y252200D02*
Y264900D01*
X-427500Y252200D02*
X-402100D01*
M02*
