G04 Layer_Physical_Order=2*
G04 Layer_Color=16711680*
%FSLAX44Y44*%
%MOMM*%
G71*
G01*
G75*
%ADD23C,0.2500*%
%ADD24C,1.6000*%
%ADD25C,4.5000*%
%ADD26C,1.8796*%
%ADD27C,3.3020*%
%ADD28R,1.8796X1.8796*%
%ADD29C,1.4478*%
%ADD30C,0.6000*%
D23*
X-230211Y-273265D02*
X-89800Y-132854D01*
X-165470Y-386324D02*
X-64400Y-285254D01*
X-246346Y-391000D02*
X-140600Y-285254D01*
X-267600Y-201897D02*
Y-132854D01*
X-238114Y-255768D02*
X-115200Y-132854D01*
X-330704Y-170558D02*
X-293000Y-132854D01*
X-178170Y-145024D02*
X-166000Y-132854D01*
X-51976Y-119878D02*
X-39000Y-132854D01*
X-216800Y-288760D02*
Y-285254D01*
X-230211Y-290220D02*
Y-273265D01*
X-255000Y-315009D02*
X-230211Y-290220D01*
X-255000Y-316000D02*
Y-315009D01*
X-251790Y-323750D02*
X-216800Y-288760D01*
X-272852Y-309108D02*
X-258210Y-323750D01*
X-350512Y-309108D02*
X-272852D01*
X-258210Y-323750D02*
X-251790D01*
X-445624Y-297424D02*
X-312920D01*
X-463000Y-314800D02*
X-445624Y-297424D01*
X-463000Y-467200D02*
X-405800Y-410000D01*
X-477258Y-452942D02*
X-463000Y-467200D01*
X-405800Y-410000D02*
X-325000D01*
X-290150Y202950D02*
X-162000Y74800D01*
X-197858Y84338D02*
X-168000Y54480D01*
X-162000Y-5368D02*
Y74800D01*
Y-5368D02*
X-55110Y-112258D01*
X-168000Y-31000D02*
Y54480D01*
X-322200Y235000D02*
X-290150Y202950D01*
X-444000Y235000D02*
X-322200D01*
X-463400Y254400D02*
X-444000Y235000D01*
X-101000Y559838D02*
Y561000D01*
X-206676Y454162D02*
X-101000Y559838D01*
X-255586Y-28000D02*
X-230000D01*
X-412000D02*
X-255586D01*
X-153786Y-247640D02*
X-57520Y-151374D01*
X-176522Y103388D02*
X-106418Y173492D01*
X-302506Y454162D02*
X-206676D01*
X-477766Y278902D02*
X-302506Y454162D01*
X-477766Y220736D02*
Y278902D01*
Y220736D02*
X-358640Y101610D01*
Y48270D02*
Y101610D01*
X-375150Y31760D02*
X-358640Y48270D01*
X-430014Y31760D02*
X-375150D01*
X-438904Y22870D02*
X-430014Y31760D01*
X-438904Y-1096D02*
Y22870D01*
Y-1096D02*
X-426000Y-14000D01*
X-412000Y-28000D01*
X-298950Y-71364D02*
X-255586Y-28000D01*
X-426000Y16000D02*
X-214000D01*
X-200000Y2000D01*
X-171000Y-586000D02*
X-74155D01*
X-69443Y-581287D01*
X-479798Y-103876D02*
X-259888D01*
X-243886Y-119878D01*
X-51976D01*
X-487672Y1528D02*
X-387200Y102000D01*
X-487672Y-110988D02*
Y1528D01*
Y-110988D02*
X-484370Y-114290D01*
X-433062D01*
X-429760Y-110988D01*
X-271996D01*
X-255516Y-127469D01*
Y-139055D02*
Y-127469D01*
Y-139055D02*
X-249547Y-145024D01*
X-178170D01*
X-293338Y84338D02*
X-197858D01*
X-387200Y178200D02*
X-293338Y84338D01*
X-312327Y-246624D02*
X-267600Y-201897D01*
X-358956Y-246624D02*
X-312327D01*
X-364482Y-252150D02*
X-358956Y-246624D01*
X-415850Y-252150D02*
X-364482D01*
X-438000Y254400D02*
X-409688Y282712D01*
X-344512D01*
X-290150Y228350D01*
X-386800Y-467200D02*
X-282036D01*
X-128516Y-313680D01*
Y-254244D01*
X-135120Y-247640D02*
X-128516Y-254244D01*
X-153786Y-247640D02*
X-135120D01*
X-191400Y-285254D02*
X-153786Y-247640D01*
X-463000Y-391000D02*
X-246346D01*
X-290150Y279150D02*
X-245102Y234102D01*
Y183398D02*
Y234102D01*
X-304538Y268138D02*
X-290150Y253750D01*
X-304538Y268138D02*
Y289570D01*
X-300728Y293380D01*
X-276090D01*
X-173474Y190764D01*
X-119626D01*
X-89800Y-285254D02*
X-51808Y-247262D01*
X-174490Y-394198D02*
X-116070D01*
X-74922Y-353050D01*
X-415850Y-175949D02*
X-360540Y-120640D01*
X-287520D01*
X-280916Y-127244D01*
Y-153406D02*
Y-127244D01*
X-309110Y-181600D02*
X-280916Y-153406D01*
X-309110Y-224272D02*
Y-181600D01*
X-430014Y-215514D02*
X-415850Y-201350D01*
X-430014Y-263388D02*
Y-215514D01*
Y-263388D02*
X-420870Y-272532D01*
X-322318D01*
X-278630Y-228844D01*
X-415850Y-226749D02*
X-355846D01*
X-350829Y-221732D01*
X-338320D01*
X-330704Y-214116D01*
Y-170558D01*
X-477258Y-452942D02*
Y-186558D01*
X-415850Y-125149D01*
X-314698Y504708D02*
X-283456Y535950D01*
X-222242D01*
X-358848Y220848D02*
X-290150Y152150D01*
X-387200Y220848D02*
X-358848D01*
X-312920Y-297424D02*
X-306062Y-290566D01*
Y-269230D01*
X-292600Y-255768D01*
X-238114D01*
X-55110Y-112258D02*
X-39870D01*
X-26916Y-125212D01*
Y-138420D02*
Y-125212D01*
X-39870Y-151374D02*
X-26916Y-138420D01*
X-57520Y-151374D02*
X-39870D01*
X-259424Y-497576D02*
X-171000Y-586000D01*
X-280000Y-497576D02*
X-259424D01*
X-437600Y-467200D02*
X-421194Y-483606D01*
X-282440D01*
X-185158Y-386324D01*
X-165470D01*
X-56000Y231000D02*
Y244358D01*
X-86352D02*
X-56000D01*
X-144264Y302270D02*
X-86352Y244358D01*
X-56000Y201000D02*
Y204988D01*
X-156202D02*
X-56000D01*
X-176522Y225308D02*
X-156202Y204988D01*
X-176522Y225308D02*
Y462544D01*
X-230000Y32000D02*
X-200000D01*
D24*
X-171000Y-586000D02*
D03*
X-201000D02*
D03*
X-426000Y16000D02*
D03*
Y-14000D02*
D03*
X-56000Y231000D02*
D03*
Y201000D02*
D03*
X-230000Y62000D02*
D03*
X-200000D02*
D03*
Y32000D02*
D03*
X-230000D02*
D03*
Y-28000D02*
D03*
X-200000D02*
D03*
Y2000D02*
D03*
X-230000D02*
D03*
D25*
X-82000Y656000D02*
D03*
X-83000Y-652000D02*
D03*
X-644000Y-93000D02*
D03*
Y97000D02*
D03*
D26*
X-415850Y-125149D02*
D03*
Y-150549D02*
D03*
Y-175949D02*
D03*
Y-201350D02*
D03*
Y-226749D02*
D03*
Y-252150D02*
D03*
X-463000Y-416400D02*
D03*
Y-391000D02*
D03*
Y-365600D02*
D03*
Y-467200D02*
D03*
X-437600D02*
D03*
X-412200D02*
D03*
X-463000Y-314800D02*
D03*
X-437600D02*
D03*
X-412200D02*
D03*
X-290150Y152150D02*
D03*
Y177550D02*
D03*
Y202950D02*
D03*
Y228350D02*
D03*
Y253750D02*
D03*
Y279150D02*
D03*
X-387200Y203600D02*
D03*
Y178200D02*
D03*
Y152800D02*
D03*
Y254400D02*
D03*
X-412600D02*
D03*
X-438000D02*
D03*
X-387200Y102000D02*
D03*
X-412600D02*
D03*
X-438000D02*
D03*
D27*
X-555550Y-239450D02*
D03*
Y-137850D02*
D03*
X-150450Y266450D02*
D03*
Y164850D02*
D03*
D28*
X-386800Y-467200D02*
D03*
Y-314800D02*
D03*
X-463400Y254400D02*
D03*
Y102000D02*
D03*
D29*
X-13600Y-132854D02*
D03*
X-39000D02*
D03*
X-64400D02*
D03*
X-89800D02*
D03*
X-115200D02*
D03*
X-140600D02*
D03*
X-166000D02*
D03*
X-191400D02*
D03*
X-216800D02*
D03*
X-242200D02*
D03*
X-267600D02*
D03*
X-293000D02*
D03*
X-318400D02*
D03*
X-343800D02*
D03*
Y-158254D02*
D03*
Y-183654D02*
D03*
Y-209054D02*
D03*
Y-234454D02*
D03*
Y-259854D02*
D03*
Y-285254D02*
D03*
X-318400D02*
D03*
X-293000D02*
D03*
X-267600D02*
D03*
X-242200D02*
D03*
X-216800D02*
D03*
X-191400D02*
D03*
X-166000D02*
D03*
X-140600D02*
D03*
X-115200D02*
D03*
X-89800D02*
D03*
X-64400D02*
D03*
X-39000D02*
D03*
X-13600D02*
D03*
X-39000Y-259854D02*
D03*
X-89800D02*
D03*
X-115200D02*
D03*
X-140600D02*
D03*
D30*
X-255000Y-316000D02*
D03*
X-325000Y-410000D02*
D03*
X-168000Y-31000D02*
D03*
X-101000Y561000D02*
D03*
X-106418Y173492D02*
D03*
X-176522Y103388D02*
D03*
X-298950Y-71364D02*
D03*
X-69443Y-581287D02*
D03*
X-479798Y-103876D02*
D03*
X-350512Y-309108D02*
D03*
X-245102Y183398D02*
D03*
X-119626Y190764D02*
D03*
X-51808Y-247262D02*
D03*
X-174490Y-394198D02*
D03*
X-74922Y-353050D02*
D03*
X-309110Y-224272D02*
D03*
X-278630Y-228844D02*
D03*
X-314698Y504708D02*
D03*
X-222242Y535950D02*
D03*
X-387200Y220848D02*
D03*
X-280000Y-497576D02*
D03*
X-144264Y302270D02*
D03*
X-176522Y462544D02*
D03*
M02*
