M48
;Layer_Color=9474304
;FILE_FORMAT=4:4
METRIC,LZ
;TYPE=PLATED
T1F00S00C0.4000
T2F00S00C0.9652
T3F00S00C1.0160
T4F00S00C1.0500
T5F00S00C1.2700
T6F00S00C3.3020
T7F00S00C3.5000
%
T01
X-00560316Y-00231638
X-00546092Y-00205984
X-0040944Y-0006476
X-00420108Y-00053838
X-00105148Y00305318
X-00192497Y00301227
X-00213352Y00181112
X-00333494Y00226324
X-00376142Y00217942
X-00382262Y00305572
X-00485817Y00313523
X-00406Y00459
X-00177538Y00472196
X-0005384Y00490992
X-00121658Y0055881
T02
X-003438Y-00285254
Y-00259854
Y-00234454
Y-00209054
Y-00183654
Y-00158254
Y-00132854
X-003184
X-00293
X-002676
X-002422
X-002168
X-001914
X-00166
X-001406
Y-00259854
Y-00285254
X-00166
X-001914
X-002168
X-002422
X-002676
X-00293
X-003184
X-001152
X-000898
X-000644
X-00039
X-000136
X-00039Y-00259854
X-000898
X-001152
Y-00132854
X-000898
X-000644
X-00039
X-000136
T03
X-004634Y00102
X-00438
X-004126
X-003872
Y001528
Y001782
Y002036
Y002544
X-004126
X-00438
X-004634
X-0029015Y0025375
Y0022835
Y0020295
Y0017755
Y0015215
Y0027915
T04
X-00056Y00201
Y00231
X-002Y00062
X-0023
Y00032
X-002
Y00002
Y-00028
X-0023
Y00002
X-00332
Y00032
X-00433Y00025
X-00463
T05
X-00245Y-00073
X-00036Y00171
Y00261
X-00245Y00107
X-00312Y00062
Y-00028
X-00403Y00045
X-00493
T06
X-0015045Y0016485
Y0026645
T07
X-00644Y-00093
Y00097
X-00082Y00656
M30
