M48
;Layer_Color=9474304
;FILE_FORMAT=4:4
METRIC,LZ
;TYPE=PLATED
T1F00S00C0.4000
T2F00S00C0.9652
T3F00S00C1.0160
T4F00S00C1.0500
T5F00S00C1.2700
T6F00S00C3.3020
T7F00S00C3.5000
%
T01
X-0030149Y-00455458
Y-00363464
X-00307764Y-002816
X-002144Y-00335016
X-0015671Y-0040512
X-0018719Y-0010241
X-0021386Y-00088382
X-00259326Y-00054092
X-00084477Y-00280563
X-00087622Y0009399
X-00070858Y00169174
X-00192497Y00297952
X-00174998Y00441989
X-00177792Y00452892
X-00266036Y00514
X-00372864Y00407172
T02
X-00491Y-00078
X-004656
X-004402
X-004148
X-003894
X-00364
X-003386
Y-000526
X-00491
Y-000272
Y-000018
Y000236
Y00049
Y000744
Y000998
Y001252
Y001506
Y00176
Y002014
Y002268
Y002522
X-00364Y002268
X-003386
Y002522
Y002014
Y00176
X-00364
Y001506
Y001252
X-003386
Y001506
Y000998
Y000744
Y00049
Y000236
Y-000018
Y-000272
T03
X-004352Y-004724
X-004098
X-003844
X-00359
X-005412Y-002816
X-005666
X-00592
Y-002308
Y-002054
Y-0018
Y-001292
X-005666
X-005412
X-005158
Y-002816
X-004352Y-0032
X-004098
X-003844
X-00359
X-004352Y-003708
Y-003962
Y-004216
X-0029285Y-0025715
Y-0023175
Y-0020635
Y-0018095
Y-0015555
Y-0013015
X-002222Y-001438
X-001968
X-001714
X-00146
Y-001946
Y-0022
Y-002454
Y-002962
X-001714
X-001968
X-002222
X-0029015Y0015215
Y0017755
Y0020295
Y0022835
Y0025375
Y0027915
T04
X-00063Y-00199
Y-00169
X-00056Y00201
Y00231
X-002Y00062
X-0023
Y00032
Y00002
X-002
Y-00028
X-0023
X-002Y00032
T05
X-00245Y-00073
X-00043Y-00139
Y-00229
X-00036Y00171
Y00261
X-00245Y00107
T06
X-0043255Y-0024445
Y-0014285
X-0015045Y0016485
Y0026645
T07
X-00083Y-00652
X-00644Y-00093
Y00097
X-00082Y00656
M30
