G04 Layer_Color=8388736*
%FSLAX44Y44*%
%MOMM*%
G71*
G01*
G75*
%ADD42R,1.1500X1.0000*%
%ADD43R,1.9018X1.1398*%
%ADD44R,7.9216X6.8548*%
%ADD45R,1.1144X1.0128*%
%ADD46R,1.4192X0.7080*%
%ADD47R,1.0000X1.1500*%
%ADD48R,4.3500X1.6000*%
%ADD49R,7.6000X10.6000*%
%ADD50R,1.0128X1.1144*%
%ADD51R,1.4700X0.9620*%
%ADD52R,2.7400X2.8700*%
%ADD53R,10.6000X7.6000*%
%ADD54R,1.6000X4.3500*%
%ADD55R,1.1906X4.1116*%
%ADD56R,10.6394X11.6554*%
%ADD57R,2.1000X1.9800*%
%ADD58R,4.1116X1.1906*%
%ADD59R,11.6554X10.6394*%
%ADD60R,1.3600X2.7500*%
%ADD61C,3.5020*%
%ADD62C,2.0796*%
%ADD63C,0.2000*%
%ADD64C,1.8000*%
%ADD65C,4.7000*%
%ADD66R,2.0796X2.0796*%
%ADD67C,1.6478*%
D42*
X-195000Y201250D02*
D03*
Y214750D02*
D03*
D43*
X-311650Y345500D02*
D03*
Y300500D02*
D03*
D44*
X-250563Y323000D02*
D03*
D45*
X-340563Y294524D02*
D03*
Y307477D02*
D03*
Y339000D02*
D03*
Y351954D02*
D03*
D46*
X-272000Y240500D02*
D03*
Y250000D02*
D03*
Y259501D02*
D03*
X-294860D02*
D03*
Y250000D02*
D03*
Y240500D02*
D03*
D47*
X-240750Y234000D02*
D03*
X-227250D02*
D03*
X-326000Y232000D02*
D03*
X-339500D02*
D03*
X-241500Y264000D02*
D03*
X-228000D02*
D03*
X-326000Y252000D02*
D03*
X-339500D02*
D03*
X-154000Y-216000D02*
D03*
X-167500D02*
D03*
X-167000Y-243000D02*
D03*
X-153500D02*
D03*
X-153250Y-269000D02*
D03*
X-166750D02*
D03*
X-30500Y-319000D02*
D03*
X-44000D02*
D03*
X-43750Y-344000D02*
D03*
X-30250D02*
D03*
X-30250Y-369000D02*
D03*
X-43750D02*
D03*
X-154500Y-125000D02*
D03*
X-168000D02*
D03*
Y-151000D02*
D03*
X-154500D02*
D03*
Y-175000D02*
D03*
X-168000D02*
D03*
D48*
X-233500Y132600D02*
D03*
Y183400D02*
D03*
X-158000Y-427200D02*
D03*
Y-478000D02*
D03*
D49*
X-342500Y158000D02*
D03*
X-267000Y-452600D02*
D03*
D50*
X-339477Y272000D02*
D03*
X-326523D02*
D03*
X-336000Y-300000D02*
D03*
X-348954D02*
D03*
X-414000D02*
D03*
X-401046D02*
D03*
X-116477Y-607000D02*
D03*
X-103523D02*
D03*
X-113477Y-485000D02*
D03*
X-100523D02*
D03*
D51*
X-108000Y-410500D02*
D03*
D52*
Y-434000D02*
D03*
D53*
X-58000Y-159500D02*
D03*
X-496000Y-152671D02*
D03*
D54*
X-32600Y-268500D02*
D03*
X-83400D02*
D03*
X-470600Y-261671D02*
D03*
X-521400D02*
D03*
D55*
X-348600Y-260773D02*
D03*
X-401400D02*
D03*
D56*
X-375000Y-172000D02*
D03*
D57*
X-292043Y-218600D02*
D03*
X-192042Y-244000D02*
D03*
X-292043Y-269400D02*
D03*
X-192042Y-218600D02*
D03*
Y-269400D02*
D03*
X-292043Y-244000D02*
D03*
X-169000Y-318600D02*
D03*
X-69000Y-344000D02*
D03*
X-169000Y-369400D02*
D03*
X-69000Y-318600D02*
D03*
Y-369400D02*
D03*
X-169000Y-344000D02*
D03*
X-291999Y-124969D02*
D03*
X-192000Y-150369D02*
D03*
X-291999Y-175769D02*
D03*
X-192000Y-124969D02*
D03*
Y-175769D02*
D03*
X-291999Y-150369D02*
D03*
D58*
X-157227Y-553600D02*
D03*
Y-606400D02*
D03*
D59*
X-246000Y-580000D02*
D03*
D60*
X-399000Y-15050D02*
D03*
X-373600D02*
D03*
X-399000Y38350D02*
D03*
X-373600D02*
D03*
X-348200D02*
D03*
X-322800D02*
D03*
X-297400D02*
D03*
X-272000D02*
D03*
X-348200Y-15050D02*
D03*
X-322800D02*
D03*
X-297400D02*
D03*
X-272000D02*
D03*
X-246600Y38350D02*
D03*
Y-15050D02*
D03*
D61*
X-145000Y168000D02*
D03*
X-43400D02*
D03*
X-649550Y234150D02*
D03*
Y132550D02*
D03*
D62*
X-30700Y307700D02*
D03*
X-56100D02*
D03*
X-81500D02*
D03*
X-106900D02*
D03*
X-132300D02*
D03*
X-157700D02*
D03*
X-626000Y-285000D02*
D03*
X-600600D02*
D03*
X-575200D02*
D03*
X-626000Y-132600D02*
D03*
X-600600D02*
D03*
X-575200D02*
D03*
Y-234200D02*
D03*
Y-208800D02*
D03*
Y-183400D02*
D03*
X-509850Y119850D02*
D03*
Y145250D02*
D03*
Y170650D02*
D03*
Y196050D02*
D03*
Y221450D02*
D03*
Y246850D02*
D03*
D63*
X-511000Y332000D02*
D03*
X-601000D02*
D03*
X-416000Y113000D02*
D03*
Y203000D02*
D03*
X-454957Y335000D02*
D03*
Y245000D02*
D03*
X-71000Y-509000D02*
D03*
Y-419000D02*
D03*
X-327000Y-528000D02*
D03*
X-417000D02*
D03*
X-512000Y-408000D02*
D03*
X-332000D02*
D03*
X-294000Y-318000D02*
D03*
X-204000D02*
D03*
D64*
X-571000Y312000D02*
D03*
X-541000D02*
D03*
X-456000Y173000D02*
D03*
X-426000Y143000D02*
D03*
Y173000D02*
D03*
X-456000Y143000D02*
D03*
X-414958Y275000D02*
D03*
X-444957Y305000D02*
D03*
Y275000D02*
D03*
X-414958Y305000D02*
D03*
X-51000Y-449000D02*
D03*
Y-479000D02*
D03*
X-387000Y-508000D02*
D03*
X-357000D02*
D03*
X-407000Y-393000D02*
D03*
Y-363000D02*
D03*
X-377000D02*
D03*
Y-393000D02*
D03*
X-437000D02*
D03*
Y-363000D02*
D03*
X-467000D02*
D03*
Y-393000D02*
D03*
X-234000Y-338000D02*
D03*
X-264000D02*
D03*
D65*
X-205000Y498000D02*
D03*
X-115000Y-705000D02*
D03*
X-605000Y-352000D02*
D03*
D66*
X-651400Y-285000D02*
D03*
Y-132600D02*
D03*
D67*
X-424400Y50000D02*
D03*
X-449800D02*
D03*
X-475200D02*
D03*
X-526000D02*
D03*
X-551400Y75400D02*
D03*
X-526000D02*
D03*
X-500600D02*
D03*
X-475200D02*
D03*
X-449800D02*
D03*
X-424400D02*
D03*
X-399000D02*
D03*
X-373600D02*
D03*
X-348200D02*
D03*
X-322800D02*
D03*
X-297400D02*
D03*
X-272000D02*
D03*
X-246600D02*
D03*
X-221200D02*
D03*
Y50000D02*
D03*
Y24600D02*
D03*
Y-800D02*
D03*
Y-26200D02*
D03*
Y-51600D02*
D03*
Y-77000D02*
D03*
X-246600D02*
D03*
X-272000D02*
D03*
X-297400D02*
D03*
X-322800D02*
D03*
X-348200D02*
D03*
X-373600D02*
D03*
X-399000D02*
D03*
X-424400D02*
D03*
X-449800D02*
D03*
X-475200D02*
D03*
X-500600D02*
D03*
X-526000D02*
D03*
X-551400D02*
D03*
M02*
