G04 Layer_Color=16711935*
%FSLAX44Y44*%
%MOMM*%
G71*
G01*
G75*
%ADD45C,1.8000*%
%ADD46C,0.2000*%
%ADD47C,1.6478*%
%ADD48R,2.0796X2.0796*%
%ADD49C,2.0796*%
%ADD50C,3.5020*%
%ADD51C,4.7000*%
%ADD52C,0.8000*%
D45*
X-230000Y2000D02*
D03*
X-200000D02*
D03*
Y-28000D02*
D03*
X-230000D02*
D03*
Y32000D02*
D03*
X-200000D02*
D03*
Y62000D02*
D03*
X-230000D02*
D03*
X-56000Y201000D02*
D03*
Y231000D02*
D03*
X-63000Y-199000D02*
D03*
Y-169000D02*
D03*
D46*
X-245000Y107000D02*
D03*
Y-73000D02*
D03*
X-36000Y261000D02*
D03*
Y171000D02*
D03*
X-43000Y-139000D02*
D03*
Y-229000D02*
D03*
D47*
X-364000Y125200D02*
D03*
Y150600D02*
D03*
Y176000D02*
D03*
Y226800D02*
D03*
X-338600Y252200D02*
D03*
Y226800D02*
D03*
Y201400D02*
D03*
Y176000D02*
D03*
Y150600D02*
D03*
Y125200D02*
D03*
Y99800D02*
D03*
Y74400D02*
D03*
Y49000D02*
D03*
Y23600D02*
D03*
Y-1800D02*
D03*
Y-27200D02*
D03*
Y-52600D02*
D03*
Y-78000D02*
D03*
X-364000D02*
D03*
X-389400D02*
D03*
X-414800D02*
D03*
X-440200D02*
D03*
X-465600D02*
D03*
X-491000D02*
D03*
Y-52600D02*
D03*
Y-27200D02*
D03*
Y-1800D02*
D03*
Y23600D02*
D03*
Y49000D02*
D03*
Y74400D02*
D03*
Y99800D02*
D03*
Y125200D02*
D03*
Y150600D02*
D03*
Y176000D02*
D03*
Y201400D02*
D03*
Y226800D02*
D03*
Y252200D02*
D03*
D48*
X-222200Y-296200D02*
D03*
Y-143800D02*
D03*
X-515800Y-129200D02*
D03*
Y-281600D02*
D03*
X-359000Y-320000D02*
D03*
Y-472400D02*
D03*
D49*
X-196800Y-296200D02*
D03*
X-171400D02*
D03*
X-146000D02*
D03*
X-196800Y-143800D02*
D03*
X-171400D02*
D03*
X-146000D02*
D03*
Y-245400D02*
D03*
Y-220000D02*
D03*
Y-194600D02*
D03*
X-290150Y279150D02*
D03*
Y253750D02*
D03*
Y228350D02*
D03*
Y202950D02*
D03*
Y177550D02*
D03*
Y152150D02*
D03*
X-541200Y-129200D02*
D03*
X-566600D02*
D03*
X-592000D02*
D03*
X-541200Y-281600D02*
D03*
X-566600D02*
D03*
X-592000D02*
D03*
Y-180000D02*
D03*
Y-205400D02*
D03*
Y-230800D02*
D03*
X-292850Y-257150D02*
D03*
Y-231750D02*
D03*
Y-206350D02*
D03*
Y-180950D02*
D03*
Y-155550D02*
D03*
Y-130150D02*
D03*
X-384400Y-320000D02*
D03*
X-409800D02*
D03*
X-435200D02*
D03*
X-384400Y-472400D02*
D03*
X-409800D02*
D03*
X-435200D02*
D03*
Y-370800D02*
D03*
Y-396200D02*
D03*
Y-421600D02*
D03*
D50*
X-150450Y164850D02*
D03*
Y266450D02*
D03*
X-432550Y-142850D02*
D03*
Y-244450D02*
D03*
D51*
X-644000Y97000D02*
D03*
Y-93000D02*
D03*
X-83000Y-652000D02*
D03*
X-82000Y656000D02*
D03*
D52*
X-213860Y-88382D02*
D03*
X-177792Y452892D02*
D03*
X-301490Y-363464D02*
D03*
Y-455458D02*
D03*
X-266036Y514000D02*
D03*
X-372864Y407172D02*
D03*
X-192497Y297952D02*
D03*
X-214400Y-335016D02*
D03*
X-174998Y441989D02*
D03*
X-87622Y93990D02*
D03*
X-156710Y-405120D02*
D03*
X-84477Y-280563D02*
D03*
X-259326Y-54092D02*
D03*
X-187190Y-102410D02*
D03*
X-307764Y-281600D02*
D03*
X-70858Y169174D02*
D03*
M02*
