G04 Layer_Physical_Order=2*
G04 Layer_Color=16711680*
%FSLAX44Y44*%
%MOMM*%
G71*
G01*
G75*
%ADD29C,0.2500*%
%ADD30C,3.3020*%
%ADD31C,1.8796*%
%ADD32C,1.6000*%
%ADD33C,4.5000*%
%ADD34R,1.8796X1.8796*%
%ADD35C,1.4478*%
%ADD36C,0.6000*%
G36*
X-462016Y182249D02*
X-463845Y180846D01*
X-465608Y178548D01*
X-466717Y175872D01*
X-467095Y173000D01*
X-466717Y170129D01*
X-465608Y167453D01*
X-463845Y165155D01*
X-462016Y163752D01*
Y152248D01*
X-463147Y151381D01*
X-464417Y152007D01*
Y154750D01*
X-464746Y156408D01*
X-465686Y157814D01*
X-481586Y173714D01*
X-482992Y174654D01*
X-484650Y174984D01*
X-498226D01*
X-499021Y176903D01*
X-501008Y179493D01*
X-503598Y181480D01*
X-506614Y182729D01*
Y183971D01*
X-503598Y185221D01*
X-501008Y187208D01*
X-499021Y189798D01*
X-497771Y192814D01*
X-497345Y196050D01*
X-497771Y199287D01*
X-499021Y202303D01*
X-501008Y204893D01*
X-503598Y206880D01*
X-506614Y208129D01*
Y209371D01*
X-503598Y210621D01*
X-501008Y212608D01*
X-499021Y215198D01*
X-498226Y217117D01*
X-462016D01*
Y182249D01*
D02*
G37*
G36*
X-473083Y152955D02*
Y140871D01*
X-474256Y140384D01*
X-482186Y148314D01*
X-483592Y149254D01*
X-485250Y149584D01*
X-498226D01*
X-499021Y151503D01*
X-501008Y154093D01*
X-503598Y156080D01*
X-506614Y157329D01*
Y158571D01*
X-503598Y159821D01*
X-501008Y161808D01*
X-499021Y164398D01*
X-498226Y166317D01*
X-486445D01*
X-473083Y152955D01*
D02*
G37*
G36*
X-9082Y108596D02*
X-15466Y107969D01*
X-15948Y107857D01*
X-16442Y107825D01*
X-25941Y105941D01*
X-26410Y105783D01*
X-26899Y105702D01*
X-36169Y102900D01*
X-36620Y102696D01*
X-37098Y102569D01*
X-46050Y98874D01*
X-46479Y98626D01*
X-46943Y98453D01*
X-55490Y93901D01*
X-55893Y93613D01*
X-56338Y93395D01*
X-64400Y88030D01*
X-64773Y87704D01*
X-65194Y87444D01*
X-72693Y81316D01*
X-73032Y80955D01*
X-73426Y80655D01*
X-80290Y73824D01*
X-80593Y73432D01*
X-80955Y73095D01*
X-87120Y65626D01*
X-87382Y65206D01*
X-87710Y64835D01*
X-93115Y56799D01*
X-93335Y56356D01*
X-93625Y55955D01*
X-98219Y47429D01*
X-98395Y46967D01*
X-98644Y46539D01*
X-102384Y37605D01*
X-102514Y37128D01*
X-102720Y36678D01*
X-105568Y27422D01*
X-105651Y26934D01*
X-105812Y26466D01*
X-107742Y16976D01*
X-107777Y16482D01*
X-107892Y16000D01*
X-108885Y6367D01*
X-108871Y5872D01*
X-108939Y5382D01*
X-108987Y-4303D01*
X-108924Y-4794D01*
X-108943Y-5289D01*
X-108045Y-14931D01*
X-107935Y-15414D01*
X-107905Y-15908D01*
X-106069Y-25417D01*
X-105912Y-25886D01*
X-105834Y-26375D01*
X-103078Y-35659D01*
X-102876Y-36111D01*
X-102751Y-36590D01*
X-99100Y-45560D01*
X-98855Y-45990D01*
X-98684Y-46455D01*
X-94174Y-55025D01*
X-93889Y-55429D01*
X-93673Y-55875D01*
X-88347Y-63963D01*
X-88024Y-64338D01*
X-87765Y-64760D01*
X-81675Y-72290D01*
X-81316Y-72631D01*
X-81018Y-73026D01*
X-74221Y-79924D01*
X-73830Y-80228D01*
X-73495Y-80592D01*
X-66056Y-86794D01*
X-65638Y-87058D01*
X-65268Y-87388D01*
X-57259Y-92833D01*
X-56817Y-93055D01*
X-56417Y-93347D01*
X-47915Y-97983D01*
X-47453Y-98161D01*
X-47027Y-98413D01*
X-38112Y-102196D01*
X-37635Y-102328D01*
X-37186Y-102537D01*
X-27944Y-105431D01*
X-27456Y-105516D01*
X-26989Y-105680D01*
X-17509Y-107657D01*
X-17015Y-107694D01*
X-16534Y-107811D01*
X-9082Y-108617D01*
Y-265974D01*
X-10352Y-266359D01*
X-10756Y-265756D01*
X-12244Y-264761D01*
X-12750Y-264660D01*
Y-269000D01*
Y-273339D01*
X-12244Y-273239D01*
X-10756Y-272244D01*
X-10352Y-271640D01*
X-9082Y-272026D01*
Y-534918D01*
X-83996D01*
X-83997Y-534918D01*
X-83997Y-534918D01*
X-85286Y-535088D01*
X-86607Y-535261D01*
X-86607Y-535262D01*
X-86608Y-535262D01*
X-87804Y-535757D01*
X-89039Y-536269D01*
X-89040Y-536269D01*
X-89040Y-536269D01*
X-90102Y-537084D01*
X-91128Y-537872D01*
X-91129Y-537872D01*
X-91129Y-537873D01*
X-91917Y-538900D01*
X-92731Y-539961D01*
X-92731Y-539961D01*
X-92732Y-539962D01*
X-93244Y-541198D01*
X-93739Y-542393D01*
X-93739Y-542394D01*
X-93739Y-542394D01*
X-93913Y-543716D01*
X-94082Y-545004D01*
X-94082Y-545005D01*
X-94082Y-545005D01*
X-94066Y-688428D01*
X-95262Y-688856D01*
X-96882Y-686881D01*
X-100765Y-683695D01*
X-105195Y-681327D01*
X-110001Y-679869D01*
X-115000Y-679377D01*
X-119999Y-679869D01*
X-124806Y-681327D01*
X-129236Y-683695D01*
X-133119Y-686881D01*
X-136305Y-690764D01*
X-138673Y-695194D01*
X-140131Y-700001D01*
X-140624Y-705000D01*
X-140131Y-709999D01*
X-138673Y-714806D01*
X-136305Y-719236D01*
X-133119Y-723119D01*
X-129236Y-726305D01*
X-124806Y-728673D01*
X-121336Y-729726D01*
X-121635Y-730962D01*
X-145572Y-726583D01*
X-169888Y-721285D01*
X-194013Y-715173D01*
X-217918Y-708255D01*
X-241577Y-700538D01*
X-264966Y-692031D01*
X-288054Y-682744D01*
X-310818Y-672686D01*
X-333230Y-661870D01*
X-355267Y-650307D01*
X-376904Y-638010D01*
X-398116Y-624994D01*
X-418877Y-611274D01*
X-439168Y-596863D01*
X-458962Y-581780D01*
X-478239Y-566040D01*
X-496977Y-549662D01*
X-515154Y-532663D01*
X-532749Y-515065D01*
X-549744Y-496885D01*
X-566120Y-478144D01*
X-581856Y-458865D01*
X-596937Y-439068D01*
X-611343Y-418776D01*
X-625061Y-398011D01*
X-638073Y-376797D01*
X-645822Y-363157D01*
X-645183Y-362059D01*
X-630590Y-362059D01*
X-630368Y-362015D01*
X-630141Y-362026D01*
X-629953Y-361959D01*
X-629321Y-361883D01*
X-628390Y-362419D01*
X-628251Y-362596D01*
X-626305Y-366236D01*
X-623119Y-370118D01*
X-619236Y-373305D01*
X-614806Y-375673D01*
X-609999Y-377131D01*
X-605000Y-377623D01*
X-600001Y-377131D01*
X-595194Y-375673D01*
X-590764Y-373305D01*
X-586881Y-370118D01*
X-583695Y-366236D01*
X-581749Y-362596D01*
X-581610Y-362419D01*
X-580679Y-361883D01*
X-580046Y-361959D01*
X-579859Y-362026D01*
X-579632Y-362015D01*
X-579410Y-362059D01*
X-551016Y-362059D01*
X-549846Y-361826D01*
X-548853Y-361163D01*
X-548190Y-360171D01*
X-547957Y-359000D01*
Y-247775D01*
X-547901Y-246633D01*
X-547441Y-244320D01*
X-546568Y-242212D01*
X-545300Y-240314D01*
X-543686Y-238700D01*
X-541788Y-237432D01*
X-539680Y-236559D01*
X-537367Y-236099D01*
X-536225Y-236043D01*
X-452775D01*
X-451633Y-236099D01*
X-449320Y-236559D01*
X-447212Y-237432D01*
X-445314Y-238700D01*
X-443700Y-240314D01*
X-442432Y-242212D01*
X-441559Y-244320D01*
X-441099Y-246633D01*
X-441043Y-247775D01*
Y-351072D01*
X-441023Y-351171D01*
X-441036Y-351272D01*
X-440907Y-351754D01*
X-440810Y-352242D01*
X-441760Y-353065D01*
X-442547Y-353392D01*
X-444845Y-355155D01*
X-446608Y-357453D01*
X-447717Y-360129D01*
X-448095Y-363000D01*
X-447717Y-365872D01*
X-446608Y-368548D01*
X-444845Y-370845D01*
X-442547Y-372609D01*
X-439871Y-373717D01*
X-437000Y-374095D01*
X-434128Y-373717D01*
X-431452Y-372609D01*
X-429155Y-370845D01*
X-427391Y-368548D01*
X-426283Y-365872D01*
X-425905Y-363000D01*
X-425079Y-362059D01*
X-417739Y-362059D01*
X-416780Y-362839D01*
X-416553Y-363215D01*
X-416255Y-365480D01*
X-415298Y-367791D01*
X-413775Y-369776D01*
X-411791Y-371298D01*
X-409480Y-372256D01*
X-408249Y-372417D01*
Y-362999D01*
X-405749D01*
Y-372417D01*
X-404520Y-372256D01*
X-402209Y-371298D01*
X-400224Y-369776D01*
X-398702Y-367791D01*
X-397744Y-365480D01*
X-397446Y-363215D01*
X-397220Y-362839D01*
X-396261Y-362059D01*
X-388920D01*
X-388095Y-363000D01*
X-387717Y-365872D01*
X-386608Y-368548D01*
X-384845Y-370845D01*
X-382547Y-372609D01*
X-379871Y-373717D01*
X-377000Y-374095D01*
X-374128Y-373717D01*
X-371452Y-372609D01*
X-369155Y-370845D01*
X-367391Y-368548D01*
X-366283Y-365872D01*
X-365905Y-363000D01*
X-365079Y-362059D01*
X-170982Y-362058D01*
X-170457Y-363328D01*
X-190795Y-383667D01*
X-336000D01*
X-337658Y-383997D01*
X-339064Y-384936D01*
X-361795Y-407667D01*
X-400205D01*
X-402667Y-405205D01*
Y-403111D01*
X-401452Y-402608D01*
X-399155Y-400845D01*
X-397391Y-398548D01*
X-396283Y-395872D01*
X-395905Y-393000D01*
X-396283Y-390129D01*
X-397391Y-387453D01*
X-399155Y-385155D01*
X-401452Y-383392D01*
X-404128Y-382283D01*
X-407000Y-381905D01*
X-409871Y-382283D01*
X-412547Y-383392D01*
X-414845Y-385155D01*
X-416608Y-387453D01*
X-417717Y-390129D01*
X-418095Y-393000D01*
X-417717Y-395872D01*
X-416608Y-398548D01*
X-414845Y-400845D01*
X-412547Y-402608D01*
X-411333Y-403111D01*
Y-407000D01*
X-411003Y-408658D01*
X-410064Y-410064D01*
X-405064Y-415064D01*
X-403658Y-416003D01*
X-402000Y-416333D01*
X-360000D01*
X-358342Y-416003D01*
X-356936Y-415064D01*
X-334205Y-392333D01*
X-189000D01*
X-187342Y-392003D01*
X-185936Y-391064D01*
X-161936Y-367064D01*
X-160997Y-365658D01*
X-160667Y-364000D01*
Y-159795D01*
X-147205Y-146333D01*
X-135315D01*
X-133341Y-147652D01*
X-131000Y-148118D01*
X-128659Y-147652D01*
X-126674Y-146326D01*
X-125348Y-144341D01*
X-124882Y-142000D01*
X-125348Y-139659D01*
X-126674Y-137674D01*
X-128659Y-136348D01*
X-131000Y-135883D01*
X-133341Y-136348D01*
X-135315Y-137667D01*
X-149000D01*
X-150658Y-137997D01*
X-152064Y-138936D01*
X-168064Y-154936D01*
X-169003Y-156342D01*
X-169333Y-158000D01*
Y-299942D01*
X-240942Y-299942D01*
X-240940Y-110914D01*
X-240940Y-110914D01*
X-241173Y-109743D01*
X-241836Y-108751D01*
X-242734Y-107853D01*
X-243727Y-107190D01*
X-244897Y-106957D01*
X-244897Y-106957D01*
X-306667D01*
Y-83829D01*
X-305397Y-83398D01*
X-304703Y-84303D01*
X-302564Y-85944D01*
X-300073Y-86976D01*
X-297400Y-87328D01*
X-294727Y-86976D01*
X-292236Y-85944D01*
X-290098Y-84303D01*
X-288456Y-82164D01*
X-287425Y-79673D01*
X-287073Y-77000D01*
X-287425Y-74327D01*
X-288456Y-71837D01*
X-290098Y-69698D01*
X-291408Y-68692D01*
X-290977Y-67422D01*
X-278424D01*
X-277993Y-68692D01*
X-279303Y-69698D01*
X-280944Y-71837D01*
X-281975Y-74327D01*
X-282327Y-77000D01*
X-281975Y-79673D01*
X-280944Y-82164D01*
X-279303Y-84303D01*
X-277164Y-85944D01*
X-274673Y-86976D01*
X-272000Y-87328D01*
X-269327Y-86976D01*
X-266836Y-85944D01*
X-264698Y-84303D01*
X-263056Y-82164D01*
X-262025Y-79673D01*
X-261673Y-77000D01*
X-262025Y-74327D01*
X-263056Y-71837D01*
X-264698Y-69698D01*
X-266008Y-68692D01*
X-265576Y-67422D01*
X-253024D01*
X-252593Y-68692D01*
X-253903Y-69698D01*
X-255544Y-71837D01*
X-256576Y-74327D01*
X-256927Y-77000D01*
X-256576Y-79673D01*
X-255544Y-82164D01*
X-253903Y-84303D01*
X-251764Y-85944D01*
X-249273Y-86976D01*
X-246600Y-87328D01*
X-243927Y-86976D01*
X-241436Y-85944D01*
X-239298Y-84303D01*
X-237656Y-82164D01*
X-236625Y-79673D01*
X-236273Y-77000D01*
X-236625Y-74327D01*
X-237656Y-71837D01*
X-239298Y-69698D01*
X-240608Y-68692D01*
X-240177Y-67422D01*
X-227624D01*
X-227193Y-68692D01*
X-228503Y-69698D01*
X-230144Y-71837D01*
X-231175Y-74327D01*
X-231527Y-77000D01*
X-231175Y-79673D01*
X-230144Y-82164D01*
X-228503Y-84303D01*
X-226364Y-85944D01*
X-223873Y-86976D01*
X-221200Y-87328D01*
X-218527Y-86976D01*
X-216036Y-85944D01*
X-213898Y-84303D01*
X-212256Y-82164D01*
X-211225Y-79673D01*
X-210873Y-77000D01*
X-211225Y-74327D01*
X-212256Y-71837D01*
X-213898Y-69698D01*
X-215324Y-68603D01*
X-214893Y-67333D01*
X-187795D01*
X-34333Y-220795D01*
Y-301686D01*
X-35652Y-303659D01*
X-36117Y-306000D01*
X-35652Y-308341D01*
X-34326Y-310326D01*
X-32341Y-311652D01*
X-30000Y-312118D01*
X-27659Y-311652D01*
X-25674Y-310326D01*
X-24348Y-308341D01*
X-23883Y-306000D01*
X-24348Y-303659D01*
X-25667Y-301686D01*
Y-219000D01*
X-25997Y-217342D01*
X-26936Y-215936D01*
X-182936Y-59936D01*
X-184342Y-58997D01*
X-186000Y-58667D01*
X-212281D01*
X-212842Y-57528D01*
X-212256Y-56764D01*
X-211225Y-54273D01*
X-210873Y-51600D01*
X-211225Y-48927D01*
X-212256Y-46437D01*
X-213898Y-44298D01*
X-216036Y-42656D01*
X-218527Y-41625D01*
X-221200Y-41273D01*
X-223873Y-41625D01*
X-226364Y-42656D01*
X-228503Y-44298D01*
X-230144Y-46437D01*
X-231175Y-48927D01*
X-231527Y-51600D01*
X-231175Y-54273D01*
X-230144Y-56764D01*
X-229489Y-57617D01*
X-230051Y-58756D01*
X-301951D01*
X-302674Y-57674D01*
X-304659Y-56348D01*
X-307000Y-55883D01*
X-309341Y-56348D01*
X-311326Y-57674D01*
X-312652Y-59659D01*
X-313118Y-62000D01*
X-312991Y-62638D01*
X-314161Y-63263D01*
X-346488Y-30936D01*
X-347894Y-29997D01*
X-349552Y-29667D01*
X-458957D01*
Y43028D01*
X-457687Y43459D01*
X-457103Y42697D01*
X-454964Y41056D01*
X-452473Y40024D01*
X-449800Y39672D01*
X-447127Y40024D01*
X-444636Y41056D01*
X-442498Y42697D01*
X-440856Y44836D01*
X-439825Y47327D01*
X-439473Y50000D01*
X-439825Y52673D01*
X-440856Y55163D01*
X-442498Y57302D01*
X-444636Y58944D01*
X-447127Y59975D01*
X-449800Y60327D01*
X-452473Y59975D01*
X-454964Y58944D01*
X-457103Y57302D01*
X-457687Y56540D01*
X-458957Y56972D01*
Y68428D01*
X-457687Y68859D01*
X-457103Y68097D01*
X-454964Y66456D01*
X-452473Y65424D01*
X-449800Y65072D01*
X-447127Y65424D01*
X-444636Y66456D01*
X-442498Y68097D01*
X-440856Y70236D01*
X-439825Y72727D01*
X-439473Y75400D01*
X-439825Y78073D01*
X-440856Y80563D01*
X-442498Y82702D01*
X-444636Y84344D01*
X-447127Y85375D01*
X-449800Y85727D01*
X-452473Y85375D01*
X-454964Y84344D01*
X-457103Y82702D01*
X-457687Y81940D01*
X-458957Y82372D01*
Y91667D01*
X-355795D01*
X-352533Y88405D01*
Y84688D01*
X-353364Y84344D01*
X-355503Y82702D01*
X-357144Y80563D01*
X-358176Y78073D01*
X-358527Y75400D01*
X-358176Y72727D01*
X-357144Y70236D01*
X-355503Y68097D01*
X-353364Y66456D01*
X-350873Y65424D01*
X-348200Y65072D01*
X-345527Y65424D01*
X-343036Y66456D01*
X-340898Y68097D01*
X-339256Y70236D01*
X-338225Y72727D01*
X-337873Y75400D01*
X-338225Y78073D01*
X-339256Y80563D01*
X-340898Y82702D01*
X-343036Y84344D01*
X-343867Y84688D01*
Y90200D01*
X-344197Y91858D01*
X-345136Y93264D01*
X-350936Y99064D01*
X-352342Y100003D01*
X-354000Y100333D01*
X-461205D01*
X-464417Y103545D01*
Y133992D01*
X-463147Y134619D01*
X-461547Y133391D01*
X-458871Y132283D01*
X-456000Y131905D01*
X-453128Y132283D01*
X-450452Y133391D01*
X-448154Y135154D01*
X-446391Y137452D01*
X-445283Y140128D01*
X-444905Y143000D01*
X-445283Y145871D01*
X-446391Y148547D01*
X-448154Y150845D01*
X-450452Y152608D01*
X-453128Y153717D01*
X-456000Y154095D01*
X-457687Y153872D01*
X-458957Y154986D01*
Y161014D01*
X-457687Y162127D01*
X-456000Y161905D01*
X-453128Y162283D01*
X-450452Y163392D01*
X-448154Y165155D01*
X-446391Y167453D01*
X-445283Y170129D01*
X-444905Y173000D01*
X-445283Y175872D01*
X-446391Y178548D01*
X-448154Y180846D01*
X-450452Y182609D01*
X-453128Y183717D01*
X-456000Y184095D01*
X-457687Y183873D01*
X-458957Y184987D01*
Y217117D01*
X-209772D01*
X-208113Y217447D01*
X-206708Y218386D01*
X-149136Y275958D01*
X-148197Y277364D01*
X-147867Y279022D01*
Y286005D01*
X-137456Y296416D01*
X-135536Y295621D01*
X-132300Y295195D01*
X-129064Y295621D01*
X-126047Y296870D01*
X-123458Y298858D01*
X-121470Y301448D01*
X-120221Y304463D01*
X-118979D01*
X-117730Y301448D01*
X-115742Y298858D01*
X-113153Y296870D01*
X-110136Y295621D01*
X-106900Y295195D01*
X-103664Y295621D01*
X-100647Y296870D01*
X-98058Y298858D01*
X-96070Y301448D01*
X-94821Y304463D01*
X-93579D01*
X-92330Y301448D01*
X-90342Y298858D01*
X-87753Y296870D01*
X-84736Y295621D01*
X-81500Y295195D01*
X-78264Y295621D01*
X-75248Y296870D01*
X-72658Y298858D01*
X-70670Y301448D01*
X-69421Y304463D01*
X-68179D01*
X-66930Y301448D01*
X-64942Y298858D01*
X-62352Y296870D01*
X-59337Y295621D01*
X-56100Y295195D01*
X-52863Y295621D01*
X-49847Y296870D01*
X-47258Y298858D01*
X-45270Y301448D01*
X-44021Y304463D01*
X-42779D01*
X-41530Y301448D01*
X-39542Y298858D01*
X-36953Y296870D01*
X-33937Y295621D01*
X-30700Y295195D01*
X-27464Y295621D01*
X-24448Y296870D01*
X-21858Y298858D01*
X-19870Y301448D01*
X-18621Y304464D01*
X-18195Y307700D01*
X-18621Y310937D01*
X-19870Y313953D01*
X-21858Y316542D01*
X-24448Y318530D01*
X-27464Y319779D01*
X-30700Y320205D01*
X-33937Y319779D01*
X-36953Y318530D01*
X-39542Y316542D01*
X-41530Y313953D01*
X-42779Y310937D01*
X-44021D01*
X-45270Y313953D01*
X-47258Y316542D01*
X-49847Y318530D01*
X-52863Y319779D01*
X-56100Y320205D01*
X-59337Y319779D01*
X-62352Y318530D01*
X-64942Y316542D01*
X-66930Y313953D01*
X-68179Y310937D01*
X-69421D01*
X-70670Y313953D01*
X-72658Y316542D01*
X-75248Y318530D01*
X-78264Y319779D01*
X-81500Y320205D01*
X-84736Y319779D01*
X-87753Y318530D01*
X-90342Y316542D01*
X-92330Y313953D01*
X-93579Y310937D01*
X-94821D01*
X-96070Y313953D01*
X-98058Y316542D01*
X-100647Y318530D01*
X-103664Y319779D01*
X-106900Y320205D01*
X-110136Y319779D01*
X-113153Y318530D01*
X-115742Y316542D01*
X-117730Y313953D01*
X-118979Y310937D01*
X-120221D01*
X-121470Y313953D01*
X-123458Y316542D01*
X-126047Y318530D01*
X-129064Y319779D01*
X-132300Y320205D01*
X-135536Y319779D01*
X-138553Y318530D01*
X-141142Y316542D01*
X-143130Y313953D01*
X-144379Y310937D01*
X-145621D01*
X-146870Y313953D01*
X-148858Y316542D01*
X-151447Y318530D01*
X-154464Y319779D01*
X-157700Y320205D01*
X-160937Y319779D01*
X-163953Y318530D01*
X-166542Y316542D01*
X-168530Y313953D01*
X-169779Y310937D01*
X-170205Y307700D01*
X-169779Y304464D01*
X-168530Y301448D01*
X-166542Y298858D01*
X-163953Y296870D01*
X-162033Y296075D01*
Y283095D01*
X-210795Y234333D01*
X-452196D01*
X-452405Y234624D01*
X-452424Y234841D01*
X-451926Y236136D01*
X-450242Y236833D01*
X-448289Y238332D01*
X-446790Y240285D01*
X-445848Y242559D01*
X-445527Y245000D01*
X-445848Y247441D01*
X-446790Y249715D01*
X-448289Y251669D01*
X-450242Y253167D01*
X-452517Y254109D01*
X-454957Y254431D01*
X-457398Y254109D01*
X-457901Y253901D01*
X-458957Y254607D01*
Y270000D01*
X-459190Y271170D01*
X-459853Y272163D01*
X-460845Y272826D01*
X-462016Y273058D01*
X-687682Y273060D01*
X-688390Y274114D01*
X-680604Y293088D01*
X-670098Y316372D01*
X-658794Y339281D01*
X-646709Y361786D01*
X-642557Y368918D01*
X-9082D01*
X-9082Y108596D01*
D02*
G37*
G36*
X-462016Y270000D02*
Y251160D01*
X-463125Y249715D01*
X-464067Y247441D01*
X-464135Y246926D01*
X-465337Y246517D01*
X-465884Y247064D01*
X-467290Y248003D01*
X-468948Y248333D01*
X-499053D01*
X-499233Y249695D01*
X-500331Y252346D01*
X-502078Y254623D01*
X-504354Y256370D01*
X-507005Y257468D01*
X-508601Y257678D01*
Y246852D01*
Y236023D01*
X-507005Y236233D01*
X-504354Y237331D01*
X-502078Y239078D01*
X-501626Y239667D01*
X-470743D01*
X-462016Y230940D01*
Y225784D01*
X-498226D01*
X-499021Y227703D01*
X-501008Y230293D01*
X-503598Y232280D01*
X-506614Y233529D01*
X-509850Y233955D01*
X-513087Y233529D01*
X-516103Y232280D01*
X-518693Y230293D01*
X-520680Y227703D01*
X-521929Y224687D01*
X-522355Y221450D01*
X-521929Y218214D01*
X-520680Y215198D01*
X-518693Y212608D01*
X-516103Y210621D01*
X-513087Y209371D01*
Y208129D01*
X-516103Y206880D01*
X-518693Y204893D01*
X-520680Y202303D01*
X-521929Y199287D01*
X-522355Y196050D01*
X-521929Y192814D01*
X-520680Y189798D01*
X-518693Y187208D01*
X-516103Y185221D01*
X-513087Y183971D01*
Y182729D01*
X-516103Y181480D01*
X-518693Y179493D01*
X-520680Y176903D01*
X-521475Y174984D01*
X-524350D01*
X-526008Y174654D01*
X-527414Y173714D01*
X-541053Y160075D01*
X-541992Y158669D01*
X-542322Y157011D01*
Y111989D01*
X-541992Y110331D01*
X-541053Y108925D01*
X-516333Y84205D01*
Y81707D01*
X-517603Y81276D01*
X-518698Y82702D01*
X-520836Y84344D01*
X-523327Y85375D01*
X-526000Y85727D01*
X-528673Y85375D01*
X-531164Y84344D01*
X-533303Y82702D01*
X-534944Y80563D01*
X-535975Y78073D01*
X-536327Y75400D01*
X-535975Y72727D01*
X-534944Y70236D01*
X-533303Y68097D01*
X-531164Y66456D01*
X-528673Y65424D01*
X-526000Y65072D01*
X-523327Y65424D01*
X-520836Y66456D01*
X-518698Y68097D01*
X-517692Y69407D01*
X-516422Y68976D01*
Y56423D01*
X-517692Y55992D01*
X-518698Y57302D01*
X-520836Y58944D01*
X-523327Y59975D01*
X-526000Y60327D01*
X-528673Y59975D01*
X-531164Y58944D01*
X-533303Y57302D01*
X-534944Y55163D01*
X-535975Y52673D01*
X-536327Y50000D01*
X-535975Y47327D01*
X-534944Y44836D01*
X-533303Y42697D01*
X-531164Y41056D01*
X-528673Y40024D01*
X-526000Y39672D01*
X-523327Y40024D01*
X-520836Y41056D01*
X-518698Y42697D01*
X-517692Y44007D01*
X-516422Y43576D01*
Y-70577D01*
X-517692Y-71008D01*
X-518698Y-69698D01*
X-520836Y-68057D01*
X-523327Y-67025D01*
X-526000Y-66673D01*
X-528673Y-67025D01*
X-531164Y-68057D01*
X-533303Y-69698D01*
X-534944Y-71837D01*
X-535975Y-74327D01*
X-536327Y-77000D01*
X-535975Y-79673D01*
X-534944Y-82164D01*
X-533303Y-84303D01*
X-531164Y-85944D01*
X-528673Y-86976D01*
X-526000Y-87328D01*
X-523327Y-86976D01*
X-520836Y-85944D01*
X-518698Y-84303D01*
X-517692Y-82993D01*
X-516422Y-83424D01*
Y-94294D01*
X-523795Y-101667D01*
X-616731D01*
X-618389Y-101997D01*
X-619795Y-102936D01*
X-629064Y-112205D01*
X-630003Y-113611D01*
X-630333Y-115269D01*
Y-120975D01*
X-632253Y-121770D01*
X-634842Y-123758D01*
X-636830Y-126348D01*
X-637732Y-128526D01*
X-639002Y-128273D01*
Y-120202D01*
X-663798D01*
Y-144998D01*
X-639002D01*
Y-136927D01*
X-637732Y-136674D01*
X-636830Y-138853D01*
X-634842Y-141442D01*
X-632253Y-143430D01*
X-629236Y-144679D01*
X-626000Y-145105D01*
X-622763Y-144679D01*
X-619748Y-143430D01*
X-617158Y-141442D01*
X-615170Y-138853D01*
X-613921Y-135836D01*
X-612679D01*
X-611430Y-138853D01*
X-609442Y-141442D01*
X-606852Y-143430D01*
X-603837Y-144679D01*
X-600600Y-145105D01*
X-597364Y-144679D01*
X-594347Y-143430D01*
X-591758Y-141442D01*
X-589770Y-138853D01*
X-588521Y-135836D01*
X-588095Y-132600D01*
X-588521Y-129363D01*
X-589770Y-126348D01*
X-591758Y-123758D01*
X-594064Y-121988D01*
X-594411Y-120539D01*
X-592205Y-118333D01*
X-514000D01*
X-512342Y-118003D01*
X-510936Y-117064D01*
X-484936Y-91064D01*
X-483997Y-89658D01*
X-483667Y-88000D01*
Y-84698D01*
X-483214Y-84544D01*
X-482397Y-84384D01*
X-480364Y-85944D01*
X-477873Y-86976D01*
X-475200Y-87328D01*
X-472527Y-86976D01*
X-470036Y-85944D01*
X-467898Y-84303D01*
X-466256Y-82164D01*
X-465225Y-79673D01*
X-464873Y-77000D01*
X-465225Y-74327D01*
X-466256Y-71837D01*
X-467898Y-69698D01*
X-470036Y-68057D01*
X-472527Y-67025D01*
X-475200Y-66673D01*
X-477873Y-67025D01*
X-480364Y-68057D01*
X-482397Y-69616D01*
X-483214Y-69456D01*
X-483667Y-69303D01*
Y42302D01*
X-483214Y42456D01*
X-482397Y42616D01*
X-480364Y41056D01*
X-477873Y40024D01*
X-475200Y39672D01*
X-472527Y40024D01*
X-470036Y41056D01*
X-467898Y42697D01*
X-466256Y44836D01*
X-465225Y47327D01*
X-464873Y50000D01*
X-465225Y52673D01*
X-466256Y55163D01*
X-467898Y57302D01*
X-470036Y58944D01*
X-472527Y59975D01*
X-475200Y60327D01*
X-477873Y59975D01*
X-480364Y58944D01*
X-482397Y57383D01*
X-483214Y57544D01*
X-483667Y57698D01*
Y67702D01*
X-483214Y67856D01*
X-482397Y68016D01*
X-480364Y66456D01*
X-477873Y65424D01*
X-475200Y65072D01*
X-472527Y65424D01*
X-470036Y66456D01*
X-467898Y68097D01*
X-466256Y70236D01*
X-465225Y72727D01*
X-464873Y75400D01*
X-465225Y78073D01*
X-466256Y80563D01*
X-467898Y82702D01*
X-470036Y84344D01*
X-470867Y84688D01*
Y96079D01*
X-469693Y96565D01*
X-466064Y92936D01*
X-464658Y91997D01*
X-463000Y91667D01*
X-462016D01*
Y-29667D01*
X-469685D01*
X-471659Y-28348D01*
X-474000Y-27882D01*
X-476341Y-28348D01*
X-478326Y-29674D01*
X-479652Y-31659D01*
X-480117Y-34000D01*
X-479652Y-36341D01*
X-478326Y-38326D01*
X-476341Y-39652D01*
X-474000Y-40118D01*
X-471659Y-39652D01*
X-469685Y-38333D01*
X-462016D01*
Y-95300D01*
X-461945Y-96742D01*
X-461382Y-99572D01*
X-460278Y-102237D01*
X-458676Y-104636D01*
X-456636Y-106676D01*
X-454237Y-108278D01*
X-451572Y-109382D01*
X-448742Y-109945D01*
X-447300Y-110016D01*
X-434804D01*
X-434318Y-111189D01*
X-477795Y-154667D01*
X-584000D01*
X-585658Y-154997D01*
X-587064Y-155936D01*
X-605064Y-173936D01*
X-606003Y-175342D01*
X-606333Y-177000D01*
Y-232000D01*
X-606003Y-233658D01*
X-605064Y-235064D01*
X-579533Y-260595D01*
Y-273375D01*
X-581452Y-274170D01*
X-584042Y-276158D01*
X-586030Y-278748D01*
X-587279Y-281763D01*
X-588521D01*
X-589770Y-278748D01*
X-591758Y-276158D01*
X-594347Y-274170D01*
X-597364Y-272921D01*
X-600600Y-272495D01*
X-603837Y-272921D01*
X-606852Y-274170D01*
X-609442Y-276158D01*
X-611430Y-278748D01*
X-612679Y-281763D01*
X-613921D01*
X-615170Y-278748D01*
X-617158Y-276158D01*
X-619748Y-274170D01*
X-622763Y-272921D01*
X-626000Y-272495D01*
X-629236Y-272921D01*
X-632253Y-274170D01*
X-634842Y-276158D01*
X-636830Y-278748D01*
X-637732Y-280926D01*
X-639002Y-280673D01*
Y-272602D01*
X-663798D01*
Y-297398D01*
X-639002D01*
Y-289327D01*
X-637732Y-289074D01*
X-636830Y-291252D01*
X-634842Y-293842D01*
X-632253Y-295830D01*
X-629236Y-297079D01*
X-626000Y-297505D01*
X-622763Y-297079D01*
X-619748Y-295830D01*
X-617158Y-293842D01*
X-615170Y-291252D01*
X-613921Y-288237D01*
X-612679D01*
X-611430Y-291252D01*
X-609442Y-293842D01*
X-606852Y-295830D01*
X-603837Y-297079D01*
X-600600Y-297505D01*
X-597364Y-297079D01*
X-594347Y-295830D01*
X-591758Y-293842D01*
X-589770Y-291252D01*
X-588521Y-288237D01*
X-587279D01*
X-586030Y-291252D01*
X-584042Y-293842D01*
X-581452Y-295830D01*
X-578437Y-297079D01*
X-575200Y-297505D01*
X-571964Y-297079D01*
X-568947Y-295830D01*
X-566358Y-293842D01*
X-564370Y-291252D01*
X-563121Y-288237D01*
X-562695Y-285000D01*
X-563121Y-281763D01*
X-564370Y-278748D01*
X-566358Y-276158D01*
X-568947Y-274170D01*
X-570867Y-273375D01*
Y-258800D01*
X-571197Y-257142D01*
X-572136Y-255736D01*
X-581478Y-246394D01*
X-580759Y-245317D01*
X-578437Y-246279D01*
X-575200Y-246705D01*
X-571964Y-246279D01*
X-568947Y-245030D01*
X-566358Y-243042D01*
X-564370Y-240452D01*
X-563121Y-237437D01*
X-562695Y-234200D01*
X-563121Y-230963D01*
X-564370Y-227948D01*
X-566358Y-225358D01*
X-568947Y-223370D01*
X-571963Y-222121D01*
Y-220879D01*
X-568947Y-219630D01*
X-566358Y-217642D01*
X-564370Y-215053D01*
X-563121Y-212036D01*
X-562695Y-208800D01*
X-563121Y-205564D01*
X-563916Y-203644D01*
X-558005Y-197733D01*
X-490000D01*
X-488341Y-197403D01*
X-486936Y-196464D01*
X-400488Y-110016D01*
X-315333D01*
Y-254807D01*
X-315712Y-255061D01*
X-317038Y-257045D01*
X-317504Y-259386D01*
X-317038Y-261728D01*
X-315712Y-263712D01*
X-313727Y-265038D01*
X-311386Y-265504D01*
X-309045Y-265038D01*
X-307061Y-263712D01*
X-305735Y-261728D01*
X-305269Y-259386D01*
X-305735Y-257045D01*
X-306667Y-255650D01*
Y-110016D01*
X-244897D01*
X-243999Y-110914D01*
X-244000Y-303001D01*
X-169333Y-303001D01*
Y-359000D01*
X-366750Y-359000D01*
X-367391Y-357453D01*
X-369155Y-355155D01*
X-371452Y-353392D01*
X-374128Y-352283D01*
X-377000Y-351905D01*
X-379871Y-352283D01*
X-382547Y-353392D01*
X-384845Y-355155D01*
X-386608Y-357453D01*
X-387249Y-359000D01*
X-396750D01*
X-397391Y-357453D01*
X-399155Y-355155D01*
X-401452Y-353392D01*
X-404128Y-352283D01*
X-407000Y-351905D01*
X-409871Y-352283D01*
X-412547Y-353392D01*
X-414845Y-355155D01*
X-416608Y-357453D01*
X-417249Y-359000D01*
X-426750Y-359000D01*
X-427391Y-357453D01*
X-429155Y-355155D01*
X-431452Y-353392D01*
X-434128Y-352283D01*
X-437000Y-351905D01*
X-437029Y-351909D01*
X-437984Y-351072D01*
Y-247700D01*
X-438055Y-246258D01*
X-438618Y-243428D01*
X-439722Y-240763D01*
X-441324Y-238364D01*
X-443364Y-236324D01*
X-445763Y-234722D01*
X-448428Y-233618D01*
X-451258Y-233055D01*
X-452700Y-232984D01*
X-536300D01*
X-537742Y-233055D01*
X-540572Y-233618D01*
X-543237Y-234722D01*
X-545636Y-236324D01*
X-547676Y-238364D01*
X-549278Y-240763D01*
X-550382Y-243428D01*
X-550945Y-246258D01*
X-551016Y-247700D01*
Y-359000D01*
X-579410Y-359001D01*
X-580167Y-357980D01*
X-579869Y-356999D01*
X-579377Y-352000D01*
X-579869Y-347001D01*
X-581327Y-342194D01*
X-583695Y-337764D01*
X-586881Y-333881D01*
X-590764Y-330695D01*
X-595194Y-328327D01*
X-600001Y-326869D01*
X-605000Y-326377D01*
X-609999Y-326869D01*
X-614806Y-328327D01*
X-619236Y-330695D01*
X-623119Y-333881D01*
X-626305Y-337764D01*
X-628673Y-342194D01*
X-630131Y-347001D01*
X-630623Y-352000D01*
X-630131Y-356999D01*
X-629833Y-357980D01*
X-630590Y-359001D01*
X-648184Y-359001D01*
X-650366Y-355159D01*
X-661925Y-333120D01*
X-672738Y-310705D01*
X-682792Y-287940D01*
X-692076Y-264849D01*
X-700579Y-241461D01*
X-708291Y-217800D01*
X-715206Y-193893D01*
X-721313Y-169768D01*
X-726607Y-145450D01*
X-731081Y-120970D01*
X-734731Y-96352D01*
X-734882Y-95030D01*
X-734037Y-94082D01*
X-566004D01*
X-563393Y-93739D01*
X-560961Y-92731D01*
X-558872Y-91128D01*
X-557269Y-89039D01*
X-556261Y-86607D01*
X-556163Y-85861D01*
X-554777Y-85061D01*
X-553681Y-85514D01*
X-552649Y-85650D01*
Y-77000D01*
Y-68350D01*
X-553681Y-68486D01*
X-554647Y-68886D01*
X-555917Y-68038D01*
Y65045D01*
X-554861Y65751D01*
X-554073Y65424D01*
X-551400Y65072D01*
X-548727Y65424D01*
X-546236Y66456D01*
X-544098Y68097D01*
X-542456Y70236D01*
X-541425Y72727D01*
X-541073Y75400D01*
X-541425Y78073D01*
X-542456Y80563D01*
X-544098Y82702D01*
X-546236Y84344D01*
X-548727Y85375D01*
X-551400Y85727D01*
X-554073Y85375D01*
X-555031Y84979D01*
X-556130Y85614D01*
X-556261Y86607D01*
X-557269Y89039D01*
X-558872Y91128D01*
X-560961Y92731D01*
X-563393Y93739D01*
X-566004Y94082D01*
X-734037D01*
X-734882Y95030D01*
X-734694Y96679D01*
X-730925Y121944D01*
X-726288Y147065D01*
X-720788Y172010D01*
X-714430Y196752D01*
X-707225Y221259D01*
X-699178Y245503D01*
X-690301Y269456D01*
X-690078Y270001D01*
X-462016Y270000D01*
D02*
G37*
G36*
X-521380Y166088D02*
X-520680Y164398D01*
X-518693Y161808D01*
X-516103Y159821D01*
X-513087Y158571D01*
Y157329D01*
X-516103Y156080D01*
X-518693Y154093D01*
X-520680Y151503D01*
X-521929Y148487D01*
X-522355Y145250D01*
X-521929Y142014D01*
X-520680Y138998D01*
X-518693Y136408D01*
X-516103Y134421D01*
X-513087Y133171D01*
Y131929D01*
X-516103Y130680D01*
X-518693Y128693D01*
X-520680Y126103D01*
X-521929Y123087D01*
X-522355Y119850D01*
X-521929Y116614D01*
X-520680Y113598D01*
X-518693Y111008D01*
X-516103Y109021D01*
X-513087Y107771D01*
X-509850Y107345D01*
X-506614Y107771D01*
X-503598Y109021D01*
X-501008Y111008D01*
X-499021Y113598D01*
X-497771Y116614D01*
X-497345Y119850D01*
X-497771Y123087D01*
X-499021Y126103D01*
X-501008Y128693D01*
X-503598Y130680D01*
X-506614Y131929D01*
Y133171D01*
X-503598Y134421D01*
X-501008Y136408D01*
X-499021Y138998D01*
X-498226Y140917D01*
X-487045D01*
X-479533Y133405D01*
Y84688D01*
X-480364Y84344D01*
X-482503Y82702D01*
X-484144Y80563D01*
X-485176Y78073D01*
X-485405Y76329D01*
X-486746Y75874D01*
X-489336Y78464D01*
X-490742Y79403D01*
X-491215Y79497D01*
X-491656Y80563D01*
X-493298Y82702D01*
X-495436Y84344D01*
X-497927Y85375D01*
X-500600Y85727D01*
X-503273Y85375D01*
X-505764Y84344D01*
X-506528Y83757D01*
X-507667Y84319D01*
Y86000D01*
X-507997Y87658D01*
X-508936Y89064D01*
X-533656Y113784D01*
Y155216D01*
X-522648Y166224D01*
X-521380Y166088D01*
D02*
G37*
G36*
X-597731Y-111603D02*
X-603664Y-117536D01*
X-604603Y-118942D01*
X-604933Y-120600D01*
Y-120975D01*
X-606852Y-121770D01*
X-609442Y-123758D01*
X-611430Y-126348D01*
X-612679Y-129363D01*
X-613921D01*
X-615170Y-126348D01*
X-617158Y-123758D01*
X-619748Y-121770D01*
X-621667Y-120975D01*
Y-117064D01*
X-614936Y-110333D01*
X-598257D01*
X-597731Y-111603D01*
D02*
G37*
G36*
X-413917Y-111189D02*
X-491795Y-189067D01*
X-559800D01*
X-561458Y-189396D01*
X-562864Y-190336D01*
X-564712Y-192184D01*
X-565669Y-191345D01*
X-564370Y-189653D01*
X-563121Y-186637D01*
X-562695Y-183400D01*
X-563121Y-180163D01*
X-564370Y-177148D01*
X-566358Y-174558D01*
X-568947Y-172570D01*
X-571964Y-171321D01*
X-575200Y-170895D01*
X-578437Y-171321D01*
X-581452Y-172570D01*
X-584042Y-174558D01*
X-586030Y-177148D01*
X-587279Y-180163D01*
X-587705Y-183400D01*
X-587279Y-186637D01*
X-586030Y-189653D01*
X-584042Y-192242D01*
X-581452Y-194230D01*
X-578437Y-195479D01*
Y-196721D01*
X-581452Y-197970D01*
X-584042Y-199958D01*
X-586030Y-202547D01*
X-587279Y-205564D01*
X-587705Y-208800D01*
X-587279Y-212036D01*
X-586030Y-215053D01*
X-584042Y-217642D01*
X-581452Y-219630D01*
X-578437Y-220879D01*
Y-222121D01*
X-581452Y-223370D01*
X-584042Y-225358D01*
X-586030Y-227948D01*
X-587279Y-230963D01*
X-587705Y-234200D01*
X-587279Y-237437D01*
X-586317Y-239759D01*
X-587393Y-240478D01*
X-597667Y-230205D01*
Y-178795D01*
X-582205Y-163333D01*
X-476000D01*
X-474342Y-163003D01*
X-472936Y-162064D01*
X-420888Y-110016D01*
X-414403D01*
X-413917Y-111189D01*
D02*
G37*
G36*
X-492587Y67509D02*
X-492333Y67299D01*
Y-69021D01*
X-493603Y-69463D01*
X-495436Y-68057D01*
X-497927Y-67025D01*
X-500600Y-66673D01*
X-503273Y-67025D01*
X-505764Y-68057D01*
X-506617Y-68711D01*
X-507756Y-68149D01*
Y66549D01*
X-506617Y67111D01*
X-505764Y66456D01*
X-503273Y65424D01*
X-500600Y65072D01*
X-497927Y65424D01*
X-495436Y66456D01*
X-493603Y67863D01*
X-492587Y67509D01*
D02*
G37*
G36*
X-323999Y-65682D02*
X-324407Y-66884D01*
X-325473Y-67025D01*
X-327964Y-68057D01*
X-330103Y-69698D01*
X-331744Y-71837D01*
X-332775Y-74327D01*
X-333127Y-77000D01*
X-332775Y-79673D01*
X-331744Y-82164D01*
X-330103Y-84303D01*
X-327964Y-85944D01*
X-325473Y-86976D01*
X-322800Y-87328D01*
X-320127Y-86976D01*
X-317636Y-85944D01*
X-316603Y-85151D01*
X-315333Y-85778D01*
Y-106957D01*
X-395770D01*
X-396256Y-105784D01*
X-377104Y-86632D01*
X-376273Y-86976D01*
X-373600Y-87328D01*
X-370927Y-86976D01*
X-368436Y-85944D01*
X-366298Y-84303D01*
X-364656Y-82164D01*
X-363625Y-79673D01*
X-363273Y-77000D01*
X-363625Y-74327D01*
X-364656Y-71837D01*
X-366298Y-69698D01*
X-368436Y-68057D01*
X-370927Y-67025D01*
X-373600Y-66673D01*
X-376273Y-67025D01*
X-378764Y-68057D01*
X-380903Y-69698D01*
X-382544Y-71837D01*
X-383576Y-74327D01*
X-383927Y-77000D01*
X-383576Y-79673D01*
X-383232Y-80504D01*
X-410660Y-107932D01*
X-410936Y-108024D01*
X-412240Y-107853D01*
X-413233Y-107190D01*
X-414403Y-106957D01*
X-416170D01*
X-416656Y-105784D01*
X-398078Y-87206D01*
X-396327Y-86976D01*
X-393836Y-85944D01*
X-391698Y-84303D01*
X-390056Y-82164D01*
X-389025Y-79673D01*
X-388673Y-77000D01*
X-389025Y-74327D01*
X-390056Y-71837D01*
X-391698Y-69698D01*
X-393836Y-68057D01*
X-396327Y-67025D01*
X-399000Y-66673D01*
X-401673Y-67025D01*
X-404164Y-68057D01*
X-406303Y-69698D01*
X-407944Y-71837D01*
X-408975Y-74327D01*
X-409327Y-77000D01*
X-408975Y-79673D01*
X-407944Y-82164D01*
X-406792Y-83664D01*
X-431060Y-107932D01*
X-432641Y-107853D01*
X-433013Y-107605D01*
X-433633Y-107190D01*
X-434804Y-106957D01*
X-447225D01*
X-448367Y-106901D01*
X-450680Y-106441D01*
X-452788Y-105568D01*
X-454686Y-104300D01*
X-456300Y-102686D01*
X-457568Y-100788D01*
X-458441Y-98680D01*
X-458901Y-96367D01*
X-458957Y-95225D01*
Y-83972D01*
X-457687Y-83541D01*
X-457103Y-84303D01*
X-454964Y-85944D01*
X-452473Y-86976D01*
X-449800Y-87328D01*
X-447127Y-86976D01*
X-444636Y-85944D01*
X-442498Y-84303D01*
X-440856Y-82164D01*
X-439825Y-79673D01*
X-439473Y-77000D01*
X-439825Y-74327D01*
X-440856Y-71837D01*
X-442498Y-69698D01*
X-444636Y-68057D01*
X-447127Y-67025D01*
X-449800Y-66673D01*
X-452473Y-67025D01*
X-454964Y-68057D01*
X-457103Y-69698D01*
X-457687Y-70460D01*
X-458957Y-70029D01*
Y-38333D01*
X-351347D01*
X-323999Y-65682D01*
D02*
G37*
%LPC*%
G36*
X-114750Y-615660D02*
Y-618750D01*
X-111660D01*
X-111761Y-618244D01*
X-112756Y-616756D01*
X-114244Y-615761D01*
X-114750Y-615660D01*
D02*
G37*
G36*
X-417000Y-518569D02*
X-419441Y-518891D01*
X-421715Y-519833D01*
X-423668Y-521331D01*
X-425167Y-523285D01*
X-426109Y-525559D01*
X-426431Y-528000D01*
X-426109Y-530441D01*
X-425167Y-532715D01*
X-423668Y-534669D01*
X-421715Y-536167D01*
X-419441Y-537109D01*
X-417000Y-537431D01*
X-414559Y-537109D01*
X-412285Y-536167D01*
X-410331Y-534669D01*
X-408833Y-532715D01*
X-407891Y-530441D01*
X-407569Y-528000D01*
X-407891Y-525559D01*
X-408833Y-523285D01*
X-410331Y-521331D01*
X-412285Y-519833D01*
X-414559Y-518891D01*
X-417000Y-518569D01*
D02*
G37*
G36*
X-117250Y-615660D02*
X-117756Y-615761D01*
X-119244Y-616756D01*
X-120239Y-618244D01*
X-120339Y-618750D01*
X-117250D01*
Y-615660D01*
D02*
G37*
G36*
X-450750Y-257661D02*
Y-260750D01*
X-447661D01*
X-447761Y-260244D01*
X-448756Y-258756D01*
X-450244Y-257761D01*
X-450750Y-257661D01*
D02*
G37*
G36*
X-447661Y-263250D02*
X-450750D01*
Y-266340D01*
X-450244Y-266239D01*
X-448756Y-265245D01*
X-447761Y-263756D01*
X-447661Y-263250D01*
D02*
G37*
G36*
X-453250Y-257661D02*
X-453756Y-257761D01*
X-455245Y-258756D01*
X-456239Y-260244D01*
X-456340Y-260750D01*
X-453250D01*
Y-257661D01*
D02*
G37*
G36*
X-117250Y-621250D02*
X-120339D01*
X-120239Y-621756D01*
X-119244Y-623244D01*
X-117756Y-624239D01*
X-117250Y-624339D01*
Y-621250D01*
D02*
G37*
G36*
X-140250Y-270250D02*
X-143340D01*
X-143239Y-270756D01*
X-142244Y-272244D01*
X-140756Y-273239D01*
X-140250Y-273339D01*
Y-270250D01*
D02*
G37*
G36*
X-134661D02*
X-137750D01*
Y-273339D01*
X-137244Y-273239D01*
X-135756Y-272244D01*
X-134761Y-270756D01*
X-134661Y-270250D01*
D02*
G37*
G36*
X-111660Y-621250D02*
X-114750D01*
Y-624339D01*
X-114244Y-624239D01*
X-112756Y-623244D01*
X-111761Y-621756D01*
X-111660Y-621250D01*
D02*
G37*
G36*
X-15250Y-270250D02*
X-18340D01*
X-18239Y-270756D01*
X-17244Y-272244D01*
X-15756Y-273239D01*
X-15250Y-273339D01*
Y-270250D01*
D02*
G37*
G36*
Y-264660D02*
X-15756Y-264761D01*
X-17244Y-265756D01*
X-18239Y-267244D01*
X-18340Y-267750D01*
X-15250D01*
Y-264660D01*
D02*
G37*
G36*
X-453250Y-263250D02*
X-456340D01*
X-456239Y-263756D01*
X-455245Y-265245D01*
X-453756Y-266239D01*
X-453250Y-266340D01*
Y-263250D01*
D02*
G37*
G36*
X-140250Y-264660D02*
X-140756Y-264761D01*
X-142244Y-265756D01*
X-143239Y-267244D01*
X-143340Y-267750D01*
X-140250D01*
Y-264660D01*
D02*
G37*
G36*
X-137750D02*
Y-267750D01*
X-134661D01*
X-134761Y-267244D01*
X-135756Y-265756D01*
X-137244Y-264761D01*
X-137750Y-264660D01*
D02*
G37*
G36*
X-111750Y-493661D02*
Y-496750D01*
X-108661D01*
X-108761Y-496244D01*
X-109756Y-494756D01*
X-111244Y-493761D01*
X-111750Y-493661D01*
D02*
G37*
G36*
X-52249Y-480251D02*
X-60417D01*
X-60255Y-481480D01*
X-59298Y-483791D01*
X-57775Y-485775D01*
X-55791Y-487298D01*
X-53480Y-488255D01*
X-52249Y-488417D01*
Y-480251D01*
D02*
G37*
G36*
X-108661Y-499250D02*
X-111750D01*
Y-502340D01*
X-111244Y-502239D01*
X-109756Y-501245D01*
X-108761Y-499756D01*
X-108661Y-499250D01*
D02*
G37*
G36*
X-114250Y-493661D02*
X-114756Y-493761D01*
X-116244Y-494756D01*
X-117239Y-496244D01*
X-117340Y-496750D01*
X-114250D01*
Y-493661D01*
D02*
G37*
G36*
X-41582Y-480251D02*
X-49749D01*
Y-488417D01*
X-48520Y-488255D01*
X-46209Y-487298D01*
X-44224Y-485775D01*
X-42702Y-483791D01*
X-41744Y-481480D01*
X-41582Y-480251D01*
D02*
G37*
G36*
X-153000Y-188883D02*
X-155341Y-189348D01*
X-157326Y-190674D01*
X-158652Y-192659D01*
X-159117Y-195000D01*
X-158652Y-197341D01*
X-157333Y-199314D01*
Y-460685D01*
X-158652Y-462659D01*
X-159117Y-465000D01*
X-158652Y-467341D01*
X-157326Y-469326D01*
X-155341Y-470652D01*
X-153000Y-471118D01*
X-150659Y-470652D01*
X-148674Y-469326D01*
X-147348Y-467341D01*
X-146882Y-465000D01*
X-147348Y-462659D01*
X-148667Y-460685D01*
Y-199314D01*
X-147348Y-197341D01*
X-146882Y-195000D01*
X-147348Y-192659D01*
X-148674Y-190674D01*
X-150659Y-189348D01*
X-153000Y-188883D01*
D02*
G37*
G36*
X-241660Y-517250D02*
X-244750D01*
Y-520340D01*
X-244244Y-520239D01*
X-242756Y-519244D01*
X-241761Y-517756D01*
X-241660Y-517250D01*
D02*
G37*
G36*
X-52249Y-469582D02*
X-53480Y-469744D01*
X-55791Y-470702D01*
X-57775Y-472225D01*
X-59298Y-474209D01*
X-60255Y-476520D01*
X-60417Y-477751D01*
X-52249D01*
Y-469582D01*
D02*
G37*
G36*
X-49749Y-469583D02*
Y-477751D01*
X-41582D01*
X-41744Y-476520D01*
X-42702Y-474209D01*
X-44224Y-472225D01*
X-46209Y-470702D01*
X-48520Y-469744D01*
X-49749Y-469583D01*
D02*
G37*
G36*
X-347583Y-509250D02*
X-355750D01*
Y-517417D01*
X-354520Y-517256D01*
X-352209Y-516298D01*
X-350224Y-514776D01*
X-348702Y-512791D01*
X-347744Y-510480D01*
X-347583Y-509250D01*
D02*
G37*
G36*
X-247250Y-511660D02*
X-247756Y-511761D01*
X-249244Y-512756D01*
X-250239Y-514244D01*
X-250340Y-514750D01*
X-247250D01*
Y-511660D01*
D02*
G37*
G36*
X-71000Y-499569D02*
X-73441Y-499891D01*
X-75715Y-500833D01*
X-77668Y-502331D01*
X-79167Y-504285D01*
X-80109Y-506559D01*
X-80430Y-509000D01*
X-80109Y-511441D01*
X-79167Y-513715D01*
X-77668Y-515668D01*
X-75715Y-517167D01*
X-73441Y-518109D01*
X-71000Y-518431D01*
X-68559Y-518109D01*
X-66284Y-517167D01*
X-64331Y-515668D01*
X-62832Y-513715D01*
X-61890Y-511441D01*
X-61569Y-509000D01*
X-61890Y-506559D01*
X-62832Y-504285D01*
X-64331Y-502331D01*
X-66284Y-500833D01*
X-68559Y-499891D01*
X-71000Y-499569D01*
D02*
G37*
G36*
X-358250Y-509250D02*
X-366417D01*
X-366255Y-510480D01*
X-365298Y-512791D01*
X-363775Y-514776D01*
X-361791Y-516298D01*
X-359480Y-517256D01*
X-358250Y-517417D01*
Y-509250D01*
D02*
G37*
G36*
X-244750Y-511660D02*
Y-514750D01*
X-241660D01*
X-241761Y-514244D01*
X-242756Y-512756D01*
X-244244Y-511761D01*
X-244750Y-511660D01*
D02*
G37*
G36*
X-387000Y-496905D02*
X-389871Y-497283D01*
X-392547Y-498392D01*
X-394845Y-500155D01*
X-396608Y-502453D01*
X-397717Y-505129D01*
X-398095Y-508000D01*
X-397717Y-510872D01*
X-396608Y-513548D01*
X-394845Y-515845D01*
X-392547Y-517608D01*
X-389871Y-518717D01*
X-387000Y-519095D01*
X-384128Y-518717D01*
X-381452Y-517608D01*
X-379155Y-515845D01*
X-377391Y-513548D01*
X-376283Y-510872D01*
X-375905Y-508000D01*
X-376283Y-505129D01*
X-377391Y-502453D01*
X-379155Y-500155D01*
X-381452Y-498392D01*
X-384128Y-497283D01*
X-387000Y-496905D01*
D02*
G37*
G36*
X-114250Y-499250D02*
X-117340D01*
X-117239Y-499756D01*
X-116244Y-501245D01*
X-114756Y-502239D01*
X-114250Y-502340D01*
Y-499250D01*
D02*
G37*
G36*
X-358250Y-498583D02*
X-359480Y-498745D01*
X-361791Y-499702D01*
X-363775Y-501225D01*
X-365298Y-503209D01*
X-366255Y-505520D01*
X-366417Y-506750D01*
X-358250D01*
Y-498583D01*
D02*
G37*
G36*
X-355750D02*
Y-506750D01*
X-347583D01*
X-347744Y-505520D01*
X-348702Y-503209D01*
X-350224Y-501225D01*
X-352209Y-499702D01*
X-354520Y-498745D01*
X-355750Y-498583D01*
D02*
G37*
G36*
X-51000Y-437905D02*
X-53871Y-438283D01*
X-56547Y-439392D01*
X-58845Y-441155D01*
X-60608Y-443453D01*
X-61717Y-446128D01*
X-62095Y-449000D01*
X-61717Y-451872D01*
X-60608Y-454548D01*
X-58845Y-456845D01*
X-56547Y-458609D01*
X-53871Y-459717D01*
X-51000Y-460095D01*
X-48128Y-459717D01*
X-45452Y-458609D01*
X-43155Y-456845D01*
X-41391Y-454548D01*
X-40283Y-451872D01*
X-39905Y-449000D01*
X-40283Y-446128D01*
X-41391Y-443453D01*
X-43155Y-441155D01*
X-45452Y-439392D01*
X-48128Y-438283D01*
X-51000Y-437905D01*
D02*
G37*
G36*
X-19250Y-364661D02*
X-19756Y-364761D01*
X-21244Y-365756D01*
X-22239Y-367244D01*
X-22340Y-367750D01*
X-19250D01*
Y-364661D01*
D02*
G37*
G36*
X-16750D02*
Y-367750D01*
X-13661D01*
X-13761Y-367244D01*
X-14756Y-365756D01*
X-16244Y-364761D01*
X-16750Y-364661D01*
D02*
G37*
G36*
X-457583Y-364249D02*
X-465751D01*
Y-372417D01*
X-464520Y-372256D01*
X-462209Y-371298D01*
X-460225Y-369776D01*
X-458702Y-367791D01*
X-457745Y-365480D01*
X-457583Y-364249D01*
D02*
G37*
G36*
X-468251D02*
X-476418D01*
X-476256Y-365480D01*
X-475298Y-367791D01*
X-473776Y-369776D01*
X-471791Y-371298D01*
X-469480Y-372256D01*
X-468251Y-372417D01*
Y-364249D01*
D02*
G37*
G36*
X-327000Y-518569D02*
X-329441Y-518891D01*
X-331715Y-519833D01*
X-333669Y-521331D01*
X-335167Y-523285D01*
X-336109Y-525559D01*
X-336431Y-528000D01*
X-336109Y-530441D01*
X-335167Y-532715D01*
X-333669Y-534669D01*
X-331715Y-536167D01*
X-329441Y-537109D01*
X-327000Y-537431D01*
X-324559Y-537109D01*
X-322285Y-536167D01*
X-320331Y-534669D01*
X-318833Y-532715D01*
X-317891Y-530441D01*
X-317569Y-528000D01*
X-317891Y-525559D01*
X-318833Y-523285D01*
X-320331Y-521331D01*
X-322285Y-519833D01*
X-324559Y-518891D01*
X-327000Y-518569D01*
D02*
G37*
G36*
X-468251Y-353583D02*
X-469480Y-353745D01*
X-471791Y-354702D01*
X-473776Y-356225D01*
X-475298Y-358209D01*
X-476256Y-360520D01*
X-476417Y-361749D01*
X-468251D01*
Y-353583D01*
D02*
G37*
G36*
X-465751Y-353583D02*
Y-361749D01*
X-457583D01*
X-457745Y-360520D01*
X-458702Y-358209D01*
X-460225Y-356225D01*
X-462209Y-354702D01*
X-464520Y-353745D01*
X-465751Y-353583D01*
D02*
G37*
G36*
X-332000Y-398569D02*
X-334441Y-398890D01*
X-336716Y-399833D01*
X-338669Y-401331D01*
X-340167Y-403284D01*
X-341110Y-405559D01*
X-341431Y-408000D01*
X-341110Y-410441D01*
X-340167Y-412715D01*
X-338669Y-414668D01*
X-336716Y-416167D01*
X-334441Y-417109D01*
X-332000Y-417430D01*
X-329559Y-417109D01*
X-327285Y-416167D01*
X-325332Y-414668D01*
X-323833Y-412715D01*
X-322891Y-410441D01*
X-322570Y-408000D01*
X-322891Y-405559D01*
X-323833Y-403284D01*
X-325332Y-401331D01*
X-327285Y-399833D01*
X-329559Y-398890D01*
X-332000Y-398569D01*
D02*
G37*
G36*
X-467000Y-381905D02*
X-469872Y-382283D01*
X-472548Y-383392D01*
X-474846Y-385155D01*
X-476609Y-387453D01*
X-477717Y-390129D01*
X-478095Y-393000D01*
X-477717Y-395872D01*
X-476609Y-398548D01*
X-474846Y-400845D01*
X-472548Y-402608D01*
X-469872Y-403717D01*
X-467000Y-404095D01*
X-464129Y-403717D01*
X-461453Y-402608D01*
X-459155Y-400845D01*
X-457392Y-398548D01*
X-456283Y-395872D01*
X-455905Y-393000D01*
X-456283Y-390129D01*
X-457392Y-387453D01*
X-459155Y-385155D01*
X-461453Y-383392D01*
X-464129Y-382283D01*
X-467000Y-381905D01*
D02*
G37*
G36*
X-71000Y-409569D02*
X-73441Y-409891D01*
X-75715Y-410833D01*
X-77668Y-412332D01*
X-79167Y-414285D01*
X-80109Y-416559D01*
X-80430Y-419000D01*
X-80109Y-421441D01*
X-79167Y-423715D01*
X-77668Y-425669D01*
X-75715Y-427167D01*
X-73441Y-428109D01*
X-71000Y-428431D01*
X-68559Y-428109D01*
X-66284Y-427167D01*
X-64331Y-425669D01*
X-62832Y-423715D01*
X-61890Y-421441D01*
X-61569Y-419000D01*
X-61890Y-416559D01*
X-62832Y-414285D01*
X-64331Y-412332D01*
X-66284Y-410833D01*
X-68559Y-409891D01*
X-71000Y-409569D01*
D02*
G37*
G36*
X-512000Y-398569D02*
X-514441Y-398890D01*
X-516715Y-399833D01*
X-518668Y-401331D01*
X-520167Y-403284D01*
X-521109Y-405559D01*
X-521431Y-408000D01*
X-521109Y-410441D01*
X-520167Y-412715D01*
X-518668Y-414668D01*
X-516715Y-416167D01*
X-514441Y-417109D01*
X-512000Y-417430D01*
X-509559Y-417109D01*
X-507285Y-416167D01*
X-505331Y-414668D01*
X-503833Y-412715D01*
X-502891Y-410441D01*
X-502569Y-408000D01*
X-502891Y-405559D01*
X-503833Y-403284D01*
X-505331Y-401331D01*
X-507285Y-399833D01*
X-509559Y-398890D01*
X-512000Y-398569D01*
D02*
G37*
G36*
X-437000Y-381905D02*
X-439871Y-382283D01*
X-442547Y-383392D01*
X-444845Y-385155D01*
X-446608Y-387453D01*
X-447717Y-390129D01*
X-448095Y-393000D01*
X-447717Y-395872D01*
X-446608Y-398548D01*
X-444845Y-400845D01*
X-442547Y-402608D01*
X-439871Y-403717D01*
X-437000Y-404095D01*
X-434128Y-403717D01*
X-431452Y-402608D01*
X-429155Y-400845D01*
X-427391Y-398548D01*
X-426283Y-395872D01*
X-425905Y-393000D01*
X-426283Y-390129D01*
X-427391Y-387453D01*
X-429155Y-385155D01*
X-431452Y-383392D01*
X-434128Y-382283D01*
X-437000Y-381905D01*
D02*
G37*
G36*
X-13661Y-370250D02*
X-16750D01*
Y-373340D01*
X-16244Y-373239D01*
X-14756Y-372244D01*
X-13761Y-370756D01*
X-13661Y-370250D01*
D02*
G37*
G36*
X-247250Y-517250D02*
X-250340D01*
X-250239Y-517756D01*
X-249244Y-519244D01*
X-247756Y-520239D01*
X-247250Y-520340D01*
Y-517250D01*
D02*
G37*
G36*
X-377000Y-381905D02*
X-379871Y-382283D01*
X-382547Y-383392D01*
X-384845Y-385155D01*
X-386608Y-387453D01*
X-387717Y-390129D01*
X-388095Y-393000D01*
X-387717Y-395872D01*
X-386608Y-398548D01*
X-384845Y-400845D01*
X-382547Y-402608D01*
X-379871Y-403717D01*
X-377000Y-404095D01*
X-374128Y-403717D01*
X-371452Y-402608D01*
X-369155Y-400845D01*
X-367391Y-398548D01*
X-366283Y-395872D01*
X-365905Y-393000D01*
X-366283Y-390129D01*
X-367391Y-387453D01*
X-369155Y-385155D01*
X-371452Y-383392D01*
X-374128Y-382283D01*
X-377000Y-381905D01*
D02*
G37*
G36*
X-19250Y-370250D02*
X-22340D01*
X-22239Y-370756D01*
X-21244Y-372244D01*
X-19756Y-373239D01*
X-19250Y-373340D01*
Y-370250D01*
D02*
G37*
G36*
X-257250Y248750D02*
X-260339D01*
X-260239Y248245D01*
X-259244Y246756D01*
X-257756Y245762D01*
X-257250Y245661D01*
Y248750D01*
D02*
G37*
G36*
X-352250Y250750D02*
X-355339D01*
X-355239Y250244D01*
X-354244Y248755D01*
X-352756Y247761D01*
X-352250Y247660D01*
Y250750D01*
D02*
G37*
G36*
X-346660D02*
X-349750D01*
Y247660D01*
X-349244Y247761D01*
X-347756Y248755D01*
X-346761Y250244D01*
X-346660Y250750D01*
D02*
G37*
G36*
X-206661Y262750D02*
X-209750D01*
Y259660D01*
X-209244Y259761D01*
X-207756Y260756D01*
X-206761Y262244D01*
X-206661Y262750D01*
D02*
G37*
G36*
X-414958Y286095D02*
X-417829Y285717D01*
X-420505Y284608D01*
X-422803Y282845D01*
X-424566Y280548D01*
X-425674Y277872D01*
X-426052Y275000D01*
X-425674Y272128D01*
X-424566Y269452D01*
X-422803Y267155D01*
X-420505Y265392D01*
X-419205Y264853D01*
X-419458Y263583D01*
X-438782D01*
X-439209Y264100D01*
X-439256Y264402D01*
X-438974Y265726D01*
X-437112Y267155D01*
X-435349Y269452D01*
X-434241Y272128D01*
X-433862Y275000D01*
X-434241Y277872D01*
X-435349Y280548D01*
X-437112Y282845D01*
X-439410Y284608D01*
X-442086Y285717D01*
X-444957Y286095D01*
X-447829Y285717D01*
X-450505Y284608D01*
X-452803Y282845D01*
X-454566Y280548D01*
X-455674Y277872D01*
X-456052Y275000D01*
X-455674Y272128D01*
X-454566Y269452D01*
X-452803Y267155D01*
X-450505Y265392D01*
X-449291Y264889D01*
Y262542D01*
X-448961Y260884D01*
X-448022Y259478D01*
X-444729Y256186D01*
X-443323Y255247D01*
X-441665Y254917D01*
X-355810D01*
X-355299Y253960D01*
X-355261Y253647D01*
X-355339Y253250D01*
X-346660D01*
X-346739Y253647D01*
X-346701Y253960D01*
X-346190Y254917D01*
X-339291D01*
X-338560Y254186D01*
X-337155Y253247D01*
X-335496Y252917D01*
X-260810D01*
X-260299Y251961D01*
X-260260Y251647D01*
X-260339Y251250D01*
X-256000D01*
Y250000D01*
X-254750D01*
Y245661D01*
X-254244Y245762D01*
X-252756Y246756D01*
X-251823Y248152D01*
X-251574Y248347D01*
X-250536Y248661D01*
X-246810Y244936D01*
X-245405Y243997D01*
X-243746Y243667D01*
X-231315D01*
X-229341Y242348D01*
X-227000Y241882D01*
X-224659Y242348D01*
X-222674Y243674D01*
X-221348Y245659D01*
X-220882Y248000D01*
X-221348Y250341D01*
X-222674Y252326D01*
X-224659Y253652D01*
X-227000Y254118D01*
X-229341Y253652D01*
X-231315Y252333D01*
X-241952D01*
X-249933Y260314D01*
X-251339Y261254D01*
X-252997Y261584D01*
X-333702D01*
X-334432Y262314D01*
X-335838Y263253D01*
X-337496Y263583D01*
X-410457D01*
X-410710Y264853D01*
X-409410Y265392D01*
X-407112Y267155D01*
X-405349Y269452D01*
X-404241Y272128D01*
X-403863Y275000D01*
X-404241Y277872D01*
X-405349Y280548D01*
X-407112Y282845D01*
X-409410Y284608D01*
X-412086Y285717D01*
X-414958Y286095D01*
D02*
G37*
G36*
X-212250Y262750D02*
X-215340D01*
X-215239Y262244D01*
X-214244Y260756D01*
X-212756Y259761D01*
X-212250Y259660D01*
Y262750D01*
D02*
G37*
G36*
X-43400Y187604D02*
X-47225Y187228D01*
X-50902Y186112D01*
X-54292Y184300D01*
X-57262Y181862D01*
X-59700Y178892D01*
X-61512Y175502D01*
X-62628Y171825D01*
X-63004Y168000D01*
X-62628Y164175D01*
X-61512Y160498D01*
X-59700Y157108D01*
X-57262Y154138D01*
X-54292Y151699D01*
X-50902Y149888D01*
X-47225Y148772D01*
X-43400Y148396D01*
X-39575Y148772D01*
X-35898Y149888D01*
X-32508Y151699D01*
X-29538Y154138D01*
X-27099Y157108D01*
X-25288Y160498D01*
X-24172Y164175D01*
X-23796Y168000D01*
X-24172Y171825D01*
X-25288Y175502D01*
X-27099Y178892D01*
X-29538Y181862D01*
X-32508Y184300D01*
X-35898Y186112D01*
X-39575Y187228D01*
X-43400Y187604D01*
D02*
G37*
G36*
X-426000Y184095D02*
X-428871Y183717D01*
X-431547Y182609D01*
X-433845Y180846D01*
X-435608Y178548D01*
X-436717Y175872D01*
X-437095Y173000D01*
X-436717Y170129D01*
X-435608Y167453D01*
X-433845Y165155D01*
X-431547Y163392D01*
X-428871Y162283D01*
X-426000Y161905D01*
X-423128Y162283D01*
X-420452Y163392D01*
X-418154Y165155D01*
X-416391Y167453D01*
X-415283Y170129D01*
X-414905Y173000D01*
X-415283Y175872D01*
X-416391Y178548D01*
X-418154Y180846D01*
X-420452Y182609D01*
X-423128Y183717D01*
X-426000Y184095D01*
D02*
G37*
G36*
X-424749Y152417D02*
Y144250D01*
X-416582D01*
X-416744Y145480D01*
X-417702Y147791D01*
X-419224Y149775D01*
X-421209Y151298D01*
X-423520Y152255D01*
X-424749Y152417D01*
D02*
G37*
G36*
X-145000Y187604D02*
X-148825Y187228D01*
X-152502Y186112D01*
X-155892Y184300D01*
X-158862Y181862D01*
X-161301Y178892D01*
X-163112Y175502D01*
X-164228Y171825D01*
X-164604Y168000D01*
X-164228Y164175D01*
X-163112Y160498D01*
X-161301Y157108D01*
X-158862Y154138D01*
X-155892Y151699D01*
X-152502Y149888D01*
X-148825Y148772D01*
X-145000Y148396D01*
X-141175Y148772D01*
X-137498Y149888D01*
X-134108Y151699D01*
X-131138Y154138D01*
X-128700Y157108D01*
X-126888Y160498D01*
X-125772Y164175D01*
X-125396Y168000D01*
X-125772Y171825D01*
X-126888Y175502D01*
X-128700Y178892D01*
X-131138Y181862D01*
X-134108Y184300D01*
X-137498Y186112D01*
X-141175Y187228D01*
X-145000Y187604D01*
D02*
G37*
G36*
X-237250Y193750D02*
X-240340D01*
X-240239Y193244D01*
X-239244Y191756D01*
X-237756Y190761D01*
X-237250Y190661D01*
Y193750D01*
D02*
G37*
G36*
Y199340D02*
X-237756Y199239D01*
X-239244Y198244D01*
X-240239Y196756D01*
X-240340Y196250D01*
X-237250D01*
Y199340D01*
D02*
G37*
G36*
X-234750D02*
Y196250D01*
X-231661D01*
X-231761Y196756D01*
X-232756Y198244D01*
X-234244Y199239D01*
X-234750Y199340D01*
D02*
G37*
G36*
X-231661Y193750D02*
X-234750D01*
Y190661D01*
X-234244Y190761D01*
X-232756Y191756D01*
X-231761Y193244D01*
X-231661Y193750D01*
D02*
G37*
G36*
X-416000Y212431D02*
X-418441Y212110D01*
X-420715Y211167D01*
X-422668Y209669D01*
X-424167Y207715D01*
X-425109Y205441D01*
X-425430Y203000D01*
X-425109Y200559D01*
X-424167Y198285D01*
X-422668Y196332D01*
X-420715Y194833D01*
X-418441Y193891D01*
X-416000Y193570D01*
X-413559Y193891D01*
X-411284Y194833D01*
X-409331Y196332D01*
X-407833Y198285D01*
X-406890Y200559D01*
X-406569Y203000D01*
X-406890Y205441D01*
X-407833Y207715D01*
X-409331Y209669D01*
X-411284Y211167D01*
X-413559Y212110D01*
X-416000Y212431D01*
D02*
G37*
G36*
X-212250Y268339D02*
X-212756Y268239D01*
X-214244Y267244D01*
X-215239Y265756D01*
X-215340Y265250D01*
X-212250D01*
Y268339D01*
D02*
G37*
G36*
X-201250Y327340D02*
X-201756Y327239D01*
X-203244Y326244D01*
X-204239Y324756D01*
X-204339Y324250D01*
X-201250D01*
Y327340D01*
D02*
G37*
G36*
X-198750D02*
Y324250D01*
X-195660D01*
X-195761Y324756D01*
X-196756Y326244D01*
X-198244Y327239D01*
X-198750Y327340D01*
D02*
G37*
G36*
X-601000Y341431D02*
X-603441Y341109D01*
X-605715Y340167D01*
X-607668Y338669D01*
X-609167Y336715D01*
X-610109Y334441D01*
X-610431Y332000D01*
X-610109Y329559D01*
X-609167Y327285D01*
X-607668Y325331D01*
X-605715Y323833D01*
X-603441Y322891D01*
X-601000Y322569D01*
X-598559Y322891D01*
X-596285Y323833D01*
X-594332Y325331D01*
X-592833Y327285D01*
X-591891Y329559D01*
X-591569Y332000D01*
X-591891Y334441D01*
X-592833Y336715D01*
X-594332Y338669D01*
X-596285Y340167D01*
X-598559Y341109D01*
X-601000Y341431D01*
D02*
G37*
G36*
X-511000D02*
X-513441Y341109D01*
X-515715Y340167D01*
X-517668Y338669D01*
X-519167Y336715D01*
X-520109Y334441D01*
X-520431Y332000D01*
X-520109Y329559D01*
X-519167Y327285D01*
X-517668Y325331D01*
X-515715Y323833D01*
X-513441Y322891D01*
X-511000Y322569D01*
X-508559Y322891D01*
X-506285Y323833D01*
X-504332Y325331D01*
X-502833Y327285D01*
X-501891Y329559D01*
X-501569Y332000D01*
X-501891Y334441D01*
X-502833Y336715D01*
X-504332Y338669D01*
X-506285Y340167D01*
X-508559Y341109D01*
X-511000Y341431D01*
D02*
G37*
G36*
X-454957Y344431D02*
X-457398Y344110D01*
X-459673Y343168D01*
X-461626Y341669D01*
X-463125Y339716D01*
X-464067Y337441D01*
X-464388Y335000D01*
X-464067Y332560D01*
X-463125Y330285D01*
X-461626Y328332D01*
X-459673Y326833D01*
X-457398Y325891D01*
X-454957Y325570D01*
X-452517Y325891D01*
X-450242Y326833D01*
X-448289Y328332D01*
X-446790Y330285D01*
X-445848Y332560D01*
X-445527Y335000D01*
X-445848Y337441D01*
X-446790Y339716D01*
X-448289Y341669D01*
X-450242Y343168D01*
X-452517Y344110D01*
X-454957Y344431D01*
D02*
G37*
G36*
X-357250Y356340D02*
X-357756Y356239D01*
X-359244Y355244D01*
X-360239Y353756D01*
X-360340Y353250D01*
X-357250D01*
Y356340D01*
D02*
G37*
G36*
X-354750D02*
Y353250D01*
X-351661D01*
X-351761Y353756D01*
X-352756Y355244D01*
X-354244Y356239D01*
X-354750Y356340D01*
D02*
G37*
G36*
X-357250Y350750D02*
X-360340D01*
X-360239Y350244D01*
X-359244Y348756D01*
X-357756Y347761D01*
X-357250Y347661D01*
Y350750D01*
D02*
G37*
G36*
X-351661D02*
X-354750D01*
Y347661D01*
X-354244Y347761D01*
X-352756Y348756D01*
X-351761Y350244D01*
X-351661Y350750D01*
D02*
G37*
G36*
X-571000Y323095D02*
X-573871Y322717D01*
X-576547Y321609D01*
X-578845Y319845D01*
X-580608Y317547D01*
X-581717Y314872D01*
X-582095Y312000D01*
X-581717Y309128D01*
X-580608Y306453D01*
X-578845Y304155D01*
X-576547Y302391D01*
X-573871Y301283D01*
X-571000Y300905D01*
X-568128Y301283D01*
X-565452Y302391D01*
X-563155Y304155D01*
X-561391Y306453D01*
X-560283Y309128D01*
X-559905Y312000D01*
X-560283Y314872D01*
X-561391Y317547D01*
X-563155Y319845D01*
X-565452Y321609D01*
X-568128Y322717D01*
X-571000Y323095D01*
D02*
G37*
G36*
X-356250Y305750D02*
X-359339D01*
X-359239Y305244D01*
X-358244Y303756D01*
X-356756Y302761D01*
X-356250Y302661D01*
Y305750D01*
D02*
G37*
G36*
X-209750Y268339D02*
Y265250D01*
X-206661D01*
X-206761Y265756D01*
X-207756Y267244D01*
X-209244Y268239D01*
X-209750Y268339D01*
D02*
G37*
G36*
X-541000Y323095D02*
X-543871Y322717D01*
X-546547Y321609D01*
X-548845Y319845D01*
X-550608Y317547D01*
X-551717Y314872D01*
X-552095Y312000D01*
X-551717Y309128D01*
X-550608Y306453D01*
X-548845Y304155D01*
X-546547Y302391D01*
X-543871Y301283D01*
X-541000Y300905D01*
X-538128Y301283D01*
X-536914Y301786D01*
X-524814Y289686D01*
X-523408Y288746D01*
X-521750Y288417D01*
X-358444D01*
X-358341Y288348D01*
X-356000Y287882D01*
X-353659Y288348D01*
X-351674Y289674D01*
X-350348Y291659D01*
X-349883Y294000D01*
X-350348Y296341D01*
X-351674Y298326D01*
X-353659Y299652D01*
X-356000Y300117D01*
X-358341Y299652D01*
X-360326Y298326D01*
X-361156Y297083D01*
X-405566D01*
X-406193Y298353D01*
X-405349Y299452D01*
X-404241Y302128D01*
X-403863Y305000D01*
X-404241Y307871D01*
X-405349Y310547D01*
X-407112Y312845D01*
X-409410Y314608D01*
X-412086Y315717D01*
X-414958Y316095D01*
X-417829Y315717D01*
X-420505Y314608D01*
X-422803Y312845D01*
X-424566Y310547D01*
X-425674Y307871D01*
X-426052Y305000D01*
X-425674Y302128D01*
X-424566Y299452D01*
X-423722Y298353D01*
X-424349Y297083D01*
X-435566D01*
X-436193Y298353D01*
X-435349Y299452D01*
X-434241Y302128D01*
X-433862Y305000D01*
X-434241Y307871D01*
X-435349Y310547D01*
X-437112Y312845D01*
X-439410Y314608D01*
X-442086Y315717D01*
X-444957Y316095D01*
X-447829Y315717D01*
X-450505Y314608D01*
X-452803Y312845D01*
X-454566Y310547D01*
X-455674Y307871D01*
X-456052Y305000D01*
X-455674Y302128D01*
X-454566Y299452D01*
X-453722Y298353D01*
X-454349Y297083D01*
X-519955D01*
X-530786Y307914D01*
X-530283Y309128D01*
X-529905Y312000D01*
X-530283Y314872D01*
X-531391Y317547D01*
X-533155Y319845D01*
X-535452Y321609D01*
X-538128Y322717D01*
X-541000Y323095D01*
D02*
G37*
G36*
X-350660Y305750D02*
X-353750D01*
Y302661D01*
X-353244Y302761D01*
X-351756Y303756D01*
X-350761Y305244D01*
X-350660Y305750D01*
D02*
G37*
G36*
X-201250Y321750D02*
X-204339D01*
X-204239Y321244D01*
X-203244Y319756D01*
X-201756Y318761D01*
X-201250Y318660D01*
Y321750D01*
D02*
G37*
G36*
X-195660D02*
X-198750D01*
Y318660D01*
X-198244Y318761D01*
X-196756Y319756D01*
X-195761Y321244D01*
X-195660Y321750D01*
D02*
G37*
G36*
X-356250Y311339D02*
X-356756Y311239D01*
X-358244Y310244D01*
X-359239Y308756D01*
X-359339Y308250D01*
X-356250D01*
Y311339D01*
D02*
G37*
G36*
X-353750D02*
Y308250D01*
X-350660D01*
X-350761Y308756D01*
X-351756Y310244D01*
X-353244Y311239D01*
X-353750Y311339D01*
D02*
G37*
G36*
X-140250Y-176250D02*
X-143340D01*
X-143239Y-176756D01*
X-142244Y-178244D01*
X-140756Y-179239D01*
X-140250Y-179340D01*
Y-176250D01*
D02*
G37*
G36*
X-134661D02*
X-137750D01*
Y-179340D01*
X-137244Y-179239D01*
X-135756Y-178244D01*
X-134761Y-176756D01*
X-134661Y-176250D01*
D02*
G37*
G36*
X-140250Y-170660D02*
X-140756Y-170761D01*
X-142244Y-171756D01*
X-143239Y-173244D01*
X-143340Y-173750D01*
X-140250D01*
Y-170660D01*
D02*
G37*
G36*
X-137750D02*
Y-173750D01*
X-134661D01*
X-134761Y-173244D01*
X-135756Y-171756D01*
X-137244Y-170761D01*
X-137750Y-170660D01*
D02*
G37*
G36*
X-246600Y85727D02*
X-249273Y85375D01*
X-251764Y84344D01*
X-253903Y82702D01*
X-255544Y80563D01*
X-256576Y78073D01*
X-256927Y75400D01*
X-256576Y72727D01*
X-255544Y70236D01*
X-253903Y68097D01*
X-251764Y66456D01*
X-249273Y65424D01*
X-246600Y65072D01*
X-243927Y65424D01*
X-241436Y66456D01*
X-239298Y68097D01*
X-237656Y70236D01*
X-236625Y72727D01*
X-236273Y75400D01*
X-236625Y78073D01*
X-237656Y80563D01*
X-239298Y82702D01*
X-241436Y84344D01*
X-243927Y85375D01*
X-246600Y85727D01*
D02*
G37*
G36*
X-221200D02*
X-223873Y85375D01*
X-226364Y84344D01*
X-228503Y82702D01*
X-230144Y80563D01*
X-231175Y78073D01*
X-231527Y75400D01*
X-231175Y72727D01*
X-230144Y70236D01*
X-228503Y68097D01*
X-226364Y66456D01*
X-223873Y65424D01*
X-221200Y65072D01*
X-218527Y65424D01*
X-216036Y66456D01*
X-213898Y68097D01*
X-212256Y70236D01*
X-211225Y72727D01*
X-210873Y75400D01*
X-211225Y78073D01*
X-212256Y80563D01*
X-213898Y82702D01*
X-216036Y84344D01*
X-218527Y85375D01*
X-221200Y85727D01*
D02*
G37*
G36*
X-297400D02*
X-300073Y85375D01*
X-302564Y84344D01*
X-304703Y82702D01*
X-306344Y80563D01*
X-307376Y78073D01*
X-307727Y75400D01*
X-307376Y72727D01*
X-306344Y70236D01*
X-304703Y68097D01*
X-302564Y66456D01*
X-300073Y65424D01*
X-297400Y65072D01*
X-294727Y65424D01*
X-292236Y66456D01*
X-290098Y68097D01*
X-288456Y70236D01*
X-287425Y72727D01*
X-287073Y75400D01*
X-287425Y78073D01*
X-288456Y80563D01*
X-290098Y82702D01*
X-292236Y84344D01*
X-294727Y85375D01*
X-297400Y85727D01*
D02*
G37*
G36*
X-272000D02*
X-274673Y85375D01*
X-277164Y84344D01*
X-279303Y82702D01*
X-280944Y80563D01*
X-281975Y78073D01*
X-282327Y75400D01*
X-281975Y72727D01*
X-280944Y70236D01*
X-279303Y68097D01*
X-277164Y66456D01*
X-274673Y65424D01*
X-272000Y65072D01*
X-269327Y65424D01*
X-266836Y66456D01*
X-264698Y68097D01*
X-263056Y70236D01*
X-262025Y72727D01*
X-261673Y75400D01*
X-262025Y78073D01*
X-263056Y80563D01*
X-264698Y82702D01*
X-266836Y84344D01*
X-269327Y85375D01*
X-272000Y85727D01*
D02*
G37*
G36*
X-416000Y122430D02*
X-418441Y122109D01*
X-420715Y121167D01*
X-422668Y119668D01*
X-424167Y117715D01*
X-425109Y115441D01*
X-425430Y113000D01*
X-425109Y110559D01*
X-424167Y108285D01*
X-422668Y106331D01*
X-420715Y104833D01*
X-418441Y103890D01*
X-416000Y103569D01*
X-413559Y103890D01*
X-411284Y104833D01*
X-409331Y106331D01*
X-407833Y108285D01*
X-406890Y110559D01*
X-406569Y113000D01*
X-406890Y115441D01*
X-407833Y117715D01*
X-409331Y119668D01*
X-411284Y121167D01*
X-413559Y122109D01*
X-416000Y122430D01*
D02*
G37*
G36*
X-416582Y141750D02*
X-424749D01*
Y133582D01*
X-423520Y133744D01*
X-421209Y134702D01*
X-419224Y136224D01*
X-417702Y138209D01*
X-416744Y140520D01*
X-416582Y141750D01*
D02*
G37*
G36*
X-427249Y152417D02*
X-428480Y152255D01*
X-430791Y151298D01*
X-432775Y149775D01*
X-434298Y147791D01*
X-435255Y145480D01*
X-435417Y144250D01*
X-427249D01*
Y152417D01*
D02*
G37*
G36*
Y141750D02*
X-435417D01*
X-435255Y140520D01*
X-434298Y138209D01*
X-432775Y136224D01*
X-430791Y134702D01*
X-428480Y133744D01*
X-427249Y133582D01*
Y141750D01*
D02*
G37*
G36*
X-221200Y34927D02*
X-223873Y34575D01*
X-226364Y33544D01*
X-228503Y31902D01*
X-230144Y29763D01*
X-231175Y27273D01*
X-231527Y24600D01*
X-231175Y21927D01*
X-230144Y19436D01*
X-228503Y17297D01*
X-226364Y15656D01*
X-223873Y14624D01*
X-221200Y14272D01*
X-218527Y14624D01*
X-216036Y15656D01*
X-213898Y17297D01*
X-212256Y19436D01*
X-211225Y21927D01*
X-210873Y24600D01*
X-211225Y27273D01*
X-212256Y29763D01*
X-213898Y31902D01*
X-216036Y33544D01*
X-218527Y34575D01*
X-221200Y34927D01*
D02*
G37*
G36*
X-424400Y60327D02*
X-427073Y59975D01*
X-429564Y58944D01*
X-431703Y57302D01*
X-433344Y55163D01*
X-434375Y52673D01*
X-434727Y50000D01*
X-434375Y47327D01*
X-433344Y44836D01*
X-431703Y42697D01*
X-429564Y41056D01*
X-427073Y40024D01*
X-424400Y39672D01*
X-421727Y40024D01*
X-419236Y41056D01*
X-417098Y42697D01*
X-415456Y44836D01*
X-414425Y47327D01*
X-414073Y50000D01*
X-414425Y52673D01*
X-415456Y55163D01*
X-417098Y57302D01*
X-419236Y58944D01*
X-421727Y59975D01*
X-424400Y60327D01*
D02*
G37*
G36*
X-221200Y-15873D02*
X-223873Y-16225D01*
X-226364Y-17256D01*
X-228503Y-18898D01*
X-230144Y-21037D01*
X-231175Y-23527D01*
X-231527Y-26200D01*
X-231175Y-28873D01*
X-230144Y-31364D01*
X-228503Y-33503D01*
X-226364Y-35144D01*
X-223873Y-36176D01*
X-221200Y-36528D01*
X-218527Y-36176D01*
X-216036Y-35144D01*
X-213898Y-33503D01*
X-212256Y-31364D01*
X-211225Y-28873D01*
X-210873Y-26200D01*
X-211225Y-23527D01*
X-212256Y-21037D01*
X-213898Y-18898D01*
X-216036Y-17256D01*
X-218527Y-16225D01*
X-221200Y-15873D01*
D02*
G37*
G36*
Y9527D02*
X-223873Y9175D01*
X-226364Y8144D01*
X-228503Y6502D01*
X-230144Y4363D01*
X-231175Y1873D01*
X-231527Y-800D01*
X-231175Y-3473D01*
X-230144Y-5964D01*
X-228503Y-8103D01*
X-226364Y-9744D01*
X-223873Y-10776D01*
X-221200Y-11128D01*
X-218527Y-10776D01*
X-216036Y-9744D01*
X-213898Y-8103D01*
X-212256Y-5964D01*
X-211225Y-3473D01*
X-210873Y-800D01*
X-211225Y1873D01*
X-212256Y4363D01*
X-213898Y6502D01*
X-216036Y8144D01*
X-218527Y9175D01*
X-221200Y9527D01*
D02*
G37*
G36*
Y60327D02*
X-223873Y59975D01*
X-226364Y58944D01*
X-228503Y57302D01*
X-230144Y55163D01*
X-231175Y52673D01*
X-231527Y50000D01*
X-231175Y47327D01*
X-230144Y44836D01*
X-228503Y42697D01*
X-226364Y41056D01*
X-223873Y40024D01*
X-221200Y39672D01*
X-218527Y40024D01*
X-216036Y41056D01*
X-213898Y42697D01*
X-212256Y44836D01*
X-211225Y47327D01*
X-210873Y50000D01*
X-211225Y52673D01*
X-212256Y55163D01*
X-213898Y57302D01*
X-216036Y58944D01*
X-218527Y59975D01*
X-221200Y60327D01*
D02*
G37*
G36*
X-373600Y85727D02*
X-376273Y85375D01*
X-378764Y84344D01*
X-380903Y82702D01*
X-382544Y80563D01*
X-383576Y78073D01*
X-383927Y75400D01*
X-383576Y72727D01*
X-382544Y70236D01*
X-380903Y68097D01*
X-378764Y66456D01*
X-376273Y65424D01*
X-373600Y65072D01*
X-370927Y65424D01*
X-368436Y66456D01*
X-366298Y68097D01*
X-364656Y70236D01*
X-363625Y72727D01*
X-363273Y75400D01*
X-363625Y78073D01*
X-364656Y80563D01*
X-366298Y82702D01*
X-368436Y84344D01*
X-370927Y85375D01*
X-373600Y85727D01*
D02*
G37*
G36*
X-322800D02*
X-325473Y85375D01*
X-327964Y84344D01*
X-330103Y82702D01*
X-331744Y80563D01*
X-332775Y78073D01*
X-333127Y75400D01*
X-332775Y72727D01*
X-331744Y70236D01*
X-330103Y68097D01*
X-327964Y66456D01*
X-325473Y65424D01*
X-322800Y65072D01*
X-320127Y65424D01*
X-317636Y66456D01*
X-315498Y68097D01*
X-313856Y70236D01*
X-312825Y72727D01*
X-312473Y75400D01*
X-312825Y78073D01*
X-313856Y80563D01*
X-315498Y82702D01*
X-317636Y84344D01*
X-320127Y85375D01*
X-322800Y85727D01*
D02*
G37*
G36*
X-424400D02*
X-427073Y85375D01*
X-429564Y84344D01*
X-431703Y82702D01*
X-433344Y80563D01*
X-434375Y78073D01*
X-434727Y75400D01*
X-434375Y72727D01*
X-433344Y70236D01*
X-431703Y68097D01*
X-429564Y66456D01*
X-427073Y65424D01*
X-424400Y65072D01*
X-421727Y65424D01*
X-419236Y66456D01*
X-417098Y68097D01*
X-415456Y70236D01*
X-414425Y72727D01*
X-414073Y75400D01*
X-414425Y78073D01*
X-415456Y80563D01*
X-417098Y82702D01*
X-419236Y84344D01*
X-421727Y85375D01*
X-424400Y85727D01*
D02*
G37*
G36*
X-399000D02*
X-401673Y85375D01*
X-404164Y84344D01*
X-406303Y82702D01*
X-407944Y80563D01*
X-408975Y78073D01*
X-409327Y75400D01*
X-408975Y72727D01*
X-407944Y70236D01*
X-406303Y68097D01*
X-404164Y66456D01*
X-401673Y65424D01*
X-399000Y65072D01*
X-396327Y65424D01*
X-393836Y66456D01*
X-391698Y68097D01*
X-390056Y70236D01*
X-389025Y72727D01*
X-388673Y75400D01*
X-389025Y78073D01*
X-390056Y80563D01*
X-391698Y82702D01*
X-393836Y84344D01*
X-396327Y85375D01*
X-399000Y85727D01*
D02*
G37*
G36*
X-432250Y-301250D02*
X-435340D01*
X-435239Y-301756D01*
X-434244Y-303244D01*
X-432756Y-304239D01*
X-432250Y-304340D01*
Y-301250D01*
D02*
G37*
G36*
X-426660D02*
X-429750D01*
Y-304340D01*
X-429244Y-304239D01*
X-427756Y-303244D01*
X-426761Y-301756D01*
X-426660Y-301250D01*
D02*
G37*
G36*
X-204000Y-308569D02*
X-206441Y-308891D01*
X-208716Y-309833D01*
X-210669Y-311332D01*
X-212167Y-313285D01*
X-213110Y-315559D01*
X-213431Y-318000D01*
X-213110Y-320441D01*
X-212167Y-322715D01*
X-210669Y-324669D01*
X-208716Y-326167D01*
X-206441Y-327109D01*
X-204000Y-327431D01*
X-201559Y-327109D01*
X-199285Y-326167D01*
X-197332Y-324669D01*
X-195833Y-322715D01*
X-194891Y-320441D01*
X-194570Y-318000D01*
X-194891Y-315559D01*
X-195833Y-313285D01*
X-197332Y-311332D01*
X-199285Y-309833D01*
X-201559Y-308891D01*
X-204000Y-308569D01*
D02*
G37*
G36*
X-321250Y-301250D02*
X-324339D01*
X-324239Y-301756D01*
X-323244Y-303244D01*
X-321756Y-304239D01*
X-321250Y-304340D01*
Y-301250D01*
D02*
G37*
G36*
X-429750Y-295660D02*
Y-298750D01*
X-426660D01*
X-426761Y-298244D01*
X-427756Y-296756D01*
X-429244Y-295761D01*
X-429750Y-295660D01*
D02*
G37*
G36*
X-321250D02*
X-321756Y-295761D01*
X-323244Y-296756D01*
X-324239Y-298244D01*
X-324339Y-298750D01*
X-321250D01*
Y-295660D01*
D02*
G37*
G36*
X-315660Y-301250D02*
X-318750D01*
Y-304340D01*
X-318244Y-304239D01*
X-316756Y-303244D01*
X-315761Y-301756D01*
X-315660Y-301250D01*
D02*
G37*
G36*
X-432250Y-295660D02*
X-432756Y-295761D01*
X-434244Y-296756D01*
X-435239Y-298244D01*
X-435340Y-298750D01*
X-432250D01*
Y-295660D01*
D02*
G37*
G36*
X-254583Y-339249D02*
X-262751D01*
Y-347417D01*
X-261520Y-347255D01*
X-259209Y-346298D01*
X-257225Y-344775D01*
X-255702Y-342791D01*
X-254745Y-340480D01*
X-254583Y-339249D01*
D02*
G37*
G36*
X-265251D02*
X-273418D01*
X-273256Y-340480D01*
X-272298Y-342791D01*
X-270776Y-344775D01*
X-268791Y-346298D01*
X-266480Y-347255D01*
X-265251Y-347417D01*
Y-339249D01*
D02*
G37*
G36*
X-181660Y-345250D02*
X-184750D01*
Y-348340D01*
X-184244Y-348239D01*
X-182755Y-347244D01*
X-181761Y-345756D01*
X-181660Y-345250D01*
D02*
G37*
G36*
X-187250Y-339660D02*
X-187756Y-339761D01*
X-189244Y-340756D01*
X-190239Y-342244D01*
X-190339Y-342750D01*
X-187250D01*
Y-339660D01*
D02*
G37*
G36*
X-262751Y-328582D02*
Y-336749D01*
X-254583D01*
X-254745Y-335520D01*
X-255702Y-333209D01*
X-257225Y-331225D01*
X-259209Y-329702D01*
X-261520Y-328745D01*
X-262751Y-328582D01*
D02*
G37*
G36*
X-294000Y-308569D02*
X-296441Y-308891D01*
X-298715Y-309833D01*
X-300669Y-311332D01*
X-302167Y-313285D01*
X-303109Y-315559D01*
X-303431Y-318000D01*
X-303109Y-320441D01*
X-302167Y-322715D01*
X-300669Y-324669D01*
X-298715Y-326167D01*
X-296441Y-327109D01*
X-294000Y-327431D01*
X-291559Y-327109D01*
X-289285Y-326167D01*
X-287332Y-324669D01*
X-285833Y-322715D01*
X-284891Y-320441D01*
X-284569Y-318000D01*
X-284891Y-315559D01*
X-285833Y-313285D01*
X-287332Y-311332D01*
X-289285Y-309833D01*
X-291559Y-308891D01*
X-294000Y-308569D01*
D02*
G37*
G36*
X-184750Y-339660D02*
Y-342750D01*
X-181660D01*
X-181761Y-342244D01*
X-182755Y-340756D01*
X-184244Y-339761D01*
X-184750Y-339660D01*
D02*
G37*
G36*
X-265251Y-328583D02*
X-266480Y-328745D01*
X-268791Y-329702D01*
X-270776Y-331225D01*
X-272298Y-333209D01*
X-273256Y-335520D01*
X-273417Y-336749D01*
X-265251D01*
Y-328583D01*
D02*
G37*
G36*
X-376250Y-255250D02*
X-379339D01*
X-379239Y-255756D01*
X-378244Y-257244D01*
X-376756Y-258239D01*
X-376250Y-258340D01*
Y-255250D01*
D02*
G37*
G36*
X-370661D02*
X-373750D01*
Y-258340D01*
X-373244Y-258239D01*
X-371756Y-257244D01*
X-370761Y-255756D01*
X-370661Y-255250D01*
D02*
G37*
G36*
X-373750Y-249660D02*
Y-252750D01*
X-370661D01*
X-370761Y-252244D01*
X-371756Y-250756D01*
X-373244Y-249761D01*
X-373750Y-249660D01*
D02*
G37*
G36*
X-263250Y-244250D02*
X-266339D01*
X-266239Y-244756D01*
X-265244Y-246244D01*
X-263756Y-247239D01*
X-263250Y-247339D01*
Y-244250D01*
D02*
G37*
G36*
X-376250Y-249660D02*
X-376756Y-249761D01*
X-378244Y-250756D01*
X-379239Y-252244D01*
X-379339Y-252750D01*
X-376250D01*
Y-249660D01*
D02*
G37*
G36*
X-318750Y-295660D02*
Y-298750D01*
X-315660D01*
X-315761Y-298244D01*
X-316756Y-296756D01*
X-318244Y-295761D01*
X-318750Y-295660D01*
D02*
G37*
G36*
X-234000Y-326905D02*
X-236872Y-327283D01*
X-239548Y-328391D01*
X-241845Y-330155D01*
X-243609Y-332453D01*
X-244717Y-335128D01*
X-245095Y-338000D01*
X-244717Y-340872D01*
X-243609Y-343547D01*
X-241845Y-345845D01*
X-239548Y-347608D01*
X-236872Y-348717D01*
X-234000Y-349095D01*
X-231129Y-348717D01*
X-228453Y-347608D01*
X-226155Y-345845D01*
X-224392Y-343547D01*
X-223283Y-340872D01*
X-222905Y-338000D01*
X-223283Y-335128D01*
X-224392Y-332453D01*
X-226155Y-330155D01*
X-228453Y-328391D01*
X-231129Y-327283D01*
X-234000Y-326905D01*
D02*
G37*
G36*
X-187250Y-345250D02*
X-190339D01*
X-190239Y-345756D01*
X-189244Y-347244D01*
X-187756Y-348239D01*
X-187250Y-348340D01*
Y-345250D01*
D02*
G37*
G36*
X-649550Y253755D02*
X-653375Y253378D01*
X-657053Y252262D01*
X-660442Y250451D01*
X-663413Y248013D01*
X-665851Y245042D01*
X-667662Y241653D01*
X-668778Y237975D01*
X-669155Y234150D01*
X-668778Y230326D01*
X-667662Y226648D01*
X-665851Y223259D01*
X-663413Y220288D01*
X-660442Y217850D01*
X-657053Y216038D01*
X-653375Y214923D01*
X-649550Y214546D01*
X-645726Y214923D01*
X-642048Y216038D01*
X-638659Y217850D01*
X-635688Y220288D01*
X-633250Y223259D01*
X-631438Y226648D01*
X-630322Y230326D01*
X-629946Y234150D01*
X-630322Y237975D01*
X-631438Y241653D01*
X-633250Y245042D01*
X-635688Y248013D01*
X-638659Y250451D01*
X-642048Y252262D01*
X-645726Y253378D01*
X-649550Y253755D01*
D02*
G37*
G36*
X-511101Y245602D02*
X-520678D01*
X-520468Y244005D01*
X-519370Y241354D01*
X-517623Y239078D01*
X-515346Y237331D01*
X-512695Y236233D01*
X-511101Y236023D01*
Y245602D01*
D02*
G37*
G36*
Y257678D02*
X-512695Y257468D01*
X-515346Y256370D01*
X-517623Y254623D01*
X-519370Y252346D01*
X-520468Y249695D01*
X-520678Y248102D01*
X-511101D01*
Y257678D01*
D02*
G37*
G36*
X-564372Y-133849D02*
X-573950D01*
Y-143427D01*
X-572355Y-143217D01*
X-569704Y-142119D01*
X-567427Y-140372D01*
X-565681Y-138096D01*
X-564582Y-135445D01*
X-564372Y-133849D01*
D02*
G37*
G36*
X-576450D02*
X-586027D01*
X-585817Y-135445D01*
X-584719Y-138096D01*
X-582972Y-140372D01*
X-580696Y-142119D01*
X-578045Y-143217D01*
X-576450Y-143427D01*
Y-133849D01*
D02*
G37*
G36*
X-271250Y-145660D02*
X-271756Y-145761D01*
X-273244Y-146756D01*
X-274239Y-148244D01*
X-274340Y-148750D01*
X-271250D01*
Y-145660D01*
D02*
G37*
G36*
X-268750D02*
Y-148750D01*
X-265660D01*
X-265761Y-148244D01*
X-266756Y-146756D01*
X-268244Y-145761D01*
X-268750Y-145660D01*
D02*
G37*
G36*
X-576450Y-121773D02*
X-578045Y-121982D01*
X-580696Y-123081D01*
X-582972Y-124827D01*
X-584719Y-127104D01*
X-585817Y-129755D01*
X-586027Y-131349D01*
X-576450D01*
Y-121773D01*
D02*
G37*
G36*
X-542750Y-78250D02*
X-550149D01*
Y-85650D01*
X-549119Y-85514D01*
X-546993Y-84634D01*
X-545167Y-83233D01*
X-543767Y-81407D01*
X-542886Y-79282D01*
X-542750Y-78250D01*
D02*
G37*
G36*
X-573950Y-121772D02*
Y-131349D01*
X-564373D01*
X-564582Y-129755D01*
X-565681Y-127104D01*
X-567427Y-124827D01*
X-569704Y-123081D01*
X-572355Y-121982D01*
X-573950Y-121772D01*
D02*
G37*
G36*
X-260750Y-238661D02*
Y-241750D01*
X-257661D01*
X-257761Y-241244D01*
X-258756Y-239756D01*
X-260244Y-238761D01*
X-260750Y-238661D01*
D02*
G37*
G36*
X-257661Y-244250D02*
X-260750D01*
Y-247339D01*
X-260244Y-247239D01*
X-258756Y-246244D01*
X-257761Y-244756D01*
X-257661Y-244250D01*
D02*
G37*
G36*
X-263250Y-238661D02*
X-263756Y-238761D01*
X-265244Y-239756D01*
X-266239Y-241244D01*
X-266339Y-241750D01*
X-263250D01*
Y-238661D01*
D02*
G37*
G36*
X-271250Y-151250D02*
X-274340D01*
X-274239Y-151756D01*
X-273244Y-153244D01*
X-271756Y-154239D01*
X-271250Y-154340D01*
Y-151250D01*
D02*
G37*
G36*
X-265660D02*
X-268750D01*
Y-154340D01*
X-268244Y-154239D01*
X-266756Y-153244D01*
X-265761Y-151756D01*
X-265660Y-151250D01*
D02*
G37*
G36*
X-550149Y-68351D02*
Y-75750D01*
X-542750D01*
X-542886Y-74719D01*
X-543767Y-72593D01*
X-545167Y-70767D01*
X-546993Y-69367D01*
X-549119Y-68486D01*
X-550149Y-68351D01*
D02*
G37*
G36*
X-649550Y152155D02*
X-653375Y151778D01*
X-657053Y150662D01*
X-660442Y148851D01*
X-663413Y146413D01*
X-665851Y143442D01*
X-667662Y140052D01*
X-668778Y136375D01*
X-669155Y132550D01*
X-668778Y128726D01*
X-667662Y125048D01*
X-665851Y121659D01*
X-663413Y118688D01*
X-660442Y116250D01*
X-657053Y114438D01*
X-653375Y113322D01*
X-649550Y112946D01*
X-645726Y113322D01*
X-642048Y114438D01*
X-638659Y116250D01*
X-635688Y118688D01*
X-633250Y121659D01*
X-631438Y125048D01*
X-630322Y128726D01*
X-629946Y132550D01*
X-630322Y136375D01*
X-631438Y140052D01*
X-633250Y143442D01*
X-635688Y146413D01*
X-638659Y148851D01*
X-642048Y150662D01*
X-645726Y151778D01*
X-649550Y152155D01*
D02*
G37*
G36*
X-348200Y-66673D02*
X-350873Y-67025D01*
X-353364Y-68057D01*
X-355503Y-69698D01*
X-357144Y-71837D01*
X-358176Y-74327D01*
X-358527Y-77000D01*
X-358176Y-79673D01*
X-357144Y-82164D01*
X-355503Y-84303D01*
X-353364Y-85944D01*
X-350873Y-86976D01*
X-348200Y-87328D01*
X-345527Y-86976D01*
X-343036Y-85944D01*
X-340898Y-84303D01*
X-339256Y-82164D01*
X-338225Y-79673D01*
X-337873Y-77000D01*
X-338225Y-74327D01*
X-339256Y-71837D01*
X-340898Y-69698D01*
X-343036Y-68057D01*
X-345527Y-67025D01*
X-348200Y-66673D01*
D02*
G37*
G36*
X-424400D02*
X-427073Y-67025D01*
X-429564Y-68057D01*
X-431703Y-69698D01*
X-433344Y-71837D01*
X-434375Y-74327D01*
X-434727Y-77000D01*
X-434375Y-79673D01*
X-433344Y-82164D01*
X-431703Y-84303D01*
X-429564Y-85944D01*
X-427073Y-86976D01*
X-424400Y-87328D01*
X-421727Y-86976D01*
X-419236Y-85944D01*
X-417098Y-84303D01*
X-415456Y-82164D01*
X-414425Y-79673D01*
X-414073Y-77000D01*
X-414425Y-74327D01*
X-415456Y-71837D01*
X-417098Y-69698D01*
X-419236Y-68057D01*
X-421727Y-67025D01*
X-424400Y-66673D01*
D02*
G37*
%LPD*%
D29*
X-541000Y312000D02*
X-521750Y292750D01*
X-357250D01*
X-356000Y294000D01*
X-243746Y248000D02*
X-227000D01*
X-252997Y257250D02*
X-243746Y248000D01*
X-444957Y262542D02*
Y275000D01*
Y262542D02*
X-441665Y259250D01*
X-337496D02*
X-335496Y257250D01*
X-441665Y259250D02*
X-337496D01*
X-335496Y257250D02*
X-252997D01*
X-468948Y244000D02*
X-454948Y230000D01*
X-209000D02*
X-157700Y281300D01*
X-454948Y230000D02*
X-209000D01*
X-509850Y221450D02*
X-209772D01*
X-152200Y279022D01*
Y287800D01*
X-132300Y307700D01*
X-507000Y244000D02*
X-468948D01*
X-509850Y246850D02*
X-507000Y244000D01*
X-157700Y281300D02*
Y307700D01*
X-524350Y170650D02*
X-509850D01*
X-475200Y75400D02*
Y135200D01*
X-485250Y145250D02*
X-475200Y135200D01*
X-509850Y145250D02*
X-485250D01*
X-509850Y170650D02*
X-484650D01*
X-468750Y154750D01*
Y101750D02*
Y154750D01*
X-348200Y75400D02*
Y90200D01*
X-468750Y101750D02*
X-463000Y96000D01*
X-354000D01*
X-348200Y90200D01*
X-537989Y157011D02*
X-524350Y170650D01*
X-153000Y-465000D02*
Y-195000D01*
X-311386Y-259386D02*
X-311000Y-259000D01*
X-490000Y-193400D02*
X-373600Y-77000D01*
X-399000Y-82000D02*
Y-77000D01*
X-474000Y-34000D02*
X-349552D01*
X-216441Y-63089D02*
X-216352Y-63000D01*
X-305911Y-63089D02*
X-216441D01*
X-307000Y-62000D02*
X-305911Y-63089D01*
X-311000Y-259000D02*
Y-72552D01*
X-349552Y-34000D02*
X-311000Y-72552D01*
X-575200Y-208800D02*
X-559800Y-193400D01*
X-490000D01*
X-600600Y-132600D02*
Y-120600D01*
X-594000Y-114000D01*
X-514000D01*
X-476000Y-159000D02*
X-399000Y-82000D01*
X-602000Y-177000D02*
X-584000Y-159000D01*
X-476000D01*
X-602000Y-232000D02*
Y-177000D01*
Y-232000D02*
X-575200Y-258800D01*
Y-285000D02*
Y-258800D01*
X-492400Y75400D02*
X-488000Y71000D01*
X-500600Y75400D02*
X-492400D01*
X-512000Y80248D02*
Y86000D01*
X-512089Y80159D02*
X-512000Y80248D01*
X-537989Y111989D02*
Y157011D01*
Y111989D02*
X-512000Y86000D01*
X-514000Y-114000D02*
X-488000Y-88000D01*
Y71000D01*
X-626000Y-132600D02*
Y-115269D01*
X-616731Y-106000D01*
X-522000D01*
X-512089Y-96089D01*
Y80159D01*
X-165000Y-364000D02*
Y-158000D01*
X-189000Y-388000D02*
X-165000Y-364000D01*
X-407000Y-407000D02*
Y-393000D01*
Y-407000D02*
X-402000Y-412000D01*
X-360000D02*
X-336000Y-388000D01*
X-402000Y-412000D02*
X-360000D01*
X-336000Y-388000D02*
X-189000D01*
X-149000Y-142000D02*
X-131000D01*
X-165000Y-158000D02*
X-149000Y-142000D01*
X-186000Y-63000D02*
X-30000Y-219000D01*
Y-306000D02*
Y-219000D01*
X-216352Y-63000D02*
X-186000D01*
D30*
X-145000Y168000D02*
D03*
X-43400D02*
D03*
X-649550Y234150D02*
D03*
Y132550D02*
D03*
D31*
X-30700Y307700D02*
D03*
X-56100D02*
D03*
X-81500D02*
D03*
X-106900D02*
D03*
X-132300D02*
D03*
X-157700D02*
D03*
X-626000Y-285000D02*
D03*
X-600600D02*
D03*
X-575200D02*
D03*
X-626000Y-132600D02*
D03*
X-600600D02*
D03*
X-575200D02*
D03*
Y-234200D02*
D03*
Y-208800D02*
D03*
Y-183400D02*
D03*
X-509850Y119850D02*
D03*
Y145250D02*
D03*
Y170650D02*
D03*
Y196050D02*
D03*
Y221450D02*
D03*
Y246850D02*
D03*
D32*
X-571000Y312000D02*
D03*
X-541000D02*
D03*
X-456000Y173000D02*
D03*
X-426000Y143000D02*
D03*
Y173000D02*
D03*
X-456000Y143000D02*
D03*
X-414958Y275000D02*
D03*
X-444957Y305000D02*
D03*
Y275000D02*
D03*
X-414958Y305000D02*
D03*
X-51000Y-449000D02*
D03*
Y-479000D02*
D03*
X-387000Y-508000D02*
D03*
X-357000D02*
D03*
X-407000Y-393000D02*
D03*
Y-363000D02*
D03*
X-377000D02*
D03*
Y-393000D02*
D03*
X-437000D02*
D03*
Y-363000D02*
D03*
X-467000D02*
D03*
Y-393000D02*
D03*
X-234000Y-338000D02*
D03*
X-264000D02*
D03*
D33*
X-205000Y498000D02*
D03*
X-115000Y-705000D02*
D03*
X-605000Y-352000D02*
D03*
D34*
X-651400Y-285000D02*
D03*
Y-132600D02*
D03*
D35*
X-424400Y50000D02*
D03*
X-449800D02*
D03*
X-475200D02*
D03*
X-526000D02*
D03*
X-551400Y75400D02*
D03*
X-526000D02*
D03*
X-500600D02*
D03*
X-475200D02*
D03*
X-449800D02*
D03*
X-424400D02*
D03*
X-399000D02*
D03*
X-373600D02*
D03*
X-348200D02*
D03*
X-322800D02*
D03*
X-297400D02*
D03*
X-272000D02*
D03*
X-246600D02*
D03*
X-221200D02*
D03*
Y50000D02*
D03*
Y24600D02*
D03*
Y-800D02*
D03*
Y-26200D02*
D03*
Y-51600D02*
D03*
Y-77000D02*
D03*
X-246600D02*
D03*
X-272000D02*
D03*
X-297400D02*
D03*
X-322800D02*
D03*
X-348200D02*
D03*
X-373600D02*
D03*
X-399000D02*
D03*
X-424400D02*
D03*
X-449800D02*
D03*
X-475200D02*
D03*
X-500600D02*
D03*
X-526000D02*
D03*
X-551400D02*
D03*
D36*
X-356000Y294000D02*
D03*
X-227000Y248000D02*
D03*
X-256000Y250000D02*
D03*
X-355000Y307000D02*
D03*
X-139000Y-175000D02*
D03*
X-200000Y323000D02*
D03*
X-14000Y-269000D02*
D03*
X-211000Y264000D02*
D03*
X-236000Y195000D02*
D03*
X-18000Y-369000D02*
D03*
X-113000Y-498000D02*
D03*
X-139000Y-269000D02*
D03*
X-116000Y-620000D02*
D03*
X-356000Y352000D02*
D03*
X-351000Y252000D02*
D03*
X-452000Y-262000D02*
D03*
X-186000Y-344000D02*
D03*
X-375000Y-254000D02*
D03*
X-320000Y-300000D02*
D03*
X-431000D02*
D03*
X-153000Y-465000D02*
D03*
Y-195000D02*
D03*
X-246000Y-516000D02*
D03*
X-270000Y-150000D02*
D03*
X-474000Y-34000D02*
D03*
X-311386Y-259386D02*
D03*
X-30000Y-306000D02*
D03*
X-307000Y-62000D02*
D03*
X-262000Y-243000D02*
D03*
X-131000Y-142000D02*
D03*
M02*
