M48
;Layer_Color=9474304
;FILE_FORMAT=4:4
METRIC,LZ
;TYPE=PLATED
T1F00S00C0.4000
T2F00S00C0.9652
T3F00S00C1.0160
T4F00S00C1.0500
T5F00S00C1.2700
T6F00S00C3.3020
T7F00S00C3.5000
%
T01
X-00069443Y-00581287
X-0028Y-00497576
X-00325Y-0041
X-00350512Y-00309108
X-00255Y-00316
X-0027863Y-00228844
X-0030911Y-00224272
X-0029895Y-00071364
X-00479798Y-00103876
X-0017449Y-00394198
X-00074922Y-0035305
X-00051808Y-00247262
X-00106418Y00173492
X-00119626Y00190764
X-00245102Y00183398
X-00176522Y00103388
X-00168Y-00031
X-00144264Y0030227
X-003872Y00220848
X-00314698Y00504708
X-00222242Y0053595
X-00176522Y00462544
X-00101Y00561
T02
X-003438Y-00285254
Y-00259854
Y-00234454
Y-00209054
Y-00183654
Y-00158254
Y-00132854
X-003184
X-00293
X-002676
X-002422
X-002168
X-001914
X-00166
X-001406
Y-00259854
Y-00285254
X-00166
X-001914
X-002168
X-002422
X-002676
X-00293
X-003184
X-001152
X-000898
X-000644
X-00039
X-000136
X-00039Y-00259854
X-000898
X-001152
Y-00132854
X-000898
X-000644
X-00039
X-000136
T03
X-00463Y-004672
X-004376
X-004122
X-003868
X-00463Y-004164
Y-00391
Y-003656
Y-003148
X-004376
X-004122
X-003868
X-0041585Y-0025215
Y-00226749
Y-0020135
Y-00175949
Y-00150549
Y-00125149
X-004126Y00102
X-003872
Y001528
Y001782
Y002036
Y002544
X-004126
X-00438
X-004634
Y00102
X-00438
X-0029015Y0015215
Y0017755
Y0020295
Y0022835
Y0025375
Y0027915
T04
X-00201Y-00586
X-00171
X-00056Y00201
Y00231
X-002Y00062
X-0023
Y00032
X-002
Y00002
Y-00028
X-0023
Y00002
X-00426Y00016
Y-00014
T05
X-00231Y-00606
X-00141
X-00245Y-00073
X-00406Y-00044
X-00036Y00171
Y00261
X-00245Y00107
X-00406Y00046
T06
X-0055555Y-0023945
Y-0013785
X-0015045Y0016485
Y0026645
T07
X-00083Y-00652
X-00644Y-00093
Y00097
X-00082Y00656
M30
