M48
;Layer_Color=9474304
;FILE_FORMAT=4:4
METRIC,LZ
;TYPE=PLATED
T1F00S00C0.4000
T2F00S00C0.9652
T3F00S00C1.0160
T4F00S00C1.0500
T5F00S00C1.2700
T6F00S00C3.3020
T7F00S00C3.5000
%
T01
X-00116Y-0062
X-00113Y-00498
X-00153Y-00465
X-00246Y-00516
X-00186Y-00344
X-00139Y-00269
X-00153Y-00195
X-00139Y-00175
X-0027Y-0015
X-00262Y-00243
X-00311386Y-00259386
X-0032Y-003
X-00375Y-00254
X-00452Y-00262
X-00431Y-003
X-00307Y-00062
X-00131Y-00142
X-00014Y-00269
X-0003Y-00306
Y-00383
X-00236Y00195
X-00227Y00248
X-00256Y0025
X-00211Y00264
X-002Y00323
X-00355Y00307
X-00356Y00294
X-00351Y00252
X-00356Y00352
X-00474Y-00034
T02
X-005514Y-00077
X-00526
X-005006
X-004752
X-004498
X-004244
X-00399
X-003736
X-003482
X-003228
X-002974
X-00272
X-002466
X-002212
Y-000516
Y-000262
Y-000008
Y000246
Y0005
Y000754
X-002466
X-00272
X-002974
X-003228
X-003482
X-003736
X-00399
X-004244
Y0005
X-004498
X-004752
Y000754
X-005006
X-00526
Y0005
X-004498Y000754
X-005514
T03
X-006514Y-00285
X-00626
X-006006
X-005752
Y-002342
Y-002088
Y-001834
Y-001326
X-006006
X-00626
X-006514
X-001089Y002957
X-000835
X-000581
X-000327
X-001343
X-001597
X-0050985Y0024685
Y0022145
Y0019605
Y0017065
Y0014525
Y0011985
T04
X-00051Y-00479
Y-00449
X-00357Y-00508
X-00387
X-00377Y-00393
X-00407
Y-00363
X-00377
X-00437
Y-00393
X-00467
Y-00363
X-00264Y-00338
X-00234
X-00426Y00143
X-00456
Y00173
X-00426
X-00414958Y00275
X-00444957
Y00305
X-00414958
X-00534Y00312
X-00564
T05
X-00071Y-00509
X-00327Y-00528
X-00417
X-00332Y-00408
X-00294Y-00318
X-00204
X-00512Y-00408
X-00071Y-00419
X-00416Y00113
Y00203
X-00454957Y00245
Y00335
X-00504Y00332
X-00594
T06
X-000454Y00156
X-00147
X-0064955Y0013255
Y0023415
T07
X-00158Y-00708
X-00631Y-00358
X-00029Y00349
X-00649Y00324
M30
