G04 Layer_Color=16711935*
%FSLAX44Y44*%
%MOMM*%
G71*
G01*
G75*
%ADD62C,4.7000*%
%ADD63C,3.5020*%
%ADD64C,2.0796*%
%ADD65C,0.2000*%
%ADD66C,1.8000*%
%ADD67R,2.0796X2.0796*%
%ADD68C,1.6478*%
%ADD69C,0.8000*%
D62*
X-29000Y349000D02*
D03*
X-649000Y324000D02*
D03*
X-158000Y-708000D02*
D03*
X-631000Y-358000D02*
D03*
D63*
X-147000Y156000D02*
D03*
X-45400D02*
D03*
X-649550Y234150D02*
D03*
Y132550D02*
D03*
D64*
X-32700Y295700D02*
D03*
X-58100D02*
D03*
X-83500D02*
D03*
X-108900D02*
D03*
X-134300D02*
D03*
X-159700D02*
D03*
X-626000Y-285000D02*
D03*
X-600600D02*
D03*
X-575200D02*
D03*
X-626000Y-132600D02*
D03*
X-600600D02*
D03*
X-575200D02*
D03*
Y-234200D02*
D03*
Y-208800D02*
D03*
Y-183400D02*
D03*
X-509850Y119850D02*
D03*
Y145250D02*
D03*
Y170650D02*
D03*
Y196050D02*
D03*
Y221450D02*
D03*
Y246850D02*
D03*
D65*
X-504000Y332000D02*
D03*
X-594000D02*
D03*
X-416000Y113000D02*
D03*
Y203000D02*
D03*
X-454957Y335000D02*
D03*
Y245000D02*
D03*
X-71000Y-509000D02*
D03*
Y-419000D02*
D03*
X-327000Y-528000D02*
D03*
X-417000D02*
D03*
X-512000Y-408000D02*
D03*
X-332000D02*
D03*
X-294000Y-318000D02*
D03*
X-204000D02*
D03*
D66*
X-564000Y312000D02*
D03*
X-534000D02*
D03*
X-456000Y173000D02*
D03*
X-426000Y143000D02*
D03*
Y173000D02*
D03*
X-456000Y143000D02*
D03*
X-414958Y275000D02*
D03*
X-444957Y305000D02*
D03*
Y275000D02*
D03*
X-414958Y305000D02*
D03*
X-51000Y-449000D02*
D03*
Y-479000D02*
D03*
X-387000Y-508000D02*
D03*
X-357000D02*
D03*
X-407000Y-393000D02*
D03*
Y-363000D02*
D03*
X-377000D02*
D03*
Y-393000D02*
D03*
X-437000D02*
D03*
Y-363000D02*
D03*
X-467000D02*
D03*
Y-393000D02*
D03*
X-234000Y-338000D02*
D03*
X-264000D02*
D03*
D67*
X-651400Y-285000D02*
D03*
Y-132600D02*
D03*
D68*
X-424400Y50000D02*
D03*
X-449800D02*
D03*
X-475200D02*
D03*
X-526000D02*
D03*
X-551400Y75400D02*
D03*
X-526000D02*
D03*
X-500600D02*
D03*
X-475200D02*
D03*
X-449800D02*
D03*
X-424400D02*
D03*
X-399000D02*
D03*
X-373600D02*
D03*
X-348200D02*
D03*
X-322800D02*
D03*
X-297400D02*
D03*
X-272000D02*
D03*
X-246600D02*
D03*
X-221200D02*
D03*
Y50000D02*
D03*
Y24600D02*
D03*
Y-800D02*
D03*
Y-26200D02*
D03*
Y-51600D02*
D03*
Y-77000D02*
D03*
X-246600D02*
D03*
X-272000D02*
D03*
X-297400D02*
D03*
X-322800D02*
D03*
X-348200D02*
D03*
X-373600D02*
D03*
X-399000D02*
D03*
X-424400D02*
D03*
X-449800D02*
D03*
X-475200D02*
D03*
X-500600D02*
D03*
X-526000D02*
D03*
X-551400D02*
D03*
D69*
X-30000Y-383000D02*
D03*
X-356000Y294000D02*
D03*
X-227000Y248000D02*
D03*
X-256000Y250000D02*
D03*
X-355000Y307000D02*
D03*
X-139000Y-175000D02*
D03*
X-200000Y323000D02*
D03*
X-14000Y-269000D02*
D03*
X-211000Y264000D02*
D03*
X-236000Y195000D02*
D03*
X-113000Y-498000D02*
D03*
X-139000Y-269000D02*
D03*
X-116000Y-620000D02*
D03*
X-356000Y352000D02*
D03*
X-351000Y252000D02*
D03*
X-452000Y-262000D02*
D03*
X-186000Y-344000D02*
D03*
X-375000Y-254000D02*
D03*
X-320000Y-300000D02*
D03*
X-431000D02*
D03*
X-153000Y-465000D02*
D03*
Y-195000D02*
D03*
X-246000Y-516000D02*
D03*
X-270000Y-150000D02*
D03*
X-474000Y-34000D02*
D03*
X-311386Y-259386D02*
D03*
X-30000Y-306000D02*
D03*
X-307000Y-62000D02*
D03*
X-262000Y-243000D02*
D03*
X-131000Y-142000D02*
D03*
M02*
